SplineFontDB: 3.2
FontName: Academicons
FullName: Academicons
FamilyName: Academicons
Weight: Regular
Copyright: 
UComments: "2020-7-8: Created with FontForge (http://fontforge.org)"
Version: 1.9.1
DefaultBaseFilename: academicons
ItalicAngle: 0
UnderlinePosition: -50
UnderlineWidth: 25
Ascent: 448
Descent: 64
InvalidEm: 0
LayerCount: 2
Layer: 0 0 "Arri+AOgA-re" 1
Layer: 1 0 "Avant" 0
XUID: [1021 310 -940631005 8426171]
FSType: 0
OS2Version: 0
OS2_WeightWidthSlopeOnly: 0
OS2_UseTypoMetrics: 1
CreationTime: 1594201369
ModificationTime: 1606665985
PfmFamily: 17
TTFWeight: 400
TTFWidth: 5
LineGap: 46
VLineGap: 0
Panose: 2 0 5 3 0 0 0 0 0 0
OS2TypoAscent: 0
OS2TypoAOffset: 1
OS2TypoDescent: 0
OS2TypoDOffset: 1
OS2TypoLinegap: 46
OS2WinAscent: 0
OS2WinAOffset: 1
OS2WinDescent: 0
OS2WinDOffset: 1
HheadAscent: 0
HheadAOffset: 1
HheadDescent: 0
HheadDOffset: 1
OS2Vendor: 'PfEd'
MarkAttachClasses: 1
DEI: 91125

StartChar: academia
Encoding: 1 59823 0
Width: 448
VWidth: 0
Flags: W
HStem: 0.0078125 20.5537<23.6328 49.3909 103.216 138.338 398.82 424.366> 117.584 36.6445<138.735 249.283>
LayerCount: 2
Fore
SplineSet
244.376953125 20.6513671875 m 2
 244.376953125 20.650390625 l 2
 259.40625 21.796875 278.765625 20.9140625 287.696289062 35.724609375 c 0
 291.14453125 47.2158203125 287.298828125 59.1962890625 283.0546875 69.890625 c 0
 276.689453125 85.759765625 270.325195312 101.627929688 263.958984375 117.452148438 c 1
 217.590820312 117.626953125 171.26953125 117.318359375 124.900390625 117.583984375 c 1
 116.546875 98.0908203125 109.296875 78.1552734375 101.649414062 58.3974609375 c 0
 98.4677734375 49.6904296875 95.064453125 38.1083984375 102.754882812 30.6826171875 c 0
 112.5234375 22.3720703125 126.315429688 22.5927734375 138.337890625 20.7373046875 c 0
 138.381835938 13.841796875 138.381835938 6.9453125 138.424804688 0.0068359375 c 1
 100.146484375 0.05078125 61.8681640625 -0.08203125 23.58984375 0.0947265625 c 0
 23.58984375 6.90234375 23.6328125 13.7099609375 23.6328125 20.4736328125 c 0
 35.3447265625 22.9033203125 49.9765625 25.77734375 54.44140625 38.640625 c 0
 93.9580078125 139.59765625 133.51953125 240.59765625 172.4609375 341.775390625 c 0
 166.051757812 355.56640625 160.87890625 369.885742188 154.69140625 383.766601562 c 1
 187.930664062 383.98828125 221.170898438 384.208984375 254.41015625 383.634765625 c 1
 299.893554688 268.7109375 346.661132812 154.227539062 392.76171875 39.5244140625 c 0
 397.403320312 26.3974609375 412.299804688 22.9931640625 424.366210938 20.5615234375 c 0
 424.366210938 13.7109375 424.41015625 6.8603515625 424.41015625 0.0078125 c 1
 364.385742188 0.0537109375 304.359375 -0.03515625 244.333007812 0.0537109375 c 0
 244.333007812 6.9482421875 244.376953125 13.7998046875 244.376953125 20.6513671875 c 2
138.735351562 154.359375 m 1
 153.990234375 154.287109375 178.752929688 154.228515625 194.008789062 154.228515625 c 0
 209.264648438 154.228515625 234.02734375 154.287109375 249.283203125 154.359375 c 1
 230.453125 201.479492188 211.536132812 248.59765625 192.749023438 295.760742188 c 1
 175.333984375 248.420898438 156.504882812 201.568359375 138.735351562 154.359375 c 1
EndSplineSet
Validated: 33
EndChar

StartChar: academia-square
Encoding: 2 59709 1
Width: 448
VWidth: 0
Flags: W
HStem: -32 64.0449<56.9922 152.688 240.945 391.008> 351.805 64.1953<166.242 252.898>
LayerCount: 2
Fore
SplineSet
48 416 m 2
 400 416 l 2
 426.5 416 448 394.5 448 368 c 2
 448 16 l 2
 448 -10.5 426.5 -32 400 -32 c 2
 48 -32 l 2
 21.5 -32 0 -10.5 0 16 c 2
 0 368 l 2
 0 394.5 21.5 416 48 416 c 2
207.79296875 352 m 0
 193.943359375 351.991210938 180.091796875 351.897460938 166.2421875 351.8046875 c 1
 171.3984375 340.237304688 175.708984375 328.305664062 181.05078125 316.8125 c 1
 148.599609375 232.498046875 115.6328125 148.33203125 82.701171875 64.201171875 c 0
 78.98046875 53.482421875 66.787109375 51.0859375 57.02734375 49.060546875 c 1
 57.02734375 43.423828125 56.9921875 37.7529296875 56.9921875 32.080078125 c 1
 88.890625 31.9326171875 120.7890625 32.04296875 152.6875 32.005859375 c 1
 152.651367188 37.7880859375 152.651367188 43.53515625 152.615234375 49.28125 c 1
 142.595703125 50.8271484375 131.103515625 50.642578125 122.962890625 57.568359375 c 0
 116.553710938 63.755859375 119.389648438 73.4072265625 122.041015625 80.6640625 c 0
 128.4140625 97.12890625 134.456054688 113.7421875 141.41796875 129.986328125 c 1
 180.05859375 129.764648438 218.658203125 130.0234375 257.298828125 129.876953125 c 1
 262.604492188 116.690429688 267.909179688 103.466796875 273.212890625 90.2421875 c 0
 276.749023438 81.330078125 279.954101562 71.345703125 277.080078125 61.76953125 c 0
 269.638671875 49.427734375 253.504882812 50.1650390625 240.98046875 49.208984375 c 1
 240.98046875 43.5 240.9453125 37.7900390625 240.9453125 32.044921875 c 1
 290.966796875 31.970703125 340.987304688 32.0458984375 391.0078125 32.0078125 c 1
 391.0078125 37.7177734375 390.97265625 43.42578125 390.97265625 49.134765625 c 1
 380.916992188 51.1611328125 368.501953125 53.998046875 364.634765625 64.9375 c 0
 326.217773438 160.5234375 287.244140625 255.92578125 249.341796875 351.6953125 c 1
 235.4921875 351.934570312 221.642578125 352.008789062 207.79296875 352 c 0
197.95703125 278.466796875 m 1
 213.612304688 239.1640625 229.376953125 199.899414062 245.068359375 160.6328125 c 1
 232.35546875 160.572265625 211.719726562 160.5234375 199.006835938 160.5234375 c 0
 186.293945312 160.5234375 165.658203125 160.572265625 152.9453125 160.6328125 c 1
 167.75390625 199.97265625 183.444335938 239.016601562 197.95703125 278.466796875 c 1
EndSplineSet
EndChar

StartChar: acclaim
Encoding: 3 59694 2
Width: 384
VWidth: 0
Flags: W
LayerCount: 2
Fore
SplineSet
192 384 m 1
 207.624023438 373.140625 349.12109375 239.734375 356.571289062 226.626953125 c 1
 356.571289062 154.40625 l 1
 346.24609375 154.153320312 209.006835938 297.958984375 192 304.7890625 c 1
 174.994140625 297.958984375 37.75390625 154.153320312 27.4287109375 154.40625 c 1
 27.4287109375 226.626953125 l 1
 34.87890625 239.734375 176.375976562 373.140625 192 384 c 1
192 229.59375 m 1
 207.624023438 218.734375 349.12109375 85.328125 356.571289062 72.220703125 c 1
 356.571289062 0 l 1
 346.24609375 -0.2529296875 209.006835938 143.552734375 192 150.384765625 c 1
 174.994140625 143.552734375 37.75390625 -0.2529296875 27.4287109375 0 c 1
 27.4287109375 72.220703125 l 1
 34.87890625 85.328125 176.375976562 218.734375 192 229.59375 c 1
EndSplineSet
EndChar

StartChar: acclaim-square
Encoding: 4 59706 3
Width: 448
VWidth: 0
Flags: W
HStem: -32 64<86.8574 101.494 346.506 361.143>
VStem: 0 86.8574<32 103.874 160.672 232.546> 361.143 86.8574<32 103.874 160.672 232.546>
LayerCount: 2
Fore
SplineSet
48 416 m 2
 400 416 l 2
 426.5 416 448 394.5 448 368 c 2
 448 16 l 2
 448 -10.5 426.5 -32 400 -32 c 2
 48 -32 l 2
 21.5 -32 0 -10.5 0 16 c 2
 0 368 l 2
 0 394.5 21.5 416 48 416 c 2
224 352 m 1
 210.979492188 342.950195312 93.06640625 231.778320312 86.857421875 220.85546875 c 1
 86.857421875 160.671875 l 1
 95.4619140625 160.4609375 209.828125 280.298828125 224 285.990234375 c 1
 238.171875 280.298828125 352.538085938 160.4609375 361.142578125 160.671875 c 1
 361.142578125 220.85546875 l 1
 354.93359375 231.778320312 237.020507812 342.950195312 224 352 c 1
224 223.328125 m 1
 210.979492188 214.278320312 93.06640625 103.106445312 86.857421875 92.18359375 c 1
 86.857421875 32 l 1
 95.4619140625 31.7890625 209.828125 151.626953125 224 157.3203125 c 1
 238.171875 151.626953125 352.538085938 31.7890625 361.142578125 32 c 1
 361.142578125 92.18359375 l 1
 354.93359375 103.106445312 237.020507812 214.279296875 224 223.328125 c 1
EndSplineSet
EndChar

StartChar: acm
Encoding: 5 59708 4
Width: 512
VWidth: 0
HStem: 56.3398 102.69<211.673 293.38> 171.654 40.6455<162.616 165.815 230.644 260.628> 171.654 15.8691<158.609 176.188> 179.96 23.8516<242.874 263.308> 226.737 102.686<214.083 313.699>
VStem: 119.459 15.7744<162.695 209.33> 156.025 20.3252<173.379 188.702> 196.953 7.88867<174.106 209.617> 225.86 48.3057<180.09 203.653> 263.308 10.8584<160.113 179.96 203.812 223.734> 294.725 18.8379<159.034 209.656> 334.118 18.8867<159.036 209.655> 373.52 19.0234<162.045 223.717>
LayerCount: 2
Fore
SplineSet
256 440 m 1x8f38
 504 192 l 1
 256 -56 l 1
 8 192 l 1
 256 440 l 1x8f38
256.022460938 40.6103515625 m 0
 340.01171875 40.6103515625 407.995117188 108.63671875 407.995117188 192.580078125 c 0
 407.995117188 276.569335938 340.01171875 344.643554688 256.022460938 344.643554688 c 0
 172.079101562 344.643554688 104.006835938 276.569335938 104.006835938 192.580078125 c 0
 104.006835938 108.63671875 172.079101562 40.6103515625 256.022460938 40.6103515625 c 0
161.733398438 187.5234375 m 0xaf38
 163.775390625 188.313476562 165.908203125 188.73046875 167.997070312 188.961914062 c 0
 170.086914062 189.239257812 172.870117188 189.565429688 176.350585938 189.935546875 c 2
 176.350585938 176.24609375 l 2
 174.865234375 174.807617188 173.1953125 173.600585938 171.24609375 172.858398438 c 0
 169.4375 171.930664062 167.580078125 171.654296875 165.91015625 171.654296875 c 0
 162.616210938 171.654296875 160.15625 172.163085938 158.532226562 173.32421875 c 0
 156.908203125 174.482421875 156.025390625 176.618164062 156.025390625 179.680664062 c 0
 156.025390625 181.72265625 156.583007812 183.392578125 157.603515625 184.692382812 c 0
 158.532226562 185.9921875 159.922851562 186.919921875 161.733398438 187.5234375 c 0xaf38
256 329.422851562 m 0
 331.411132812 329.422851562 392.54296875 268.291015625 392.54296875 192.880859375 c 0
 392.54296875 117.471679688 331.41015625 56.33984375 256 56.33984375 c 0
 180.58984375 56.33984375 119.458984375 117.471679688 119.458984375 192.880859375 c 0
 119.458984375 268.291015625 180.58984375 329.422851562 256 329.422851562 c 0
196.951171875 159.030273438 m 1
 196.953125 159.03125 l 1
 196.953125 203.903320312 l 2
 196.953125 211.60546875 194.353515625 217.40625 189.110351562 221.211914062 c 0
 183.915039062 224.922851562 175.701171875 226.872070312 164.37890625 226.872070312 c 0
 159.69140625 226.872070312 155.142578125 226.455078125 150.595703125 225.6171875 c 0
 146.048828125 224.782226562 142.80078125 224.131835938 140.758789062 223.482421875 c 2
 140.758789062 207.567382812 l 1
 142.428710938 207.567382812 l 2
 145.584960938 208.913085938 148.73828125 210.120117188 151.94140625 210.909179688 c 0
 155.190429688 211.834960938 157.973632812 212.299804688 160.43359375 212.299804688 c 0xcf38
 165.815429688 212.299804688 169.807617188 211.60546875 172.498046875 210.211914062 c 0
 175.141601562 208.8671875 176.534179688 206.314453125 176.534179688 202.741210938 c 2
 176.534179688 202.325195312 l 1
 170.546875 202.000976562 165.02734375 201.349609375 159.829101562 200.701171875 c 0
 154.724609375 200.004882812 150.268554688 198.752929688 146.557617188 196.989257812 c 0
 142.938476562 195.2265625 140.154296875 192.8125 138.158203125 189.796875 c 0
 136.208984375 186.827148438 135.233398438 182.881835938 135.233398438 177.91796875 c 0
 135.233398438 171.930664062 137.182617188 167.104492188 141.03515625 163.16015625 c 0
 144.83984375 159.307617188 149.665039062 157.265625 155.466796875 157.265625 c 0
 158.622070312 157.265625 161.034179688 157.498046875 162.751953125 158.0078125 c 0
 164.5625 158.379882812 166.279296875 159.076171875 168.135742188 160.049804688 c 0
 170.0390625 161.025390625 171.477539062 161.862304688 172.543945312 162.8359375 c 0
 173.583007812 163.706054688 175.288085938 165.098632812 176.348632812 165.943359375 c 2
 176.348632812 159.030273438 l 1
 196.951171875 159.030273438 l 1
263.307617188 203.811523438 m 1x9f78
 263.307617188 221.400390625 l 2x9f78
 259.640625 223.256835938 256.022460938 224.604492188 252.356445312 225.391601562 c 0
 248.78515625 226.271484375 245.073242188 226.737304688 241.452148438 226.737304688 c 0
 236.626953125 226.737304688 231.987304688 226.0859375 227.579101562 224.740234375 c 0
 223.077148438 223.442382812 219.225585938 221.3984375 215.931640625 218.662109375 c 0
 212.451171875 215.830078125 209.807617188 212.211914062 207.811523438 207.803710938 c 0
 205.76953125 203.30078125 204.841796875 198.057617188 204.841796875 191.700195312 c 0
 204.841796875 185.901367188 205.721679688 180.751953125 207.578125 176.434570312 c 0
 209.43359375 172.1640625 211.985351562 168.590820312 215.328125 165.668945312 c 0
 218.668945312 162.837890625 222.567382812 160.748046875 227.020507812 159.357421875 c 0
 231.524414062 158.009765625 236.581054688 157.268554688 242.009765625 157.268554688 c 0
 244.884765625 157.268554688 247.16015625 157.454101562 248.922851562 157.778320312 c 0
 250.640625 158.102539062 252.588867188 158.381835938 254.538085938 159.030273438 c 0
 256.209960938 159.448242188 257.693359375 160.005859375 259.224609375 160.609375 c 0
 260.801757812 161.306640625 262.147460938 161.907226562 263.30859375 162.419921875 c 2
 263.30859375 179.959960938 l 1
 260.6640625 179.959960938 l 2
 260.060546875 179.265625 259.1796875 178.475585938 258.204101562 177.641601562 c 0
 257.23046875 176.713867188 256.0234375 175.923828125 254.5859375 175.088867188 c 0
 253.240234375 174.298828125 251.568359375 173.557617188 249.666992188 172.954101562 c 0
 247.669921875 172.443359375 245.349609375 172.119140625 242.751953125 172.119140625 c 0
 237.6015625 172.119140625 233.563476562 173.743164062 230.5 176.944335938 c 0
 227.4375 180.193359375 225.860351562 185.157226562 225.860351562 191.700195312 c 0x9fb8
 225.860351562 197.874023438 227.392578125 202.791992188 230.223632812 206.411132812 c 0
 233.09765625 210.123046875 237.18359375 211.93359375 242.426757812 211.93359375 c 0
 244.745117188 211.93359375 246.834960938 211.606445312 248.783203125 211.05078125 c 0
 250.546875 210.399414062 252.309570312 209.84375 253.795898438 208.916015625 c 0
 255.233398438 208.171875 256.438476562 207.336914062 257.693359375 206.315429688 c 0
 258.8515625 205.481445312 259.920898438 204.598632812 260.663085938 203.811523438 c 2
 263.307617188 203.811523438 l 1x9f78
353.004882812 159.030273438 m 1
 353.004882812 159.036132812 l 1
 373.51953125 159.036132812 l 1
 373.51953125 201.866210938 l 2
 373.51953125 206.598632812 373.1015625 210.358398438 372.125976562 213.282226562 c 0
 371.24609375 216.20703125 369.8984375 218.7109375 367.997070312 220.846679688 c 0
 366.372070312 222.748046875 364.28515625 224.233398438 361.87109375 225.254882812 c 0
 359.409179688 226.180664062 356.673828125 226.73828125 353.610351562 226.73828125 c 0
 350.03515625 226.73828125 346.51171875 225.765625 342.983398438 223.768554688 c 0
 339.548828125 221.774414062 335.791992188 218.943359375 331.846679688 215.27734375 c 1
 330.221679688 219.129882812 327.948242188 221.9609375 324.79296875 223.862304688 c 0
 321.823242188 225.765625 318.25 226.739257812 314.259765625 226.739257812 c 0
 310.501953125 226.739257812 307.161132812 225.904296875 304.236328125 224.325195312 c 0
 301.266601562 222.698242188 298.065429688 220.426757812 294.723632812 217.595703125 c 2
 294.723632812 224.880859375 l 1
 274.166015625 224.880859375 l 1
 274.166015625 159.034179688 l 1
 294.724609375 159.034179688 l 1
 294.724609375 205.76171875 l 2
 296.208984375 206.782226562 297.786132812 207.7109375 299.41015625 208.545898438 c 0
 301.034179688 209.2890625 302.659179688 209.659179688 304.376953125 209.659179688 c 0
 306.55859375 209.659179688 308.274414062 209.379882812 309.57421875 208.685546875 c 0
 310.779296875 208.037109375 311.662109375 207.061523438 312.310546875 205.623046875 c 0
 312.9140625 204.23046875 313.190429688 202.372070312 313.376953125 200.146484375 c 0
 313.515625 197.873046875 313.5625 195.180664062 313.5625 191.979492188 c 2
 313.5625 159.032226562 l 1
 334.118164062 159.032226562 l 1
 334.118164062 205.759765625 l 2
 335.928710938 206.966796875 337.598632812 207.98828125 339.129882812 208.684570312 c 0
 340.706054688 209.37890625 342.23828125 209.658203125 343.81640625 209.658203125 c 0
 345.998046875 209.658203125 347.762695312 209.37890625 348.966796875 208.684570312 c 0
 350.173828125 208.03515625 351.1484375 207.059570312 351.706054688 205.62109375 c 0
 352.309570312 204.228515625 352.678710938 202.37109375 352.819335938 200.14453125 c 0
 352.958007812 197.87109375 353.004882812 195.178710938 353.004882812 191.977539062 c 2
 353.004882812 159.030273438 l 1
EndSplineSet
EndChar

StartChar: acm-square
Encoding: 6 59741 5
Width: 448
VWidth: 0
Flags: W
HStem: 94.3301 10.1465<195.3 252.718> 169.592 9.58203<157.269 171.584 207.642 226.727> 190.039 7.57422<160.001 172.613> 199.621 11.3477<215.312 228.715> 204.859 9.55078<149.65 170.047 207.457 226.504 250.375 262.366 276.033 287.473> 280.66 9.82031<196.457 251.561>
VStem: 125.939 9.9707<164.923 221.186> 146.086 13.4141<179.431 189.861> 172.613 13.293<170.73 175.189 178.874 190.668 198.092 203.709> 190.994 13.5605<181.121 202.649> 235.721 13.2637<170.732 203.392 208.514 213.213> 261.137 13.2617<170.73 203.392> 286.584 13.2344<170.732 203.376> 312.092 9.96875<164.923 221.186>
LayerCount: 2
Fore
SplineSet
48 416 m 2xe7fc
 400 416 l 2
 426.5 416 448 394.5 448 368 c 2
 448 16 l 2
 448 -10.5 426.5 -32 400 -32 c 2
 48 -32 l 2
 21.5 -32 0 -10.5 0 16 c 2
 0 368 l 2
 0 394.5 21.5 416 48 416 c 2xe7fc
224 352 m 1
 64 192 l 1
 224 32 l 1
 384 192 l 1
 224 352 l 1
224.013671875 290.48046875 m 0
 278.200195312 290.48046875 322.060546875 246.561523438 322.060546875 192.375 c 0
 322.060546875 138.217773438 278.200195312 94.330078125 224.013671875 94.330078125 c 0
 169.856445312 94.330078125 125.939453125 138.217773438 125.939453125 192.375 c 0
 125.939453125 246.561523438 169.856445312 290.48046875 224.013671875 290.48046875 c 0
224 280.66015625 m 0
 175.348632812 280.66015625 135.91015625 241.220703125 135.91015625 192.568359375 c 0
 135.91015625 143.91796875 175.348632812 104.4765625 224 104.4765625 c 0
 272.651367188 104.4765625 312.091796875 143.91796875 312.091796875 192.568359375 c 0
 312.091796875 241.219726562 272.65234375 280.66015625 224 280.66015625 c 0
164.888671875 214.498046875 m 0
 172.193359375 214.498046875 177.494140625 213.240234375 180.845703125 210.845703125 c 0
 184.228515625 208.390625 185.90625 204.649414062 185.90625 199.6796875 c 2
 185.90625 170.73046875 l 1
 185.904296875 170.728515625 l 1
 172.611328125 170.728515625 l 1
 172.611328125 175.189453125 l 2
 171.926757812 174.64453125 170.827148438 173.745117188 170.15625 173.18359375 c 0
 169.46875 172.555664062 168.541015625 172.015625 167.3125 171.38671875 c 0
 166.115234375 170.758789062 165.0078125 170.310546875 163.83984375 170.0703125 c 0
 162.731445312 169.741210938 161.176757812 169.591796875 159.140625 169.591796875 c 0
 155.397460938 169.591796875 152.28515625 170.907226562 149.830078125 173.392578125 c 0
 147.344726562 175.9375 146.0859375 179.051757812 146.0859375 182.9140625 c 0
 146.0859375 186.116210938 146.71484375 188.662109375 147.97265625 190.578125 c 0
 149.260742188 192.5234375 151.057617188 194.081054688 153.392578125 195.21875 c 0
 155.787109375 196.356445312 158.662109375 197.1640625 161.955078125 197.61328125 c 0
 165.30859375 198.032226562 168.870117188 198.452148438 172.732421875 198.662109375 c 2
 172.732421875 198.9296875 l 2
 172.732421875 201.235351562 171.833984375 202.881835938 170.12890625 203.75 c 0
 168.392578125 204.6484375 165.815429688 205.09765625 162.34375 205.09765625 c 0
 160.756835938 205.09765625 158.9609375 204.796875 156.865234375 204.19921875 c 0
 154.798828125 203.689453125 152.764648438 202.911132812 150.728515625 202.04296875 c 2
 149.650390625 202.04296875 l 1
 149.650390625 212.310546875 l 2
 150.967773438 212.729492188 153.064453125 213.150390625 155.998046875 213.689453125 c 0
 158.931640625 214.229492188 161.865234375 214.498046875 164.888671875 214.498046875 c 0
261.5859375 214.412109375 m 0
 264.16015625 214.412109375 266.466796875 213.784179688 268.3828125 212.556640625 c 0
 270.418945312 211.330078125 271.885742188 209.502929688 272.93359375 207.017578125 c 1
 275.478515625 209.3828125 277.903320312 211.209960938 280.119140625 212.49609375 c 0
 282.395507812 213.784179688 284.66796875 214.412109375 286.974609375 214.412109375 c 0
 288.950195312 214.412109375 290.716796875 214.052734375 292.3046875 213.455078125 c 0
 293.862304688 212.795898438 295.208007812 211.837890625 296.255859375 210.611328125 c 0
 297.482421875 209.234375 298.3515625 207.6171875 298.919921875 205.73046875 c 0
 299.548828125 203.84375 299.818359375 201.418945312 299.818359375 198.365234375 c 2
 299.818359375 170.732421875 l 1
 286.583984375 170.732421875 l 1
 286.583984375 191.986328125 l 2
 286.583984375 194.051757812 286.553710938 195.787109375 286.46484375 197.25390625 c 0
 286.374023438 198.690429688 286.135742188 199.888671875 285.74609375 200.787109375 c 0
 285.38671875 201.71484375 284.756835938 202.344726562 283.978515625 202.763671875 c 0
 283.201171875 203.211914062 282.063476562 203.392578125 280.65625 203.392578125 c 0
 279.637695312 203.392578125 278.650390625 203.211914062 277.6328125 202.763671875 c 0
 276.64453125 202.314453125 275.56640625 201.655273438 274.3984375 200.876953125 c 2
 274.3984375 170.73046875 l 1
 261.13671875 170.73046875 l 1
 261.13671875 191.986328125 l 2
 261.13671875 194.051757812 261.106445312 195.7890625 261.017578125 197.255859375 c 0
 260.897460938 198.692382812 260.719726562 199.890625 260.330078125 200.7890625 c 0
 259.911132812 201.716796875 259.341796875 202.346679688 258.564453125 202.765625 c 0
 257.725585938 203.213867188 256.619140625 203.392578125 255.2109375 203.392578125 c 0
 254.102539062 203.392578125 253.053710938 203.153320312 252.005859375 202.673828125 c 0
 250.958007812 202.135742188 249.94140625 201.537109375 248.984375 200.87890625 c 2
 248.984375 170.732421875 l 1
 235.720703125 170.732421875 l 1
 235.720703125 213.212890625 l 1
 248.982421875 213.212890625 l 1
 248.982421875 208.513671875 l 2
 251.138671875 210.33984375 253.205078125 211.805664062 255.12109375 212.85546875 c 0
 257.0078125 213.874023438 259.162109375 214.412109375 261.5859375 214.412109375 c 0
214.615234375 214.41015625 m 0xeffc
 216.951171875 214.41015625 219.344726562 214.111328125 221.6484375 213.54296875 c 0
 224.013671875 213.03515625 226.349609375 212.166015625 228.71484375 210.96875 c 2
 228.71484375 199.62109375 l 1
 227.0078125 199.62109375 l 2xf7fc
 226.529296875 200.12890625 225.83984375 200.698242188 225.091796875 201.236328125 c 0
 224.282226562 201.895507812 223.505859375 202.43359375 222.578125 202.9140625 c 0
 221.620117188 203.512695312 220.481445312 203.87109375 219.34375 204.291015625 c 0
 218.0859375 204.649414062 216.73828125 204.859375 215.2421875 204.859375 c 0
 211.859375 204.859375 209.223632812 203.69140625 207.369140625 201.296875 c 0
 205.54296875 198.961914062 204.5546875 195.7890625 204.5546875 191.806640625 c 0
 204.5546875 187.584960938 205.573242188 184.3828125 207.548828125 182.287109375 c 0
 209.524414062 180.221679688 212.129882812 179.173828125 215.453125 179.173828125 c 0
 217.12890625 179.173828125 218.625976562 179.383789062 219.9140625 179.712890625 c 0
 221.140625 180.102539062 222.219726562 180.580078125 223.087890625 181.08984375 c 0
 224.015625 181.627929688 224.793945312 182.137695312 225.421875 182.736328125 c 0
 226.05078125 183.274414062 226.620117188 183.78515625 227.009765625 184.232421875 c 2
 228.71484375 184.232421875 l 1
 228.71484375 172.916015625 l 2
 227.965820312 172.584960938 227.09765625 172.197265625 226.080078125 171.748046875 c 0
 225.091796875 171.358398438 224.134765625 170.998046875 223.056640625 170.728515625 c 0
 221.798828125 170.309570312 220.541992188 170.130859375 219.43359375 169.921875 c 0
 218.295898438 169.712890625 216.829101562 169.591796875 214.974609375 169.591796875 c 0
 211.471679688 169.591796875 208.209960938 170.0703125 205.3046875 170.939453125 c 0
 202.431640625 171.836914062 199.916015625 173.185546875 197.759765625 175.01171875 c 0
 195.603515625 176.896484375 193.95703125 179.202148438 192.759765625 181.95703125 c 0
 191.5625 184.7421875 190.994140625 188.065429688 190.994140625 191.806640625 c 0
 190.994140625 195.908203125 191.592773438 199.290039062 192.91015625 202.1953125 c 0
 194.198242188 205.0390625 195.903320312 207.374023438 198.1484375 209.201171875 c 0
 200.2734375 210.966796875 202.759765625 212.28515625 205.6640625 213.123046875 c 0
 208.5078125 213.991210938 211.501953125 214.41015625 214.615234375 214.41015625 c 0xeffc
172.61328125 190.66796875 m 2
 170.368164062 190.4296875 168.572265625 190.217773438 167.224609375 190.0390625 c 0
 165.876953125 189.889648438 164.500976562 189.62109375 163.18359375 189.111328125 c 0
 162.015625 188.721679688 161.118164062 188.124023438 160.51953125 187.28515625 c 0
 159.860351562 186.446289062 159.5 185.370117188 159.5 184.052734375 c 0
 159.5 182.077148438 160.069335938 180.69921875 161.1171875 179.951171875 c 0
 162.165039062 179.202148438 163.751953125 178.873046875 165.876953125 178.873046875 c 0
 166.954101562 178.873046875 168.153320312 179.051757812 169.3203125 179.650390625 c 0
 170.578125 180.12890625 171.655273438 180.908203125 172.61328125 181.8359375 c 2
 172.61328125 190.66796875 l 2
EndSplineSet
EndChar

StartChar: acmdl
Encoding: 7 59754 6
Width: 512
VWidth: 0
Flags: W
VStem: 169.97 57.9336<148.744 239.755> 169.97 50.1504<147.645 243.228> 253.819 42.5938<144.859 251.305>
LayerCount: 2
Fore
SplineSet
220.120117188 239.993164062 m 2x60
 220.120117188 239.9921875 l 1x60
 226.670898438 234.950195312 228.474609375 228.708007812 228.220703125 220.537109375 c 0
 227.620117188 201.266601562 228.123046875 181.96875 227.903320312 162.684570312 c 0xa0
 227.875976562 160.379882812 226.484375 157.858398438 225.12890625 155.83984375 c 0
 220.295898438 148.649414062 213.504882812 146.643554688 204.901367188 147.212890625 c 0
 193.463867188 147.971679688 181.935546875 147.401367188 169.969726562 147.401367188 c 1
 169.969726562 243.266601562 l 1
 174.30078125 243.266601562 l 2
 186.90234375 243.266601562 199.506835938 243.166992188 212.106445312 243.333007812 c 0
 215.4375 243.375976562 217.60546875 241.927734375 220.120117188 239.993164062 c 2x60
500.029296875 188.596679688 m 2
 500.028320312 188.596679688 l 1
 484.7109375 173.296875 469.510742188 157.877929688 454.069335938 142.709960938 c 0
 451.506835938 140.193359375 451.19921875 138.122070312 452.099609375 134.844726562 c 0
 458.203125 112.646484375 464.08984375 90.3857421875 470.087890625 67.9892578125 c 0
 469.428710938 67.748046875 468.950195312 67.5302734375 468.448242188 67.3916015625 c 0
 446.137695312 61.29296875 423.846679688 55.1240234375 401.486328125 49.2138671875 c 0
 398.9453125 48.5390625 398.2109375 47.322265625 397.641601562 45.154296875 c 0
 394.099609375 31.67578125 390.482421875 18.21875 386.864257812 4.7607421875 c 0
 384.403320312 -4.390625 381.90234375 -13.533203125 379.359375 -22.8974609375 c 0
 377.833007812 -22.5849609375 376.630859375 -22.4013671875 375.462890625 -22.09375 c 0
 353.90625 -16.408203125 332.33203125 -10.78515625 310.828125 -4.9052734375 c 0
 308.3671875 -4.2333984375 307.044921875 -4.67578125 305.434570312 -6.3046875 c 0
 295.3828125 -16.46875 285.243164062 -26.54296875 275.180664062 -36.697265625 c 0
 268.848632812 -43.0869140625 262.600585938 -49.5625 256.315429688 -56 c 1
 254.651367188 -56 l 1
 238.01171875 -39.2802734375 221.395507812 -22.5341796875 204.661132812 -5.9111328125 c 0
 203.766601562 -5.0244140625 201.6953125 -4.5966796875 200.424804688 -4.9296875 c 0
 177.443359375 -10.927734375 154.501953125 -17.076171875 131.14453125 -23.302734375 c 1
 128.205078125 -12.25390625 125.274414062 -1.2470703125 122.348632812 9.763671875 c 0
 119.23828125 21.4775390625 116.125976562 33.1875 113.032226562 44.9033203125 c 0
 112.407226562 47.259765625 111.431640625 48.62109375 108.615234375 49.3505859375 c 0
 87.18359375 54.8955078125 65.84765625 60.8212890625 44.4443359375 66.48828125 c 0
 41.259765625 67.3291015625 40.375 68.3623046875 41.33203125 71.8466796875 c 0
 47.1669921875 93.1064453125 52.6103515625 114.4765625 58.466796875 135.732421875 c 0
 59.23046875 138.5078125 58.73046875 139.987304688 56.88671875 141.8203125 c 0
 41.251953125 157.389648438 25.7607421875 173.108398438 10.0302734375 188.58203125 c 0
 7.1982421875 191.365234375 7.4248046875 192.829101562 10.111328125 195.478515625 c 0
 25.8212890625 210.971679688 41.3369140625 226.662109375 56.953125 242.250976562 c 0
 58.6259765625 243.920898438 59.306640625 245.26171875 58.5625 247.969726562 c 0
 52.72265625 269.23828125 47.33984375 290.631835938 41.4580078125 311.889648438 c 0
 40.435546875 315.584960938 41.1533203125 316.630859375 44.5810546875 317.521484375 c 0
 65.5009765625 322.969726562 86.3662109375 328.64453125 107.27734375 334.124023438 c 0
 110.591796875 334.994140625 112.3828125 336.455078125 113.306640625 340.067382812 c 0
 118.96484375 362.205078125 124.947265625 384.260742188 130.833984375 406.34375 c 0
 130.899414062 406.59375 131.116210938 406.8046875 131.390625 407.234375 c 0
 145.98046875 403.36328125 160.641601562 399.499023438 175.287109375 395.576171875 c 0
 183.807617188 393.294921875 192.28515625 390.84765625 200.829101562 388.657226562 c 0
 201.916015625 388.377929688 203.688476562 388.788085938 204.463867188 389.5625 c 0
 221.252929688 406.317382812 237.94140625 423.166992188 254.651367188 440 c 1
 256.31640625 440 l 1
 273.08203125 423.048828125 289.829101562 406.083984375 306.674804688 389.211914062 c 0
 307.333007812 388.551757812 308.993164062 388.405273438 310.016601562 388.673828125 c 0
 324.684570312 392.532226562 339.321289062 396.517578125 353.97265625 400.435546875 c 0
 362.30078125 402.6640625 370.642578125 404.828125 379.07421875 407.044921875 c 0
 379.546875 405.887695312 379.943359375 405.15625 380.151367188 404.375 c 0
 385.98046875 382.662109375 391.83203125 360.956054688 397.543945312 339.211914062 c 0
 398.215820312 336.66015625 399.142578125 335.341796875 401.932617188 334.659179688 c 0
 411.995117188 332.197265625 421.958007812 329.331054688 431.956054688 326.609375 c 0
 444.623046875 323.1640625 457.290039062 319.7109375 469.9609375 316.256835938 c 0
 469.875976562 315.513671875 469.87890625 315.09765625 469.775390625 314.708984375 c 0
 463.767578125 292.184570312 457.713867188 269.676757812 451.83203125 247.12109375 c 0
 451.484375 245.779296875 452.0390625 243.619140625 452.987304688 242.62109375 c 0
 459.109375 236.188476562 465.448242188 229.962890625 471.737304688 223.690429688 c 0
 482.247070312 213.2109375 492.770507812 202.749023438 504 191.57421875 c 1
 502.462890625 190.438476562 501.099609375 189.665039062 500.029296875 188.596679688 c 2
248.73828125 144.7109375 m 2
 248.737304688 144.708984375 l 2
 251.8984375 147.904296875 253.81640625 151.836914062 253.819335938 156.495117188 c 0
 253.823242188 182.197265625 253.856445312 207.8984375 253.790039062 233.599609375 c 0
 253.77734375 238.131835938 252.215820312 242.110351562 248.836914062 245.385742188 c 0
 242.9609375 251.0859375 237.201171875 256.912109375 231.479492188 262.768554688 c 0
 228.2890625 266.034179688 224.50390625 267.465820312 219.984375 267.458007812 c 0
 196.1328125 267.419921875 172.282226562 267.440429688 148.432617188 267.440429688 c 2
 144.196289062 267.440429688 l 1
 144.196289062 123.51953125 l 2
 144.88671875 123.388671875 145.280273438 123.250976562 145.674804688 123.250976562 c 0
 171.327148438 123.236328125 196.978515625 123.155273438 222.630859375 123.3515625 c 0
 224.998046875 123.370117188 227.849609375 124.599609375 229.626953125 126.208007812 c 0
 236.203125 132.151367188 242.5 138.407226562 248.73828125 144.7109375 c 2
392.508789062 123.45703125 m 1
 392.508789062 123.456054688 l 1
 392.508789062 147.618164062 l 1
 321.9296875 147.618164062 l 1
 321.9296875 267.194335938 l 1
 296.413085938 267.194335938 l 1
 296.413085938 123.45703125 l 1
 392.508789062 123.45703125 l 1
EndSplineSet
EndChar

StartChar: acmdl-square
Encoding: 8 59859 7
Width: 448
VWidth: 0
Flags: W
HStem: -32 96.9492<146.27 201.485> 147.779 15.5879<168.496 205.383 266.535 312.07> 225.076 15.5957<168.496 205.111> 318.875 97.125<146.698 201.394>
VStem: 0 85.5039<108.605 180.869> 151.869 16.627<163.227 225.076> 205.873 16.7207<163.784 224.775> 250.074 16.4609<163.367 240.512> 350.344 97.6562<214.151 269.806>
LayerCount: 2
Fore
SplineSet
48 416 m 2
 400 416 l 2
 426.5 416 448 394.5 448 368 c 2
 448 16 l 2
 448 -10.5 426.5 -32 400 -32 c 2
 48 -32 l 2
 21.5 -32 0 -10.5 0 16 c 2
 0 368 l 2
 0 394.5 21.5 416 48 416 c 2
223.130859375 352 m 1
 212.349609375 341.139648438 201.581054688 330.268554688 190.75 319.458984375 c 0
 190.25 318.958984375 189.107421875 318.6953125 188.40625 318.875 c 0
 182.89453125 320.288085938 177.424804688 321.868164062 171.927734375 323.33984375 c 0
 162.479492188 325.870117188 153.020507812 328.364257812 143.607421875 330.861328125 c 0
 143.430664062 330.583984375 143.291015625 330.448242188 143.248046875 330.287109375 c 0
 139.450195312 316.040039062 135.58984375 301.809570312 131.939453125 287.52734375 c 0
 131.34375 285.196289062 130.189453125 284.254882812 128.05078125 283.693359375 c 0
 114.559570312 280.158203125 101.098632812 276.497070312 87.6015625 272.982421875 c 0
 85.3896484375 272.408203125 84.92578125 271.731445312 85.5859375 269.34765625 c 0
 89.3798828125 255.6328125 92.853515625 241.831054688 96.62109375 228.109375 c 0
 97.1015625 226.362304688 96.6611328125 225.497070312 95.58203125 224.419921875 c 0
 85.5068359375 214.362304688 75.4970703125 204.240234375 65.361328125 194.244140625 c 0
 63.62890625 192.53515625 63.4833984375 191.590820312 65.310546875 189.794921875 c 0
 75.458984375 179.8125 85.4521484375 169.670898438 95.5390625 159.626953125 c 0
 96.728515625 158.444335938 97.0517578125 157.48828125 96.55859375 155.697265625 c 0
 92.7802734375 141.983398438 89.2685546875 128.198242188 85.50390625 114.482421875 c 0
 84.88671875 112.234375 85.458984375 111.56640625 87.513671875 111.0234375 c 0
 101.322265625 107.3671875 115.086914062 103.545898438 128.9140625 99.96875 c 0
 130.73046875 99.498046875 131.358398438 98.619140625 131.76171875 97.099609375 c 0
 133.7578125 89.541015625 135.766601562 81.9853515625 137.7734375 74.427734375 c 0
 139.66015625 67.32421875 141.55078125 60.2236328125 143.447265625 53.095703125 c 1
 158.516601562 57.11328125 173.318359375 61.080078125 188.14453125 64.94921875 c 0
 188.96484375 65.1640625 190.301757812 64.88671875 190.87890625 64.314453125 c 0
 201.67578125 53.5908203125 212.393554688 42.787109375 223.12890625 32 c 1
 224.203125 32 l 1
 228.2578125 36.1533203125 232.290039062 40.330078125 236.375 44.453125 c 0
 242.8671875 51.00390625 249.408203125 57.5048828125 255.892578125 64.0625 c 0
 256.931640625 65.11328125 257.78515625 65.3984375 259.373046875 64.96484375 c 0
 273.24609375 61.1708984375 287.1640625 57.54296875 301.072265625 53.875 c 0
 301.825195312 53.6767578125 302.6015625 53.556640625 303.5859375 53.35546875 c 0
 305.2265625 59.3974609375 306.83984375 65.296875 308.427734375 71.201171875 c 0
 310.76171875 79.8837890625 313.09765625 88.5654296875 315.3828125 97.26171875 c 0
 315.75 98.66015625 316.223632812 99.4443359375 317.86328125 99.87890625 c 0
 332.2890625 103.692382812 346.670898438 107.672851562 361.064453125 111.607421875 c 0
 361.387695312 111.696289062 361.6953125 111.8359375 362.12109375 111.9921875 c 0
 358.250976562 126.44140625 354.453125 140.803710938 350.515625 155.125 c 0
 349.935546875 157.239257812 350.133789062 158.575195312 351.787109375 160.19921875 c 0
 361.749023438 169.984375 371.5546875 179.93359375 381.4375 189.8046875 c 0
 382.127929688 190.494140625 383.008789062 190.991210938 384 191.724609375 c 1
 376.755859375 198.93359375 369.965820312 205.68359375 363.185546875 212.4453125 c 0
 359.127929688 216.4921875 355.037109375 220.5078125 351.087890625 224.658203125 c 0
 350.475585938 225.301757812 350.119140625 226.697265625 350.34375 227.5625 c 0
 354.137695312 242.114257812 358.04296875 256.635742188 361.919921875 271.16796875 c 0
 361.986328125 271.418945312 361.984375 271.686523438 362.0390625 272.166015625 c 0
 353.864257812 274.393554688 345.692382812 276.623046875 337.51953125 278.845703125 c 0
 331.069335938 280.6015625 324.642578125 282.451171875 318.150390625 284.0390625 c 0
 316.349609375 284.479492188 315.751953125 285.330078125 315.318359375 286.9765625 c 0
 311.6328125 301.004882812 307.858398438 315.0078125 304.09765625 329.015625 c 0
 303.963867188 329.51953125 303.70703125 329.991210938 303.40234375 330.73828125 c 0
 297.961914062 329.307617188 292.581054688 327.912109375 287.208984375 326.474609375 c 0
 277.756835938 323.946289062 268.3125 321.375976562 258.849609375 318.88671875 c 0
 258.189453125 318.713867188 257.118164062 318.806640625 256.693359375 319.232421875 c 0
 245.825195312 330.118164062 235.01953125 341.063476562 224.203125 352 c 1
 223.130859375 352 l 1
200.763671875 240.681640625 m 0
 203.6796875 240.6875 206.12109375 239.762695312 208.1796875 237.65625 c 0
 211.87109375 233.877929688 215.587890625 230.120117188 219.37890625 226.443359375 c 0
 221.55859375 224.330078125 222.56640625 221.76171875 222.57421875 218.837890625 c 0
 222.6171875 202.256835938 222.596679688 185.67578125 222.59375 169.09375 c 0
 222.591796875 166.088867188 221.354492188 163.551757812 219.314453125 161.490234375 c 0
 215.290039062 157.423828125 211.2265625 153.387695312 206.984375 149.552734375 c 0
 205.837890625 148.515625 203.998046875 147.72265625 202.470703125 147.7109375 c 0
 185.920898438 147.583984375 169.372070312 147.63671875 152.822265625 147.646484375 c 0
 152.568359375 147.646484375 152.314453125 147.734375 151.869140625 147.818359375 c 2
 151.869140625 240.671875 l 1
 154.6015625 240.671875 l 2
 169.98828125 240.671875 185.375976562 240.657226562 200.763671875 240.681640625 c 0
250.07421875 240.51171875 m 1
 266.53515625 240.51171875 l 1
 266.53515625 163.3671875 l 1
 312.0703125 163.3671875 l 1
 312.0703125 147.779296875 l 1
 250.07421875 147.779296875 l 1
 250.07421875 240.51171875 l 1
195.681640625 225.1171875 m 0
 187.552734375 225.010742188 179.420898438 225.076171875 171.291015625 225.076171875 c 2
 168.49609375 225.076171875 l 1
 168.49609375 163.2265625 l 1
 176.215820312 163.2265625 183.654296875 163.594726562 191.033203125 163.10546875 c 0
 196.583984375 162.737304688 200.963867188 164.03125 204.08203125 168.669921875 c 0
 204.956054688 169.97265625 205.85546875 171.599609375 205.873046875 173.0859375 c 0
 206.015625 185.52734375 205.69140625 197.978515625 206.078125 210.41015625 c 0
 206.2421875 215.681640625 205.078125 219.709960938 200.8515625 222.962890625 c 0
 199.229492188 224.2109375 197.831054688 225.145507812 195.681640625 225.1171875 c 0
EndSplineSet
EndChar

StartChar: ads
Encoding: 9 59851 8
Width: 512
VWidth: 0
HStem: 122.114 23.084<274.328 307.8> 224.827 25.541<277.844 313.125> 292.57 91.4297<149.985 209.817>
VStem: 115.938 8.94824<151.785 237.947> 134.187 91.4277<308.368 368.202> 239.96 31.7793<147.44 174.719> 243.862 30.6689<208.1 219.121> 315.787 31.6797<151.41 185.011 201.233 221.893>
LayerCount: 2
Fore
SplineSet
456.046875 285.178710938 m 1xf9
 510.594726562 197.8828125 484.047851562 82.89453125 396.751953125 28.3466796875 c 0
 327.78125 -14.7509765625 241.5234375 -7.2275390625 181.446289062 40.8857421875 c 1
 190.374023438 46.4638671875 l 1
 247.119140625 2.8408203125 327.231445312 -3.4189453125 391.497070312 36.736328125 c 0
 474.151367188 88.3828125 499.286132812 197.255859375 447.638671875 279.91015625 c 0
 412.20703125 336.612304688 355.767578125 366.794921875 293.4140625 363.13671875 c 0
 276.364257812 362.139648438 261.918945312 357.200195312 261.918945312 357.200195312 c 1
 261.918945312 357.200195312 261.165039062 362.390625 260.079101562 365.5625 c 1
 336.440429688 386.194335938 408.56640625 361.163085938 456.047851562 285.178710938 c 1
 456.046875 285.178710938 l 1xf9
115.9375 146.193359375 m 1
 115.938476562 146.193359375 l 1
 106.094726562 190.754882812 113.114257812 237.286132812 134.900390625 276.715820312 c 0
 137.848632812 275.162109375 142.875 269.685546875 142.875 269.685546875 c 1
 122.465820312 233.202148438 116.609375 193.221679688 124.88671875 151.78515625 c 1
 115.9375 146.193359375 l 1
349.584960938 134.26953125 m 2
 349.583984375 134.268554688 l 2
 350.625 132.780273438 352.186523438 131.5546875 354.274414062 130.587890625 c 2
 354.274414062 125.903320312 l 1
 319.701171875 125.903320312 l 2
 318.734375 128.357421875 318.064453125 130.661132812 317.693359375 132.818359375 c 0
 317.3203125 134.974609375 317.0234375 137.427734375 316.80078125 140.1796875 c 1
 312.388671875 135.421875 307.301757812 131.370117188 301.543945312 128.024414062 c 0
 294.663085938 124.083984375 286.884765625 122.114257812 278.209960938 122.114257812 c 0
 267.139648438 122.114257812 258.000976562 125.256835938 250.783203125 131.538085938 c 0
 243.56640625 137.8203125 239.959960938 146.723632812 239.959960938 158.248046875 c 0xfd
 239.959960938 173.192382812 245.762695312 184.008789062 257.373046875 190.701171875 c 0
 263.741210938 194.34375 273.103515625 196.947265625 285.4609375 198.508789062 c 2
 296.359375 199.846679688 l 2
 302.274414062 200.588867188 306.505859375 201.51953125 309.053710938 202.634765625 c 0
 313.620117188 204.56640625 315.90625 207.578125 315.90625 211.66796875 c 0
 315.90625 216.649414062 314.153320312 220.087890625 310.649414062 221.983398438 c 0
 307.143554688 223.879882812 302.000976562 224.827148438 295.217773438 224.827148438 c 0
 287.606445312 224.827148438 282.215820312 222.967773438 279.052734375 219.250976562 c 0
 276.790039062 216.500976562 275.28515625 212.784179688 274.53125 208.099609375 c 1
 243.862304688 208.099609375 l 1xfb
 244.534179688 218.731445312 247.51953125 227.465820312 252.822265625 234.30859375 c 0
 261.259765625 245.015625 275.745117188 250.368164062 296.282226562 250.368164062 c 0
 309.646484375 250.368164062 321.51953125 247.727539062 331.899414062 242.450195312 c 0
 342.278320312 237.170898438 347.466796875 227.20703125 347.466796875 212.561523438 c 2
 347.466796875 156.798828125 l 2
 347.466796875 152.930664062 347.5390625 148.247070312 347.689453125 142.747070312 c 0
 347.912109375 138.58203125 348.544921875 135.755859375 349.584960938 134.26953125 c 2
315.791015625 173.19140625 m 1
 315.787109375 173.19140625 l 1
 315.787109375 185.010742188 l 2
 313.75390625 183.747070312 311.69921875 182.724609375 309.625976562 181.944335938 c 0
 307.552734375 181.162109375 304.709960938 180.438476562 301.091796875 179.768554688 c 2
 293.857421875 178.430664062 l 2
 287.076171875 177.241210938 282.204101562 175.791015625 279.248046875 174.08203125 c 0
 274.2421875 171.182617188 271.739257812 166.68359375 271.739257812 160.587890625 c 0
 271.739257812 155.159179688 273.267578125 151.237304688 276.326171875 148.822265625 c 0
 279.383789062 146.405273438 283.102539062 145.198242188 287.481445312 145.198242188 c 0
 294.426757812 145.198242188 300.823242188 147.204101562 306.676757812 151.219726562 c 0
 312.529296875 155.236328125 315.56640625 162.557617188 315.791015625 173.19140625 c 1
225.614257812 338.28515625 m 0
 225.614257812 313.038085938 205.1484375 292.5703125 179.901367188 292.5703125 c 0
 154.654296875 292.5703125 134.186523438 313.038085938 134.186523438 338.28515625 c 0
 134.186523438 363.532226562 154.650390625 384 179.899414062 384 c 0
 205.1484375 384 225.614257812 363.532226562 225.614257812 338.28515625 c 0
317.43359375 321.4296875 m 1
 317.43359375 321.428710938 l 1
 392.009765625 309.615234375 442.888671875 239.5859375 431.076171875 165.009765625 c 0
 419.264648438 90.43359375 349.233398438 39.5537109375 274.657226562 51.365234375 c 0
 237.319335938 57.2783203125 205.918945312 77.7900390625 185.356445312 106.15625 c 1
 163.129882812 92.2685546875 l 1
 163.818359375 83.712890625 159.915039062 75.0615234375 152.2109375 70.0595703125 c 2
 64.9033203125 13.361328125 l 2
 53.7197265625 6.09765625 38.76953125 9.2744140625 31.5048828125 20.4599609375 c 0
 24.2421875 31.64453125 27.4208984375 46.59765625 38.6064453125 53.8623046875 c 2
 125.911132812 110.559570312 l 2
 133.532226562 115.5078125 142.899414062 115.60546875 150.39453125 111.62890625 c 1
 173.388671875 125.997070312 l 1
 161.3125 150.467773438 156.420898438 178.780273438 161.014648438 207.784179688 c 0
 163.856445312 225.723632812 170.065429688 242.2890625 178.896484375 256.942382812 c 1
 194.017578125 256.729492188 209.375 260.71875 223.155273438 269.329101562 c 0
 241.576171875 280.838867188 253.809570312 298.502929688 258.858398438 317.9921875 c 1
 277.336914062 323.2265625 297.21875 324.630859375 317.43359375 321.4296875 c 1
392.768554688 169.16796875 m 1
 401.2265625 222.567382812 364.793945312 272.715820312 311.393554688 281.173828125 c 0
 257.994140625 289.631835938 207.846679688 253.197265625 199.388671875 199.796875 c 0
 190.930664062 146.397460938 227.364257812 96.2490234375 280.764648438 87.791015625 c 0
 334.165039062 79.3330078125 384.310546875 115.765625 392.768554688 169.16796875 c 1
EndSplineSet
EndChar

StartChar: ads-square
Encoding: 10 59722 9
Width: 448
VWidth: 0
Flags: W
HStem: 152.998 27.6953<243.49 261.576> 200.863 18.4922<243.336 269.403> 240.641 26.6855<224.329 286.844> 246.119 29.6895<154.069 187.228> 342.41 73.5898<228.051 322.066> 352 64<133.645 187.52>
VStem: 0 122.488<286.967 340.842> 237.117 36.7051<158.175 176.954 205.459 214.601>
LayerCount: 2
Fore
SplineSet
48 416 m 2xc7
 400 416 l 2
 426.5 416 448 394.5 448 368 c 2
 448 16 l 2
 448 -10.5 426.5 -32 400 -32 c 2
 48 -32 l 2
 21.5 -32 0 -10.5 0 16 c 2
 0 368 l 2
 0 394.5 21.5 416 48 416 c 2xc7
160.58203125 352 m 0
 139.541015625 352 122.48828125 334.943359375 122.48828125 313.904296875 c 0
 122.48828125 292.865234375 139.544921875 275.80859375 160.583984375 275.80859375 c 0xd7
 181.623046875 275.80859375 198.677734375 292.865234375 198.677734375 313.904296875 c 0
 198.677734375 334.943359375 181.623046875 352 160.58203125 352 c 0
268.474609375 342.41015625 m 0xcb
 255.0703125 342.336914062 241.318359375 340.395507812 227.3984375 336.634765625 c 1
 228.303710938 333.991210938 228.931640625 329.666015625 228.931640625 329.666015625 c 1
 228.931640625 329.666015625 240.969726562 333.782226562 255.177734375 334.61328125 c 0
 307.138671875 337.662109375 354.172851562 312.509765625 383.69921875 265.2578125 c 0
 426.73828125 196.379882812 405.791992188 105.65234375 336.9140625 62.61328125 c 0
 283.359375 29.150390625 216.599609375 34.3681640625 169.3125 70.720703125 c 1
 161.87109375 66.0703125 l 1
 211.935546875 25.9765625 283.817382812 19.7080078125 341.29296875 55.623046875 c 0
 414.0390625 101.080078125 436.162109375 196.90234375 390.705078125 269.6484375 c 1
 390.70703125 269.6484375 l 1
 359.794921875 319.1171875 316.346679688 342.670898438 268.474609375 342.41015625 c 0xcb
256.408203125 301.2734375 m 0
 246.087890625 301.198242188 236.006835938 299.719726562 226.3828125 296.994140625 c 1
 222.174804688 280.752929688 211.98046875 266.032226562 196.62890625 256.44140625 c 0
 185.145507812 249.265625 172.34765625 245.94140625 159.74609375 246.119140625 c 1xd3
 152.38671875 233.908203125 147.213867188 220.103515625 144.845703125 205.154296875 c 0
 141.017578125 180.984375 145.092773438 157.389648438 155.15625 136.998046875 c 1
 135.99609375 125.0234375 l 1
 129.75 128.336914062 121.942382812 128.255859375 115.591796875 124.1328125 c 2
 42.837890625 76.884765625 l 2
 33.5166015625 70.8310546875 30.8681640625 58.37109375 36.919921875 49.05078125 c 0
 42.9736328125 39.7294921875 55.43359375 37.08203125 64.75390625 43.134765625 c 2
 137.5078125 90.3828125 l 2
 143.927734375 94.55078125 147.181640625 101.760742188 146.607421875 108.890625 c 1
 165.130859375 120.46484375 l 1
 182.266601562 96.826171875 208.43359375 79.732421875 239.548828125 74.8046875 c 0
 301.6953125 64.9619140625 360.052734375 107.361328125 369.896484375 169.5078125 c 0
 379.740234375 231.654296875 337.341796875 290.012695312 275.1953125 299.857421875 c 0
 268.877929688 300.857421875 262.600585938 301.318359375 256.408203125 301.2734375 c 0
257.744140625 267.326171875 m 0xe3
 261.841796875 267.303710938 265.990234375 266.971679688 270.162109375 266.310546875 c 0
 314.662109375 259.262695312 345.022460938 217.47265625 337.974609375 172.97265625 c 0
 330.926757812 128.470703125 289.13671875 98.1123046875 244.63671875 105.16015625 c 0
 200.13671875 112.208007812 169.776367188 153.998046875 176.82421875 198.498046875 c 0
 183.211914062 238.826171875 218.131835938 267.541992188 257.744140625 267.326171875 c 0xe3
123.083984375 262.59765625 m 0
 104.928710938 229.739257812 99.078125 190.962890625 107.28125 153.828125 c 1
 114.73828125 158.48828125 l 1
 107.840820312 193.018554688 112.720703125 226.334960938 129.728515625 256.73828125 c 1
 129.728515625 256.73828125 125.540039062 261.302734375 123.083984375 262.59765625 c 0
257.568359375 240.640625 m 0
 240.454101562 240.640625 228.3828125 236.178710938 221.3515625 227.255859375 c 0
 216.932617188 221.553710938 214.444335938 214.275390625 213.884765625 205.416015625 c 1
 239.443359375 205.416015625 l 2
 240.071289062 209.319335938 241.325195312 212.416992188 243.2109375 214.708984375 c 0
 245.846679688 217.806640625 250.338867188 219.35546875 256.681640625 219.35546875 c 0
 262.333984375 219.35546875 266.620117188 218.56640625 269.541015625 216.986328125 c 0
 272.4609375 215.40625 273.921875 212.541015625 273.921875 208.390625 c 0
 273.921875 204.982421875 272.016601562 202.47265625 268.2109375 200.86328125 c 0
 266.086914062 199.93359375 262.5625 199.158203125 257.6328125 198.5390625 c 2
 248.55078125 197.423828125 l 2
 238.251953125 196.123046875 230.451171875 193.954101562 225.14453125 190.91796875 c 0
 215.469726562 185.340820312 210.6328125 176.327148438 210.6328125 163.873046875 c 0
 210.6328125 154.26953125 213.637695312 146.850585938 219.65234375 141.615234375 c 0
 225.666992188 136.380859375 233.283203125 133.76171875 242.5078125 133.76171875 c 0
 249.737304688 133.76171875 256.219726562 135.404296875 261.953125 138.6875 c 0
 266.750976562 141.475585938 270.991210938 144.8515625 274.66796875 148.81640625 c 1
 274.853515625 146.5234375 275.099609375 144.478515625 275.41015625 142.681640625 c 0
 275.719726562 140.884765625 276.278320312 138.963867188 277.083984375 136.919921875 c 2
 305.89453125 136.919921875 l 1
 305.89453125 140.822265625 l 2
 304.154296875 141.627929688 302.853515625 142.650390625 301.986328125 143.890625 c 2
 301.98828125 143.890625 l 2
 301.12109375 145.12890625 300.59375 147.484375 300.408203125 150.955078125 c 0
 300.283203125 155.5390625 300.22265625 159.442382812 300.22265625 162.666015625 c 2
 300.22265625 209.134765625 l 2
 300.22265625 221.33984375 295.899414062 229.641601562 287.25 234.041015625 c 0
 278.599609375 238.439453125 268.706054688 240.640625 257.568359375 240.640625 c 0
273.822265625 186.17578125 m 2
 273.822265625 176.326171875 l 1
 273.826171875 176.326171875 l 1
 273.638671875 167.46484375 271.107421875 161.362304688 266.23046875 158.015625 c 0
 261.353515625 154.668945312 256.021484375 152.998046875 250.234375 152.998046875 c 0
 246.584960938 152.998046875 243.487304688 154.00390625 240.939453125 156.017578125 c 0
 238.390625 158.030273438 237.1171875 161.298828125 237.1171875 165.822265625 c 0
 237.1171875 170.90234375 239.202148438 174.65234375 243.373046875 177.068359375 c 0
 245.8359375 178.4921875 249.895507812 179.702148438 255.546875 180.693359375 c 2
 261.576171875 181.806640625 l 2
 264.590820312 182.365234375 266.959960938 182.969726562 268.6875 183.62109375 c 0
 270.415039062 184.271484375 272.127929688 185.122070312 273.822265625 186.17578125 c 2
EndSplineSet
EndChar

StartChar: africarxiv
Encoding: 11 59675 10
Width: 448
VWidth: 0
Flags: W
LayerCount: 2
Fore
SplineSet
166.836914062 439.990234375 m 1
 174.513671875 439.85546875 182.334960938 438.362304688 190.33203125 436.1796875 c 1
 186.19140625 430.884765625 178.439453125 432.026367188 174.817382812 426.635742188 c 1
 181.201171875 425.6484375 186.55859375 430.043945312 194.134765625 430.55859375 c 1
 185.686523438 419.896484375 193.27734375 414.014648438 200.586914062 407.06640625 c 1
 31.619140625 351.614257812 l 1
 37.130859375 361.030273438 42.8134765625 367.110351562 48.216796875 373.408203125 c 0
 48.23828125 373.426757812 48.26171875 373.443359375 48.2841796875 373.4609375 c 0
 49.65234375 378.9140625 54.029296875 381.383789062 58.625 383.546875 c 0
 63.8115234375 385.995117188 68.2763671875 389.203125 71.1044921875 394.326171875 c 0
 70.896484375 401.473632812 74.212890625 405.693359375 81.107421875 407.879882812 c 0
 95.6005859375 412.48828125 108.439453125 421.163085938 123.665039062 424.424804688 c 0
 128.318359375 425.418945312 133.224609375 429.529296875 137.887695312 432.366210938 c 2
 137.87890625 432.33984375 l 1
 147.336914062 438.087890625 156.967773438 440.163085938 166.836914062 439.990234375 c 1
257.51171875 406.344726562 m 2
 257.509765625 406.34375 l 2
 263.2109375 403.2265625 267.439453125 397.688476562 274.161132812 396.250976562 c 2
 278.942382812 395.864257812 l 2
 278.95703125 395.87109375 278.971679688 395.875 278.986328125 395.880859375 c 2
 278.986328125 395.861328125 l 1
 284.118164062 396.061523438 292.1328125 397.819335938 296.877929688 399.78515625 c 0
 305.262695312 403.13671875 311.063476562 400.686523438 314.370117188 392.310546875 c 0
 314.370117188 392.30859375 314.368164062 392.305664062 314.3671875 392.303710938 c 1
 314.375 392.305664062 314.37890625 392.30859375 314.381835938 392.310546875 c 1
 316.83984375 386.564453125 319.15234375 380.771484375 318.899414062 374.329101562 c 1
 249.880859375 335.901367188 l 2
 248.71484375 335.250976562 246.782226562 335.494140625 246.909179688 333.353515625 c 2
 246.901367188 333.348632812 l 2
 246.916015625 333.345703125 246.9296875 333.345703125 246.944335938 333.342773438 c 0
 260.931640625 335.240234375 273.01171875 342.55078125 286.0234375 347.204101562 c 0
 299.03515625 351.857421875 312.056640625 357.017578125 324.751953125 362.673828125 c 0
 330.236328125 365.11328125 332.883789062 363.775390625 335.232421875 358.958984375 c 0
 337.943359375 353.338867188 340.084960938 347.583984375 340.509765625 341.303710938 c 0
 340.501953125 341.293945312 340.495117188 341.28515625 340.484375 341.275390625 c 0
 341.81640625 332.850585938 345.180664062 325.146484375 348.93359375 317.584960938 c 2
 348.93359375 317.5390625 l 1
 354.409179688 311.963867188 348.129882812 311.341796875 345.374023438 309.9140625 c 0
 313.231445312 293.341796875 281.07421875 276.768554688 248.907226562 260.190429688 c 0
 224.685546875 247.655273438 200.439453125 235.17578125 176.169921875 222.75390625 c 0
 173.883789062 221.588867188 171.498046875 218.797851562 168.94140625 220.208007812 c 0
 155.46875 227.653320312 140.904296875 222.899414062 126.916992188 224.327148438 c 0
 123.979492188 224.625 120.98046875 224.390625 118.0078125 224.390625 c 0
 115.846679688 222.807617188 113.38671875 222.83984375 110.897460938 223.055664062 c 0
 110.881835938 223.048828125 110.8671875 223.041992188 110.8515625 223.03515625 c 2
 110.8203125 223.061523438 l 2
 110.806640625 223.063476562 110.79296875 223.0625 110.779296875 223.063476562 c 1
 110.78125 223.065429688 110.783203125 223.067382812 110.78515625 223.069335938 c 1
 104.21484375 221.935546875 97.716796875 222.01953125 91.5791015625 224.880859375 c 0
 87.6396484375 226.6875 84.3505859375 226.135742188 82.54296875 222.33203125 c 0
 79.3271484375 215.627929688 74.412109375 216.440429688 69.1259765625 218.790039062 c 0
 63.4404296875 221.298828125 57.853515625 224.022460938 52.2314453125 226.657226562 c 0
 52.2216796875 226.651367188 52.2109375 226.647460938 52.201171875 226.641601562 c 0
 44.9462890625 229.098632812 37.2109375 230.661132812 31.9609375 236.986328125 c 0
 26.349609375 240.682617188 24.71484375 243.547851562 32.9462890625 246.204101562 c 0
 46.2470703125 250.504882812 58.41796875 258.0859375 72.451171875 260.5078125 c 1
 121.434570312 285.463867188 l 1
 153.962890625 304.528320312 l 2
 154.482421875 305.740234375 155.434570312 306.385742188 156.46484375 306.930664062 c 1
 155.85546875 306.791992188 154.853515625 306.680664062 154.228515625 306.680664062 c 0
 154.115234375 306.680664062 153.930664062 306.68359375 153.818359375 306.688476562 c 0
 122.096679688 292.767578125 90.380859375 278.837890625 58.6708984375 264.8984375 c 0
 48.6416015625 260.479492188 38.6025390625 256.061523438 28.708984375 251.344726562 c 0
 24.3359375 249.266601562 21.6884765625 249.049804688 20.6318359375 254.7421875 c 0
 18.96875 263.732421875 16.7724609375 272.6328125 19.392578125 281.78515625 c 0
 19.40234375 281.790039062 19.412109375 281.79296875 19.4208984375 281.797851562 c 0
 19.4208984375 281.821289062 19.419921875 281.858398438 19.419921875 281.881835938 c 0
 19.419921875 284.103515625 21.0634765625 286.65234375 23.087890625 287.569335938 c 0
 33.1806640625 293.984375 29.59375 303.0390625 27.60546875 311.640625 c 0
 24.8857421875 323.422851562 25.41015625 324.498046875 37.23828125 328.365234375 c 0
 74.23046875 345.057617188 111.23828125 361.733398438 148.260742188 378.395507812 c 0
 164.217773438 385.54296875 180.35546875 392.365234375 196.086914062 400 c 0
 202.899414062 403.297851562 208.754882812 404.256835938 214.763671875 399.188476562 c 0
 222.723632812 392.474609375 230.612304688 394.190429688 237.6328125 400.225585938 c 0
 243.54296875 405.33984375 250.391601562 405.901367188 257.51171875 406.344726562 c 2
359.092773438 297.336914062 m 2
 359.094726562 297.336914062 l 2
 361.700195312 297.494140625 363.737304688 296.09375 365.725585938 292.576171875 c 0
 369.276367188 286.250976562 379.026367188 281.307617188 377.471679688 275.290039062 c 0
 376.279296875 270.645507812 366.013671875 268.27734375 359.734375 264.98828125 c 0
 345.331054688 257.453125 330.911132812 249.94140625 316.471679688 242.454101562 c 0
 315.9609375 241.279296875 315.208984375 240.344726562 314.352539062 239.515625 c 1
 315.75390625 239.958984375 317.1875 240.30078125 318.684570312 240.438476562 c 0
 338.647460938 248.4921875 358.614257812 256.532226562 378.583984375 264.556640625 c 0
 381.16796875 265.5859375 383.877929688 268.106445312 386.426757812 264.609375 c 2
 386.399414062 264.609375 l 1
 391.838867188 257.172851562 400.016601562 257.327148438 407.940429688 256.731445312 c 1
 407.935546875 256.716796875 407.93359375 256.705078125 407.932617188 256.690429688 c 1
 407.942382812 256.696289062 407.95703125 256.706054688 407.966796875 256.711914062 c 0
 411.641601562 257.294921875 417.077148438 259.525390625 420.1015625 261.692382812 c 0
 425.802734375 265.504882812 428.125 262.793945312 429.137695312 257.5078125 c 2
 429.110351562 257.5625 l 2
 429.82421875 253.831054688 430.293945312 249.999023438 429.038085938 246.23046875 c 1
 428.731445312 246.420898438 428.432617188 246.583984375 428.134765625 246.74609375 c 1
 428.333984375 246.516601562 428.739257812 246.286132812 429.038085938 246.23046875 c 1
 416.026367188 237.592773438 400.85546875 233.571289062 387.03125 226.66796875 c 0
 384.41015625 225.358398438 381.745117188 224.12109375 379.107421875 222.856445312 c 0
 378.155273438 221.615234375 377.05078125 220.7109375 375.856445312 220.009765625 c 1
 378.229492188 220.46875 380.623046875 220.826171875 383.0546875 220.985351562 c 2
 425.9921875 234.177734375 l 1
 419.341796875 223.966796875 415.303710938 214.154296875 405.861328125 208.362304688 c 0
 405.80859375 208.33203125 405.75390625 208.303710938 405.701171875 208.2734375 c 1
 405.76953125 208.296875 405.837890625 208.321289062 405.90625 208.344726562 c 1
 401.514648438 202.13671875 393.248046875 199.859375 389.877929688 192.630859375 c 2
 374.010742188 170.584960938 l 2
 370.532226562 162.416992188 363.71875 156.118164062 360.935546875 147.561523438 c 0
 360.930664062 147.559570312 360.9296875 147.557617188 360.927734375 147.5546875 c 0
 360.405273438 144.764648438 359.875 141.984375 359.353515625 139.203125 c 0
 358.9375 132.724609375 364.340820312 125.107421875 360.346679688 120.381835938 c 0
 356.6328125 116 348.783203125 115.005859375 342.666015625 112.765625 c 0
 296.396484375 95.748046875 250.083984375 78.8359375 203.73046875 62.029296875 c 0
 200.676757812 60.91796875 196.982421875 56.9873046875 194.19921875 60.3212890625 c 0
 192.778320312 62.015625 191.625 65.185546875 191.625 67.3974609375 c 0
 191.625 69.0185546875 192.280273438 71.4755859375 193.087890625 72.880859375 c 0
 193.090820312 72.8818359375 193.09375 72.8828125 193.096679688 72.8837890625 c 0
 196.74609375 86.07421875 201.65234375 98.9326171875 201.020507812 113.072265625 c 0
 200.767578125 118.728515625 206.099609375 120.2734375 210.842773438 121.33984375 c 0
 212.580078125 122.924804688 215.887695312 124.418945312 218.225585938 124.673828125 c 0
 218.365234375 124.940429688 218.723632812 125.15625 219.025390625 125.15625 c 0
 219.13671875 125.15625 219.30859375 125.118164062 219.409179688 125.0703125 c 0
 229.995117188 130.696289062 247.705078125 138.655273438 258.940429688 142.834960938 c 0
 259.610351562 143.846679688 261.139648438 144.666992188 262.352539062 144.666992188 c 0
 262.478515625 144.666992188 262.682617188 144.65625 262.807617188 144.641601562 c 0
 267.912109375 147.524414062 273.072265625 150.181640625 278.755859375 151.69921875 c 2
 312.881835938 167.848632812 l 2
 312.874023438 167.84765625 312.86328125 167.845703125 312.85546875 167.844726562 c 2
 311.048828125 169.70703125 l 1
 279.740234375 159.586914062 248.3125 149.791992188 217.193359375 139.129882812 c 0
 208.609375 136.193359375 203.522460938 136.301757812 202.05859375 146.286132812 c 1
 193.483398438 157.01953125 l 1
 189.825195312 161.890625 l 2
 189.833007812 161.89453125 189.83984375 161.897460938 189.84765625 161.901367188 c 1
 189.837890625 161.903320312 189.827148438 161.905273438 189.81640625 161.908203125 c 0
 187.4140625 165.458984375 184.985351562 171.786132812 184.39453125 176.032226562 c 0
 184.455078125 179.185546875 184.520507812 182.341796875 184.592773438 185.501953125 c 0
 184.592773438 185.510742188 184.591796875 185.51953125 184.592773438 185.528320312 c 0
 184.595703125 185.529296875 184.598632812 185.53125 184.6015625 185.532226562 c 0
 184.431640625 191.979492188 185.432617188 198.481445312 182.126953125 204.630859375 c 0
 179.59765625 209.356445312 184.899414062 209.149414062 186.788085938 210.116210938 c 0
 216.759765625 225.639648438 246.884765625 240.836914062 276.96484375 256.198242188 c 0
 302.563476562 269.236328125 328.234375 282.147460938 353.678710938 295.493164062 c 0
 355.762695312 296.586914062 357.530273438 297.243164062 359.092773438 297.336914062 c 2
361.70703125 111.66015625 m 2
 361.708984375 111.661132812 l 2
 363.620117188 111.53515625 364.32421875 109.911132812 364.541992188 107.090820312 c 0
 365.490234375 94.67578125 364.14453125 82.8564453125 355.505859375 72.9716796875 c 0
 355.498046875 72.9638671875 355.495117188 72.9599609375 355.487304688 72.95703125 c 1
 355.49609375 72.9580078125 355.51171875 72.958984375 355.521484375 72.9599609375 c 1
 349.56640625 58.5029296875 339.862304688 47.2177734375 325.61328125 40.865234375 c 0
 292.135742188 25.947265625 258.288085938 11.8701171875 224.801757812 -3.0390625 c 0
 217.482421875 -6.2919921875 216.263671875 -4.2236328125 216.71484375 2.5078125 c 0
 216.905273438 5.41796875 216.19140625 8.3916015625 215.892578125 11.328125 c 2
 215.892578125 11.33984375 l 1
 215.875 11.33984375 l 2
 215.879882812 11.3408203125 215.887695312 11.341796875 215.892578125 11.3427734375 c 1
 213.408203125 22.0302734375 208.970703125 31.99609375 204.146484375 41.75390625 c 0
 202.16796875 45.765625 202.999023438 47.1748046875 206.857421875 48.7822265625 c 0
 257.384765625 69.3662109375 307.861328125 90.064453125 358.286132812 110.876953125 c 0
 359.720703125 111.466796875 360.837890625 111.717773438 361.70703125 111.66015625 c 2
417.302734375 93.1826171875 m 2
 417.302734375 93.181640625 l 2
 417.877929688 93.185546875 418.482421875 93.1064453125 419.115234375 92.9287109375 c 0
 424.626953125 91.392578125 421.826171875 85.75390625 421.736328125 81.7158203125 c 0
 420.208984375 62.8486328125 416.91015625 45.0029296875 396.552734375 36.537109375 c 0
 393.616210938 35.3076171875 390.98828125 33.3486328125 388.22265625 31.7314453125 c 0
 387.665039062 30.73828125 386.926757812 29.9638671875 386.098632812 29.302734375 c 1
 387.380859375 29.8349609375 388.841796875 29.4716796875 390.120117188 29.951171875 c 2
 390.131835938 29.99609375 l 1
 406.395507812 34.9287109375 l 1
 406.91015625 29.646484375 405.655273438 25.1669921875 403.950195312 20.7333984375 c 0
 402.087890625 12.0771484375 402.133789062 2.4853515625 390.873046875 -0.744140625 c 0
 381.577148438 -3.3974609375 378.345703125 -2.19140625 374.043945312 7.283203125 c 0
 374.032226562 7.283203125 374.025390625 7.28125 374.017578125 7.2802734375 c 0
 372.543945312 12.837890625 374.0625 18.123046875 375.454101562 23.4267578125 c 0
 376.243164062 24.4033203125 377.173828125 25.126953125 378.171875 25.7314453125 c 1
 377.345703125 25.7529296875 376.506835938 26.0517578125 375.64453125 26.8427734375 c 0
 373.403320312 37.5048828125 380.711914062 46.857421875 379.609375 57.78125 c 0
 379.076171875 63.013671875 386.6484375 67.3955078125 392.169921875 66.51953125 c 0
 400.021484375 65.2724609375 402.001953125 69.833984375 404.477539062 74.9384765625 c 0
 404.48046875 74.9423828125 404.485351562 74.9462890625 404.48828125 74.94921875 c 0
 405.90234375 78.4013671875 407.111328125 81.953125 408.779296875 85.26953125 c 0
 410.64453125 88.9931640625 413.27734375 93.15234375 417.302734375 93.1826171875 c 2
325.549804688 34.009765625 m 1
 325.559570312 33.9921875 l 1
 326.58984375 21.73046875 317.393554688 12.7578125 318.4140625 1.8515625 c 0
 317.275390625 -3.19921875 311.293945312 -4.35546875 309.622070312 -8.9912109375 c 0
 309.618164062 -8.994140625 309.618164062 -8.9990234375 309.615234375 -9.001953125 c 0
 310.947265625 -16.052734375 306.989257812 -19.8828125 301.372070312 -22.9814453125 c 0
 292.625 -27.8056640625 284.004882812 -32.919921875 275.330078125 -37.8349609375 c 1
 268.508789062 -53.73828125 253.69921875 -60.34375 241.29296875 -53.0244140625 c 0
 237.791015625 -52.646484375 234.686523438 -51.494140625 232.483398438 -48.537109375 c 0
 232.477539062 -48.5361328125 232.471679688 -48.5361328125 232.465820312 -48.5341796875 c 0
 232.46484375 -48.533203125 232.461914062 -48.5322265625 232.4609375 -48.5322265625 c 2
 232.455078125 -48.5341796875 l 1
 232.455078125 -48.5263671875 l 1
 226.513671875 -45.111328125 221.674804688 -40.767578125 219.814453125 -33.8671875 c 0
 215.431640625 -26.232421875 216.932617188 -21.6240234375 225.444335938 -17.38671875 c 0
 258.568359375 -0.9326171875 291.294921875 16.3271484375 325.549804688 34.009765625 c 1
EndSplineSet
EndChar

StartChar: africarxiv-square
Encoding: 12 59659 11
Width: 448
VWidth: 0
Flags: W
HStem: 330.287 85.7129<205.04 256.161> 351.994 64.0059<168.724 202.038>
LayerCount: 2
Fore
SplineSet
48 416 m 2x40
 400 416 l 2
 426.5 416 448 394.5 448 368 c 2
 448 16 l 2
 448 -10.5 426.5 -32 400 -32 c 2
 48 -32 l 2
 21.5 -32 0 -10.5 0 16 c 2
 0 368 l 2
 0 394.5 21.5 416 48 416 c 2x40
187.12109375 351.994140625 m 0
 180.75390625 352.10546875 174.540039062 350.767578125 168.4375 347.05859375 c 1
 168.443359375 347.07421875 l 2
 165.435546875 345.244140625 162.26953125 342.592773438 159.267578125 341.951171875 c 0
 149.4453125 339.846679688 141.161132812 334.25 131.810546875 331.27734375 c 0
 127.362304688 329.866210938 125.223632812 327.14453125 125.357421875 322.533203125 c 0
 123.533203125 319.227539062 120.65234375 317.158203125 117.306640625 315.578125 c 0
 114.341796875 314.182617188 111.517578125 312.590820312 110.634765625 309.072265625 c 0
 110.62109375 309.060546875 110.606445312 309.048828125 110.591796875 309.037109375 c 0
 107.10546875 304.973632812 103.438476562 301.05078125 99.8828125 294.9765625 c 1
 208.89453125 330.751953125 l 1
 204.178710938 335.234375 199.282226562 339.029296875 204.732421875 345.908203125 c 1
 199.84375 345.576171875 196.387695312 342.7421875 192.26953125 343.37890625 c 1
 194.606445312 346.856445312 199.608398438 346.119140625 202.279296875 349.53515625 c 1
 197.120117188 350.943359375 192.073242188 351.907226562 187.12109375 351.994140625 c 0
245.619140625 330.287109375 m 2x80
 241.026367188 330.001953125 236.606445312 329.638671875 232.794921875 326.33984375 c 0
 228.265625 322.4453125 223.176757812 321.338867188 218.041015625 325.669921875 c 0
 214.1640625 328.940429688 210.387695312 328.321289062 205.9921875 326.193359375 c 0
 195.842773438 321.267578125 185.431640625 316.8671875 175.13671875 312.255859375 c 0
 151.250976562 301.505859375 127.374023438 290.747070312 103.5078125 279.978515625 c 0
 95.876953125 277.483398438 95.5400390625 276.7890625 97.294921875 269.1875 c 0
 98.5771484375 263.637695312 100.890625 257.796875 94.37890625 253.658203125 c 0
 93.0732421875 253.06640625 92.013671875 251.422851562 92.013671875 249.989257812 c 0
 92.013671875 249.973632812 92.013671875 249.94921875 92.013671875 249.93359375 c 0
 92.0078125 249.930664062 92.001953125 249.928710938 91.99609375 249.92578125 c 0
 90.3056640625 244.020507812 91.72265625 238.279296875 92.794921875 232.478515625 c 0
 93.4765625 228.805664062 95.1845703125 228.946289062 98.005859375 230.287109375 c 0
 104.388671875 233.330078125 110.865234375 236.180664062 117.3359375 239.03125 c 0
 137.793945312 248.024414062 158.254882812 257.010742188 178.720703125 265.9921875 c 0
 178.793945312 265.989257812 178.912109375 265.987304688 178.985351562 265.987304688 c 0
 179.388671875 265.987304688 180.036132812 266.059570312 180.4296875 266.1484375 c 1
 179.764648438 265.796875 179.150390625 265.380859375 178.814453125 264.599609375 c 2
 157.828125 252.298828125 l 1
 126.2265625 236.19921875 l 2
 117.173828125 234.63671875 109.321289062 229.745117188 100.740234375 226.970703125 c 0
 95.4296875 225.256835938 96.4833984375 223.407226562 100.103515625 221.0234375 c 0
 103.490234375 216.942382812 108.481445312 215.935546875 113.162109375 214.349609375 c 0
 113.16796875 214.353515625 113.174804688 214.356445312 113.181640625 214.359375 c 0
 116.80859375 212.659179688 120.4140625 210.901367188 124.08203125 209.283203125 c 0
 127.4921875 207.767578125 130.663085938 207.243164062 132.73828125 211.568359375 c 0
 133.904296875 214.022460938 136.024414062 214.37890625 138.56640625 213.212890625 c 0
 142.526367188 211.3671875 146.719726562 211.3125 150.958984375 212.044921875 c 2
 150.955078125 212.041015625 l 2
 150.963867188 212.040039062 150.971679688 212.040039062 150.98046875 212.0390625 c 2
 151.001953125 212.0234375 l 2
 151.01171875 212.028320312 151.021484375 212.032226562 151.03125 212.037109375 c 0
 152.637695312 211.897460938 154.22265625 211.875 155.6171875 212.896484375 c 0
 157.53515625 212.896484375 159.470703125 213.047851562 161.365234375 212.85546875 c 0
 170.389648438 211.934570312 179.787109375 215.002929688 188.478515625 210.19921875 c 0
 190.127929688 209.290039062 191.66796875 211.08984375 193.142578125 211.841796875 c 0
 208.80078125 219.85546875 224.44140625 227.90625 240.068359375 235.994140625 c 0
 260.821289062 246.689453125 281.569335938 257.3828125 302.306640625 268.07421875 c 0
 304.084960938 268.995117188 308.133789062 269.397460938 304.6015625 272.994140625 c 2
 304.6015625 273.0234375 l 2
 302.1796875 277.901367188 300.009765625 282.87109375 299.150390625 288.306640625 c 0
 299.157226562 288.3125 299.163085938 288.319335938 299.16796875 288.326171875 c 0
 298.893554688 292.377929688 297.512695312 296.088867188 295.763671875 299.71484375 c 0
 294.248046875 302.822265625 292.540039062 303.6875 289.001953125 302.11328125 c 0
 280.811523438 298.463867188 272.41015625 295.1328125 264.015625 292.130859375 c 0
 255.62109375 289.12890625 247.827148438 284.4140625 238.802734375 283.189453125 c 0
 238.793945312 283.19140625 238.78515625 283.19140625 238.775390625 283.193359375 c 2
 238.779296875 283.1953125 l 2
 238.697265625 284.577148438 239.9453125 284.419921875 240.697265625 284.83984375 c 2
 285.2265625 309.6328125 l 2
 285.389648438 313.7890625 283.896484375 317.526367188 282.310546875 321.234375 c 1
 282.30859375 321.232421875 282.306640625 321.23046875 282.302734375 321.228515625 c 1
 282.303710938 321.229492188 282.3046875 321.232421875 282.3046875 321.234375 c 0
 280.170898438 326.638671875 276.427734375 328.217773438 271.017578125 326.0546875 c 0
 267.95703125 324.786132812 262.78515625 323.65234375 259.474609375 323.5234375 c 2
 259.474609375 323.537109375 l 2
 259.465820312 323.533203125 259.45703125 323.529296875 259.447265625 323.525390625 c 2
 256.36328125 323.775390625 l 2
 252.02734375 324.702148438 249.298828125 328.275390625 245.62109375 330.287109375 c 2
 245.619140625 330.287109375 l 2x80
311.15625 259.958984375 m 2
 310.147460938 259.8984375 309.008789062 259.475585938 307.6640625 258.76953125 c 0
 291.248046875 250.159179688 274.686523438 241.830078125 258.171875 233.41796875 c 0
 238.765625 223.5078125 219.329101562 213.702148438 199.9921875 203.6875 c 0
 198.7734375 203.063476562 195.354492188 203.197265625 196.986328125 200.1484375 c 0
 199.118164062 196.180664062 198.47265625 191.987304688 198.58203125 187.828125 c 0
 198.580078125 187.827148438 198.578125 187.825195312 198.576171875 187.82421875 c 0
 198.576171875 187.818359375 198.576171875 187.8125 198.576171875 187.806640625 c 0
 198.529296875 185.768554688 198.486328125 183.731445312 198.447265625 181.697265625 c 0
 198.829101562 178.958007812 200.395507812 174.875976562 201.9453125 172.5859375 c 0
 201.952148438 172.583984375 201.959960938 172.58203125 201.966796875 172.580078125 c 1
 201.961914062 172.577148438 201.956054688 172.576171875 201.951171875 172.57421875 c 2
 204.3125 169.431640625 l 1
 209.84375 162.505859375 l 2
 210.788085938 156.064453125 214.071289062 155.994140625 219.609375 157.888671875 c 0
 239.686523438 164.767578125 259.9609375 171.0859375 280.16015625 177.615234375 c 1
 281.326171875 176.4140625 l 2
 281.330078125 176.415039062 281.337890625 176.416992188 281.341796875 176.41796875 c 2
 259.326171875 165.998046875 l 2
 255.659179688 165.018554688 252.331054688 163.3046875 249.037109375 161.4453125 c 0
 248.95703125 161.454101562 248.825195312 161.461914062 248.744140625 161.461914062 c 0
 247.961914062 161.461914062 246.975585938 160.931640625 246.54296875 160.279296875 c 0
 239.293945312 157.583007812 227.868164062 152.448242188 221.0390625 148.818359375 c 0
 220.973632812 148.849609375 220.862304688 148.874023438 220.790039062 148.874023438 c 0
 220.594726562 148.874023438 220.364257812 148.734375 220.2734375 148.5625 c 0
 218.765625 148.3984375 216.631835938 147.434570312 215.51171875 146.412109375 c 0
 212.451171875 145.724609375 209.010742188 144.727539062 209.173828125 141.078125 c 0
 209.58203125 131.956054688 206.416992188 123.66015625 204.0625 115.150390625 c 0
 204.060546875 115.149414062 204.05859375 115.149414062 204.056640625 115.1484375 c 0
 203.536132812 114.241210938 203.11328125 112.65625 203.11328125 111.610351562 c 0
 203.11328125 110.18359375 203.856445312 108.138671875 204.7734375 107.044921875 c 0
 206.569335938 104.893554688 208.951171875 107.4296875 210.921875 108.146484375 c 0
 240.827148438 118.989257812 270.708007812 129.90234375 300.55859375 140.880859375 c 0
 304.504882812 142.326171875 309.569335938 142.967773438 311.96484375 145.794921875 c 0
 314.541015625 148.84375 311.055664062 153.7578125 311.32421875 157.9375 c 0
 311.661132812 159.731445312 312.002929688 161.524414062 312.33984375 163.32421875 c 0
 312.340820312 163.326171875 312.342773438 163.328125 312.345703125 163.330078125 c 0
 314.141601562 168.850585938 318.537109375 172.9140625 320.78125 178.18359375 c 2
 331.017578125 192.40625 l 2
 333.192382812 197.0703125 338.524414062 198.540039062 341.357421875 202.544921875 c 1
 341.313476562 202.530273438 341.271484375 202.512695312 341.2265625 202.498046875 c 1
 341.260742188 202.517578125 341.293945312 202.537109375 341.328125 202.556640625 c 0
 347.419921875 206.29296875 350.026367188 212.624023438 354.31640625 219.2109375 c 1
 326.615234375 210.69921875 l 2
 325.045898438 210.596679688 323.501953125 210.366210938 321.970703125 210.0703125 c 1
 322.741210938 210.522460938 323.454101562 211.10546875 324.068359375 211.90625 c 0
 325.770507812 212.72265625 327.491210938 213.521484375 329.181640625 214.3671875 c 0
 338.100585938 218.821289062 347.88671875 221.415039062 356.28125 226.98828125 c 0
 357.091796875 229.418945312 356.788085938 231.891601562 356.328125 234.298828125 c 2
 356.345703125 234.263671875 l 2
 355.692382812 237.673828125 354.196289062 239.422851562 350.517578125 236.962890625 c 0
 348.56640625 235.565429688 345.05859375 234.125976562 342.6875 233.75 c 0
 342.681640625 233.74609375 342.671875 233.740234375 342.666015625 233.736328125 c 1
 342.666992188 233.745117188 342.666992188 233.752929688 342.669921875 233.76171875 c 1
 337.557617188 234.146484375 332.283203125 234.045898438 328.7734375 238.84375 c 1
 328.791015625 238.84375 l 2
 327.147460938 241.099609375 325.397460938 239.474609375 323.73046875 238.810546875 c 0
 310.84765625 233.633789062 297.96484375 228.446289062 285.0859375 223.25 c 0
 284.120117188 223.161132812 283.1953125 222.940429688 282.291015625 222.654296875 c 1
 282.84375 223.189453125 283.328125 223.79296875 283.658203125 224.55078125 c 0
 292.973632812 229.381835938 302.278320312 234.228515625 311.5703125 239.08984375 c 0
 315.622070312 241.211914062 322.244140625 242.73828125 323.013671875 245.734375 c 0
 324.016601562 249.6171875 317.7265625 252.805664062 315.435546875 256.88671875 c 0
 314.153320312 259.15625 312.838867188 260.060546875 311.158203125 259.958984375 c 2
 311.15625 259.958984375 l 2
356.28125 226.98828125 m 1
 356.083007812 227.110351562 355.891601562 227.215820312 355.69921875 227.3203125 c 1
 355.828125 227.172851562 356.088867188 227.024414062 356.28125 226.98828125 c 1
312.84375 140.16796875 m 2
 312.283203125 140.205078125 311.5625 140.04296875 310.63671875 139.662109375 c 0
 278.104492188 126.234375 245.538085938 112.880859375 212.939453125 99.6015625 c 0
 210.450195312 98.5634765625 209.915039062 97.654296875 211.19140625 95.06640625 c 0
 214.303710938 88.771484375 217.166015625 82.3427734375 218.76953125 75.447265625 c 1
 218.766601562 75.4462890625 218.760742188 75.4462890625 218.7578125 75.4453125 c 2
 218.76953125 75.4453125 l 1
 218.76953125 75.4375 l 2
 218.961914062 73.54296875 219.422851562 71.625 219.30078125 69.748046875 c 0
 219.009765625 65.4052734375 219.795898438 64.0693359375 224.517578125 66.16796875 c 0
 246.122070312 75.7861328125 267.958007812 84.8701171875 289.556640625 94.494140625 c 0
 298.75 98.591796875 305.009765625 105.874023438 308.8515625 115.201171875 c 1
 308.845703125 115.200195312 308.8359375 115.198242188 308.830078125 115.197265625 c 1
 308.834960938 115.19921875 308.836914062 115.203125 308.841796875 115.20703125 c 0
 314.415039062 121.584960938 315.284179688 129.208984375 314.671875 137.21875 c 0
 314.53125 139.038085938 314.078125 140.086914062 312.845703125 140.16796875 c 2
 312.84375 140.16796875 l 2
348.7109375 128.24609375 m 2
 346.114257812 128.2265625 344.416992188 125.544921875 343.212890625 123.142578125 c 0
 342.13671875 121.002929688 341.357421875 118.709960938 340.4453125 116.482421875 c 2
 340.4375 116.4765625 l 2
 338.83984375 113.182617188 337.561523438 110.240234375 332.49609375 111.044921875 c 0
 328.934570312 111.610351562 324.05078125 108.78125 324.39453125 105.40625 c 0
 325.10546875 98.3583984375 320.390625 92.326171875 321.8359375 85.447265625 c 0
 322.392578125 84.9365234375 322.931640625 84.7421875 323.46484375 84.728515625 c 1
 322.821289062 84.3388671875 322.221679688 83.8720703125 321.712890625 83.2421875 c 0
 320.815429688 79.8203125 319.834960938 76.4111328125 320.78515625 72.826171875 c 0
 320.790039062 72.8271484375 320.795898438 72.828125 320.802734375 72.828125 c 0
 323.578125 66.71484375 325.663085938 65.9365234375 331.66015625 67.6484375 c 0
 338.924804688 69.732421875 338.896484375 75.919921875 340.09765625 81.50390625 c 0
 341.198242188 84.3642578125 342.0078125 87.255859375 341.67578125 90.6640625 c 2
 331.181640625 87.48046875 l 1
 331.17578125 87.451171875 l 2
 330.3515625 87.1416015625 329.408203125 87.376953125 328.580078125 87.033203125 c 1
 329.115234375 87.4599609375 329.591796875 87.958984375 329.951171875 88.599609375 c 0
 331.735351562 89.6435546875 333.4296875 90.908203125 335.32421875 91.701171875 c 0
 348.458007812 97.1630859375 350.586914062 108.67578125 351.572265625 120.84765625 c 0
 351.630859375 123.453125 353.436523438 127.090820312 349.880859375 128.08203125 c 0
 349.471679688 128.196289062 349.083984375 128.249023438 348.712890625 128.24609375 c 2
 348.7109375 128.24609375 l 2
289.515625 90.0703125 m 1
 267.416015625 78.662109375 246.302734375 67.52734375 224.931640625 56.912109375 c 0
 219.440429688 54.177734375 218.471679688 51.205078125 221.298828125 46.279296875 c 0
 222.499023438 41.828125 225.622070312 39.025390625 229.455078125 36.822265625 c 2
 229.455078125 36.81640625 l 1
 229.458984375 36.818359375 l 2
 229.459960938 36.818359375 229.461914062 36.81640625 229.462890625 36.81640625 c 0
 229.466796875 36.8154296875 229.469726562 36.8154296875 229.474609375 36.814453125 c 0
 230.896484375 34.90625 232.899414062 34.1640625 235.158203125 33.919921875 c 0
 243.162109375 29.1982421875 252.715820312 33.458984375 257.1171875 43.71875 c 0
 262.713867188 46.8896484375 268.275390625 50.189453125 273.91796875 53.302734375 c 0
 277.541992188 55.3017578125 280.095703125 57.771484375 279.236328125 62.3203125 c 0
 279.23828125 62.322265625 279.237304688 62.326171875 279.240234375 62.328125 c 0
 280.318359375 65.318359375 284.1796875 66.0654296875 284.9140625 69.32421875 c 0
 284.254882812 76.3603515625 290.188476562 82.1484375 289.5234375 90.05859375 c 2
 289.515625 90.0703125 l 1
EndSplineSet
EndChar

StartChar: arxiv
Encoding: 13 59764 12
Width: 448
VWidth: 0
Flags: W
HStem: 42.4902 9.24902<188.837 259.182> 117.927 13.8906<182.684 265.313> 146.176 13.8906<128.105 142.799 305.19 319.886> 211.1 56.3252<172.168 192.794 255.242 275.842> 332.252 9.24707<188.835 259.176>
VStem: 52.1729 57.5312<5.31776 39.0571 344.927 378.678> 74.4824 9.26465<157.059 226.939> 147.387 13.8906<164.43 177.801> 169.372 26.2178<211.424 267.1> 252.45 26.1846<211.424 267.1> 286.729 13.875<164.43 177.801> 338.312 57.5176<5.31776 39.0571 344.924 378.673> 364.261 9.25<157.062 226.939>
LayerCount: 2
Fore
SplineSet
195.58984375 239.262695312 m 0xf9e0
 195.58984375 223.708007812 189.720703125 211.099609375 182.48046875 211.099609375 c 0
 175.241210938 211.099609375 169.372070312 223.708007812 169.372070312 239.262695312 c 0
 169.372070312 254.81640625 175.241210938 267.424804688 182.48046875 267.424804688 c 0
 189.720703125 267.424804688 195.58984375 254.81640625 195.58984375 239.262695312 c 0xf9e0
278.634765625 239.262695312 m 0
 278.634765625 223.708007812 272.772460938 211.099609375 265.541992188 211.099609375 c 0
 258.311523438 211.099609375 252.450195312 223.708007812 252.450195312 239.262695312 c 0
 252.450195312 254.81640625 258.311523438 267.424804688 265.541992188 267.424804688 c 0
 272.772460938 267.424804688 278.634765625 254.81640625 278.634765625 239.262695312 c 0
300.604492188 177.80078125 m 1
 300.604492188 168.01953125 309.260742188 160.06640625 319.885742188 160.06640625 c 1
 319.885742188 146.17578125 l 1
 314.509765625 146.17578125 309.479492188 147.53515625 304.978515625 149.72265625 c 1
 294.791992188 132.614257812 263.370117188 117.926757812 223.995117188 117.926757812 c 0
 184.635742188 117.926757812 153.19921875 132.614257812 143.010742188 149.72265625 c 1
 138.51171875 147.53515625 133.479492188 146.17578125 128.10546875 146.17578125 c 1
 128.10546875 160.06640625 l 1
 138.73046875 160.06640625 147.38671875 168.01953125 147.38671875 177.80078125 c 1
 161.27734375 177.80078125 l 1
 161.27734375 170.502929688 158.541992188 163.817382812 154.166992188 158.47265625 c 1
 158.887695312 146.629882812 187.166992188 131.817382812 223.995117188 131.817382812 c 0
 260.838867188 131.817382812 289.103515625 146.629882812 293.82421875 158.47265625 c 1
 289.431640625 163.817382812 286.729492188 170.502929688 286.729492188 177.80078125 c 1
 300.604492188 177.80078125 l 1
417.884765625 68.0830078125 m 1
 417.884765625 68.0849609375 l 2
 420.430664062 62.130859375 421.384765625 56.880859375 419.515625 50.208984375 c 0
 417.65625 43.5693359375 410.046875 39.3037109375 400.501953125 37.646484375 c 0
 392.813476562 36.3037109375 395.96875 35.052734375 395.829101562 28.177734375 c 0
 395.640625 17.8662109375 391.9375 9.7568359375 383.157226562 4.255859375 c 0
 376.5 0.130859375 368.858398438 -0.197265625 361.483398438 0.068359375 c 0
 351.342773438 0.380859375 340.892578125 5.4111328125 338.311523438 11.443359375 c 0
 335.28125 18.5537109375 338.6875 23.177734375 341.5 28.255859375 c 0
 345.09375 34.7568359375 343.34375 41.287109375 338.671875 46.740234375 c 0
 333.625 52.6455078125 321.203125 65.396484375 314.140625 72.9267578125 c 1
 289.078125 53.9111328125 257.921875 42.490234375 224.016601562 42.490234375 c 0
 190.109375 42.490234375 158.938476562 53.9111328125 133.860351562 72.9267578125 c 1
 126.797851562 65.396484375 114.391601562 52.646484375 109.345703125 46.740234375 c 0
 104.672851562 41.287109375 102.922851562 34.7568359375 106.516601562 28.255859375 c 0
 109.313476562 23.177734375 112.735351562 18.5537109375 109.704101562 11.443359375 c 0
 107.125976562 5.4130859375 96.6728515625 0.380859375 86.5322265625 0.068359375 c 0
 79.158203125 -0.1962890625 71.5166015625 0.1318359375 64.8603515625 4.255859375 c 0
 56.078125 9.7568359375 52.3603515625 17.8662109375 52.1728515625 28.177734375 c 0xfdf0
 52.0478515625 35.052734375 55.205078125 36.3037109375 47.517578125 37.646484375 c 0
 37.9541015625 39.3037109375 30.3603515625 43.5693359375 28.4853515625 50.208984375 c 0
 26.6259765625 56.8798828125 27.5634765625 62.130859375 30.111328125 68.0849609375 c 0
 34.2666015625 75.802734375 37.8759765625 77.349609375 44.6103515625 79.4423828125 c 0
 50.4072265625 81.193359375 60.6103515625 80.3798828125 69.390625 76.9599609375 c 0
 71.390625 76.1787109375 73.203125 74.9130859375 75.109375 73.8818359375 c 0
 80.7958984375 70.8349609375 84.2021484375 71.4287109375 88.5458984375 76.052734375 c 0
 91.044921875 78.724609375 98.826171875 85.7724609375 109.513671875 95.9111328125 c 1
 87.685546875 121.896484375 74.482421875 155.395507812 74.482421875 192.004882812 c 0
 74.482421875 228.598632812 87.6689453125 262.083007812 109.510742188 288.08203125 c 1
 98.82421875 298.223632812 91.0419921875 305.252929688 88.54296875 307.95703125 c 0
 84.2001953125 312.581054688 80.7939453125 313.16015625 75.1064453125 310.09765625 c 0
 73.2001953125 309.09765625 71.3876953125 307.83203125 69.3876953125 307.036132812 c 0
 60.6064453125 303.62890625 50.4033203125 302.80078125 44.6064453125 304.56640625 c 0
 37.8720703125 306.643554688 34.2626953125 308.20703125 30.107421875 315.924804688 c 0
 27.560546875 321.86328125 26.623046875 327.12890625 28.482421875 333.80078125 c 0
 30.357421875 340.42578125 37.951171875 344.706054688 47.5126953125 346.34765625 c 0
 55.2001953125 347.69140625 52.04296875 348.94140625 52.16796875 355.83203125 c 0
 52.3564453125 366.127929688 56.0751953125 374.252929688 64.85546875 379.737304688 c 0
 71.51171875 383.877929688 79.1533203125 384.206054688 86.52734375 383.924804688 c 0
 96.6689453125 383.596679688 107.12109375 378.596679688 109.69921875 372.549804688 c 0
 112.73046875 365.424804688 109.30859375 360.83203125 106.51171875 355.75390625 c 0
 102.91796875 349.221679688 104.668945312 342.69140625 109.340820312 337.252929688 c 0
 114.38671875 331.331054688 126.79296875 318.596679688 133.85546875 311.0625 c 1
 158.93359375 330.080078125 190.104492188 341.499023438 224.01171875 341.499023438 c 0
 257.901367188 341.499023438 289.07421875 330.080078125 314.135742188 311.080078125 c 1
 321.198242188 318.594726562 333.604492188 331.329101562 338.651367188 337.250976562 c 0
 343.323242188 342.689453125 345.08984375 349.220703125 341.479492188 355.735351562 c 0
 338.684570312 360.830078125 335.260742188 365.423828125 338.306640625 372.547851562 c 0
 340.870117188 378.578125 351.323242188 383.594726562 361.463867188 383.922851562 c 0
 368.837890625 384.188476562 376.462890625 383.860351562 383.119140625 379.735351562 c 0
 391.916015625 374.232421875 395.620117188 366.125976562 395.807617188 355.813476562 c 0
 395.948242188 348.9375 392.791015625 347.689453125 400.462890625 346.344726562 c 0
 410.026367188 344.689453125 417.634765625 340.423828125 419.495117188 333.782226562 c 0
 421.353515625 327.109375 420.416015625 321.860351562 417.869140625 315.907226562 c 0
 413.711914062 308.188476562 410.102539062 306.641601562 403.368164062 304.564453125 c 0
 397.571289062 302.798828125 387.369140625 303.611328125 378.603515625 307.033203125 c 0
 376.603515625 307.814453125 374.791015625 309.080078125 372.885742188 310.095703125 c 0
 367.197265625 313.158203125 363.775390625 312.564453125 359.447265625 307.939453125 c 0
 356.961914062 305.251953125 349.181640625 298.22265625 338.479492188 288.08203125 c 1
 360.32421875 262.08203125 373.510742188 228.59765625 373.510742188 192.00390625 c 0xfbe8
 373.510742188 155.39453125 360.322265625 121.926757812 338.479492188 95.9267578125 c 1
 349.181640625 85.771484375 356.978515625 78.72265625 359.462890625 76.0517578125 c 0
 363.791015625 71.427734375 367.213867188 70.833984375 372.899414062 73.8798828125 c 0
 374.806640625 74.91015625 376.620117188 76.17578125 378.620117188 76.9580078125 c 0
 387.400390625 80.37890625 397.586914062 81.1923828125 403.383789062 79.44140625 c 0
 410.134765625 77.3486328125 413.728515625 75.8017578125 417.884765625 68.0830078125 c 1
224.01171875 51.7392578125 m 0
 301.323242188 51.7392578125 364.260742188 114.66015625 364.260742188 192.00390625 c 0
 364.260742188 269.331054688 301.323242188 332.251953125 224.01171875 332.251953125 c 0
 146.668945312 332.251953125 83.7470703125 269.331054688 83.7470703125 192.00390625 c 0xfbe8
 83.7470703125 114.66015625 146.668945312 51.7392578125 224.01171875 51.7392578125 c 0
EndSplineSet
EndChar

StartChar: arxiv-square
Encoding: 14 59814 13
Width: 448
VWidth: 0
Flags: W
HStem: -32 99.4082<173.252 274.762> -32 64.0566<91.6454 128.648 319.365 356.37> 75.1152 55.1562<175.415 272.586> 141.848 66.0684<180.263 267.739> 254.854 54.0234<169.877 278.123> 316.582 99.418<173.248 274.755> 351.996 64.0039<91.6088 128.645 319.361 356.339>
VStem: 0 99.4023<141.171 242.818> 0 80.8105<35.7633 65.4265 318.575 348.231> 200.324 47.3848<207.924 254.846> 348.592 99.4082<141.185 242.818> 367.191 80.8086<35.7633 65.4265 318.567 348.229>
LayerCount: 2
Fore
SplineSet
48 416 m 2x7ad0
 400 416 l 2
 426.5 416 448 394.5 448 368 c 2
 448 16 l 2
 448 -10.5 426.5 -32 400 -32 c 2
 48 -32 l 2
 21.5 -32 0 -10.5 0 16 c 2
 0 368 l 2
 0 394.5 21.5 416 48 416 c 2x7ad0
107.126953125 351.99609375 m 0
 101.715820312 352.053710938 96.234375 351.466796875 91.380859375 348.447265625 c 0
 84.0634765625 343.876953125 80.9638671875 337.107421875 80.806640625 328.52734375 c 0
 80.703125 322.78515625 83.333984375 321.743164062 76.927734375 320.623046875 c 0
 68.9599609375 319.254882812 62.630859375 315.6875 61.068359375 310.166015625 c 0
 59.5185546875 304.606445312 60.30078125 300.219726562 62.423828125 295.271484375 c 0
 65.88671875 288.83984375 68.8935546875 287.537109375 74.505859375 285.806640625 c 0
 79.3369140625 284.334960938 87.8388671875 285.024414062 95.15625 287.86328125 c 0
 96.822265625 288.52734375 98.333984375 289.583007812 99.921875 290.416015625 c 0
 104.662109375 292.967773438 107.5 292.484375 111.119140625 288.630859375 c 0
 113.201171875 286.376953125 119.686523438 280.518554688 128.591796875 272.068359375 c 1
 110.390625 250.401367188 99.40234375 222.498046875 99.40234375 192.00390625 c 0x3b60
 99.40234375 161.49609375 110.405273438 133.580078125 128.595703125 111.92578125 c 1
 119.689453125 103.4765625 113.204101562 97.603515625 111.12109375 95.376953125 c 0
 107.500976562 91.5234375 104.663085938 91.0302734375 99.923828125 93.568359375 c 0
 98.3359375 94.4287109375 96.8251953125 95.482421875 95.158203125 96.1328125 c 0
 87.8408203125 98.9833984375 79.3388671875 99.662109375 74.5078125 98.203125 c 0
 68.8955078125 96.458984375 65.888671875 95.16796875 62.42578125 88.736328125 c 0
 60.302734375 83.775390625 59.521484375 79.400390625 61.0703125 73.841796875 c 0
 62.6328125 68.30859375 68.9619140625 64.7529296875 76.931640625 63.37109375 c 0
 83.3388671875 62.2529296875 80.70703125 61.2099609375 80.810546875 55.48046875 c 0
 80.966796875 46.8876953125 84.06640625 40.130859375 91.384765625 35.546875 c 0
 96.931640625 32.109375 103.297851562 31.8349609375 109.443359375 32.056640625 c 0x7ac0
 117.893554688 32.31640625 126.60546875 36.509765625 128.75390625 41.53515625 c 0
 131.280273438 47.4599609375 128.428710938 51.314453125 126.09765625 55.546875 c 0
 123.102539062 60.9638671875 124.561523438 66.4072265625 128.455078125 70.951171875 c 0
 132.66015625 75.873046875 142.997070312 86.4970703125 148.8828125 92.7734375 c 1
 169.78125 76.9267578125 195.7578125 67.408203125 224.013671875 67.408203125 c 0xb8c0
 252.268554688 67.408203125 278.231445312 76.9267578125 299.1171875 92.7734375 c 1
 305.002929688 86.4970703125 315.35546875 75.8720703125 319.560546875 70.951171875 c 0
 323.454101562 66.4072265625 324.911132812 60.9638671875 321.916015625 55.546875 c 0
 319.572265625 51.314453125 316.734375 47.4599609375 319.259765625 41.53515625 c 0
 321.41015625 36.5087890625 330.120117188 32.3173828125 338.5703125 32.056640625 c 0
 344.715820312 31.8349609375 351.083007812 32.109375 356.630859375 35.546875 c 0
 363.948242188 40.130859375 367.034179688 46.8876953125 367.19140625 55.48046875 c 0x78d0
 367.307617188 61.2099609375 364.676757812 62.2529296875 371.083984375 63.37109375 c 0
 379.0390625 64.7529296875 385.380859375 68.30859375 386.9296875 73.841796875 c 0
 388.487304688 79.4013671875 387.69140625 83.7744140625 385.5703125 88.736328125 c 0
 382.106445312 95.16796875 379.111328125 96.45703125 373.486328125 98.201171875 c 0
 368.655273438 99.66015625 360.166992188 98.9833984375 352.849609375 96.1328125 c 0
 351.182617188 95.48046875 349.672851562 94.4248046875 348.083984375 93.56640625 c 0
 343.345703125 91.02734375 340.493164062 91.5234375 336.88671875 95.376953125 c 0
 334.815429688 97.603515625 328.318359375 103.4765625 319.400390625 111.939453125 c 1
 337.602539062 133.606445312 348.591796875 161.49609375 348.591796875 192.00390625 c 0
 348.591796875 222.498046875 337.604492188 250.401367188 319.400390625 272.068359375 c 1
 328.319335938 280.518554688 334.802734375 286.375976562 336.873046875 288.615234375 c 0
 340.479492188 292.469726562 343.330078125 292.965820312 348.0703125 290.4140625 c 0
 349.658203125 289.567382812 351.168945312 288.51171875 352.8359375 287.861328125 c 0
 360.139648438 285.008789062 368.643554688 284.333007812 373.474609375 285.8046875 c 0
 379.086914062 287.53515625 382.094726562 288.82421875 385.55859375 295.255859375 c 0
 387.681640625 300.216796875 388.4609375 304.591796875 386.912109375 310.15234375 c 0
 385.361328125 315.6875 379.022460938 319.241210938 371.052734375 320.62109375 c 0
 364.659179688 321.741210938 367.2890625 322.78125 367.171875 328.51171875 c 0
 367.015625 337.104492188 363.9296875 343.860351562 356.599609375 348.4453125 c 0
 351.052734375 351.8828125 344.697265625 352.157226562 338.552734375 351.935546875 c 0
 330.102539062 351.662109375 321.391601562 347.482421875 319.255859375 342.45703125 c 0
 316.717773438 336.51953125 319.571289062 332.690429688 321.900390625 328.4453125 c 0
 324.908203125 323.015625 323.436523438 317.575195312 319.54296875 313.04296875 c 0
 315.337890625 308.108398438 304.999023438 297.495117188 299.11328125 291.232421875 c 1
 278.228515625 307.065429688 252.250976562 316.58203125 224.009765625 316.58203125 c 0x7c60
 195.75390625 316.58203125 169.77734375 307.06640625 148.87890625 291.21875 c 1
 142.993164062 297.497070312 132.65625 308.108398438 128.451171875 313.04296875 c 0
 124.557617188 317.575195312 123.098632812 323.018554688 126.09375 328.4609375 c 0
 128.424804688 332.693359375 131.276367188 336.521484375 128.75 342.458984375 c 0
 126.6015625 347.497070312 117.889648438 351.6640625 109.439453125 351.9375 c 0
 108.670898438 351.966796875 107.900390625 351.98828125 107.126953125 351.99609375 c 0
224.009765625 308.876953125 m 0
 288.435546875 308.876953125 340.8828125 256.443359375 340.8828125 192.00390625 c 0
 340.8828125 127.551757812 288.436523438 75.115234375 224.009765625 75.115234375 c 0
 159.556640625 75.115234375 107.123046875 127.551757812 107.123046875 192.00390625 c 0
 107.123046875 256.443359375 159.556640625 308.876953125 224.009765625 308.876953125 c 0
189.400390625 254.853515625 m 0
 183.3671875 254.853515625 178.4765625 244.346679688 178.4765625 231.384765625 c 0
 178.4765625 218.422851562 183.3671875 207.916015625 189.400390625 207.916015625 c 0
 195.43359375 207.916015625 200.32421875 218.422851562 200.32421875 231.384765625 c 0
 200.32421875 244.346679688 195.43359375 254.853515625 189.400390625 254.853515625 c 0
258.619140625 254.853515625 m 0
 252.59375 254.853515625 247.708984375 244.346679688 247.708984375 231.384765625 c 0
 247.708984375 218.422851562 252.59375 207.916015625 258.619140625 207.916015625 c 0
 264.64453125 207.916015625 269.529296875 218.422851562 269.529296875 231.384765625 c 0
 269.529296875 244.346679688 264.64453125 254.853515625 258.619140625 254.853515625 c 0
160.15625 180.16796875 m 1
 160.15625 172.017578125 152.942382812 165.388671875 144.087890625 165.388671875 c 1
 144.087890625 153.8125 l 1
 148.56640625 153.8125 152.760742188 154.947265625 156.509765625 156.76953125 c 1
 165 142.512695312 191.196289062 130.271484375 223.99609375 130.271484375 c 0
 256.807617188 130.271484375 282.993164062 142.512695312 291.482421875 156.76953125 c 1
 295.233398438 154.947265625 299.424804688 153.8125 303.904296875 153.8125 c 1
 303.904296875 165.388671875 l 1
 295.049804688 165.388671875 287.837890625 172.017578125 287.837890625 180.16796875 c 1
 276.275390625 180.16796875 l 1
 276.275390625 174.086914062 278.525390625 168.513671875 282.185546875 164.060546875 c 1
 278.251953125 154.19140625 254.698242188 141.84765625 223.99609375 141.84765625 c 0
 193.305664062 141.84765625 169.740234375 154.19140625 165.806640625 164.060546875 c 1
 169.452148438 168.513671875 171.73046875 174.086914062 171.73046875 180.16796875 c 1
 160.15625 180.16796875 l 1
EndSplineSet
EndChar

StartChar: uniE9A2
Encoding: 15 59810 14
Width: 512
VWidth: 0
HStem: 0.725586 20.9268<458.163 496.101> 267.625 17.2031<271.52 309.305> 349.524 34.4756<88.041 151.607>
VStem: 35.7178 52.3232<99.871 349.299> 168.753 53.9473<272.78 333.384> 282.263 28.0283<2.79502 41.0106> 462.182 21.623<259.167 286.211>
LayerCount: 2
Fore
SplineSet
396.317382812 175.21484375 m 1
 403.704101562 184.90625 411.095703125 193.185546875 416.880859375 202.465820312 c 0
 432.345703125 227.267578125 456.55859375 266.703125 462.181640625 277.553710938 c 0
 465.049804688 283.362304688 469.234375 287.479492188 471.875976562 287.734375 c 0
 474.520507812 287.98828125 477.896484375 288.081054688 480.752929688 286.296875 c 0
 483.610351562 284.510742188 485.805664062 280.198242188 483.8046875 271.751953125 c 0
 481.803710938 263.306640625 480.655273438 260.233398438 477.884765625 253.725585938 c 0
 461.6640625 218.23046875 437.868164062 187.658203125 412.853515625 158.086914062 c 0
 408.134765625 152.5078125 407.92578125 148.422851562 410.5703125 142.109375 c 0
 421.858398438 115.150390625 432.44140625 87.8984375 443.650390625 60.9052734375 c 0
 447.376953125 51.931640625 451.982421875 43.2958984375 456.583007812 34.71875 c 0
 461.233398438 26.046875 464.557617188 21.4619140625 478.680664062 21.65234375 c 0
 484.500976562 21.6708984375 495.5625 23.2236328125 496.499023438 14.80078125 c 0
 497.5234375 5.5927734375 486.342773438 4.2216796875 479.6796875 2.8623046875 c 0
 472.157226562 1.3291015625 468.37109375 0.7431640625 460.676757812 0.7255859375 c 0
 442.939453125 0.6875 421.978515625 7.4755859375 413.294921875 23.232421875 c 0
 404.40625 39.3623046875 399.609375 51.1240234375 391.453125 73.1552734375 c 0
 386.100585938 87.619140625 380.088867188 101.85546875 373.793945312 117.947265625 c 1
 370.249023438 114.142578125 366.9140625 111.490234375 364.750976562 108.08984375 c 0
 337.904296875 71.6923828125 322.315429688 42.2490234375 310.291015625 21.5791015625 c 0
 300.810546875 5.2822265625 300.016601562 -1.916015625 288.7578125 0.435546875 c 0
 278.4921875 4.630859375 281.455078125 18.4072265625 282.262695312 21.8974609375 c 0
 287.026367188 42.4658203125 302.099609375 62.671875 313.845703125 80.43359375 c 0
 326.974609375 100.286132812 343.114257812 118.129882812 357.5 137.180664062 c 0
 359.62890625 140.001953125 361.092773438 145.372070312 359.881835938 148.352539062 c 0
 346.983398438 180.08984375 333.572265625 211.62109375 320.110351562 243.127929688 c 0
 312.7890625 258.748046875 307.809570312 268.708007812 279.013671875 267.625 c 0
 274.250976562 268.05859375 271.362304688 269.313476562 271.440429688 274.8125 c 0
 271.440429688 281.481445312 275.942382812 283.849609375 279.243164062 284.828125 c 0
 311.779296875 294.482421875 344.469726562 291.639648438 361.403320312 255.267578125 c 0
 371.892578125 232.741210938 381.180664062 209.657226562 391.03125 186.831054688 c 0
 392.48046875 183.484375 394.05078125 180.193359375 396.318359375 175.215820312 c 1
 396.317382812 175.21484375 l 1
15.435546875 91.556640625 m 1
 23.0029296875 97.236328125 28.275390625 102.640625 31.2548828125 107.780273438 c 0
 34.228515625 112.915039062 35.7177734375 119.137695312 35.7177734375 126.438476562 c 2
 35.7177734375 346.684570312 l 2
 35.7177734375 352.901367188 34.4423828125 358.985351562 31.896484375 364.9375 c 0
 30.1962890625 367.635742188 28.49609375 370.208984375 26.7978515625 372.643554688 c 0
 25.1005859375 375.077148438 21.9892578125 378.859375 17.4638671875 384 c 1
 118.0546875 384 l 2
 150.76953125 384 176.391601562 377.370117188 194.91796875 364.125 c 0
 213.434570312 350.872070312 222.700195312 332.486328125 222.700195312 308.9609375 c 0
 222.700195312 290.569335938 216.4765625 275.15625 204.04296875 262.72265625 c 0
 197.0078125 255.6875 190.112304688 250.553710938 183.356445312 247.310546875 c 0
 176.59375 244.064453125 165.915039062 240.680664062 151.3125 237.169921875 c 1
 178.486328125 201.071289062 l 2
 184.166015625 193.497070312 191.872070312 184.169921875 201.607421875 173.083984375 c 0
 212.418945312 160.915039062 224.047851562 148.4765625 236.489257812 135.768554688 c 0
 247.573242188 124.138671875 256.293945312 115.688476562 262.651367188 110.41796875 c 0
 269.001953125 105.143554688 278.672851562 98.857421875 291.653320312 91.55859375 c 1
 225.946289062 91.55859375 l 2
 215.126953125 91.55859375 203.497070312 97.7744140625 191.0625 110.215820312 c 0
 176.459960938 125.084960938 161.586914062 143.3359375 146.4453125 164.97265625 c 0
 136.166992188 178.762695312 127.110351562 191.470703125 119.26953125 203.100585938 c 0
 113.046875 212.290039062 104.122070312 226.220703125 92.4990234375 244.87890625 c 1
 143.334960938 251.907226562 168.752929688 271.649414062 168.752929688 304.09765625 c 0
 168.752929688 334.37890625 147.255859375 349.524414062 104.260742188 349.524414062 c 2
 88.041015625 349.524414062 l 1
 88.041015625 127.305664062 l 2
 88.041015625 119.447265625 89.4599609375 113.083007812 92.298828125 108.208984375 c 0
 95.1376953125 103.330078125 100.614257812 97.7763671875 108.727539062 91.5537109375 c 1
 15.435546875 91.5537109375 l 1
 15.435546875 91.556640625 l 1
EndSplineSet
EndChar

StartChar: biorxiv-square
Encoding: 16 59787 15
Width: 448
VWidth: 0
Flags: W
HStem: -32 140.295<24.112 101.273 174.693 245.887> -32 64.6035<361.162 423.888> 352 64<26.1522 163.79>
VStem: 0 40.4316<113.097 347.339> 0 23.5293<108.295 118.768> 84.0332 67.2598<257.702 311.948> 196.25 40.6172<255.974 270.561>
LayerCount: 2
Fore
SplineSet
48 416 m 2xae
 400 416 l 2
 426.5 416 448 394.5 448 368 c 2
 448 16 l 2
 448 -10.5 426.5 -32 400 -32 c 2x6e
 48 -32 l 2
 21.5 -32 0 -10.5 0 16 c 2
 0 368 l 2
 0 394.5 21.5 416 48 416 c 2xae
25.220703125 352 m 1
 28.9912109375 347.716796875 31.5830078125 344.563476562 32.998046875 342.53515625 c 0
 34.4130859375 340.506835938 35.8291015625 338.362304688 37.24609375 336.11328125 c 0
 39.3681640625 331.153320312 40.431640625 326.084960938 40.431640625 320.904296875 c 2
 40.431640625 137.365234375 l 2xb6
 40.431640625 131.28125 39.1904296875 126.094726562 36.712890625 121.81640625 c 0
 34.23046875 117.533203125 29.8359375 113.030273438 23.529296875 108.296875 c 1
 23.529296875 108.294921875 l 1
 101.2734375 108.294921875 l 1xae
 94.5126953125 113.48046875 89.9482421875 118.107421875 87.58203125 122.173828125 c 0
 85.2158203125 126.235351562 84.033203125 131.5390625 84.033203125 138.087890625 c 2
 84.033203125 323.271484375 l 1
 97.55078125 323.271484375 l 2
 133.379882812 323.271484375 151.29296875 310.6484375 151.29296875 285.4140625 c 0
 151.29296875 258.374023438 130.11328125 241.923828125 87.75 236.06640625 c 1
 97.4365234375 220.518554688 104.873046875 208.908203125 110.05859375 201.25 c 0
 116.591796875 191.55859375 124.139648438 180.96875 132.705078125 169.4765625 c 0
 145.323242188 151.446289062 157.715820312 136.23828125 169.884765625 123.84765625 c 0
 180.247070312 113.48046875 189.938476562 108.298828125 198.955078125 108.298828125 c 2
 253.7109375 108.298828125 l 1
 242.893554688 114.380859375 234.8359375 119.620117188 229.54296875 124.015625 c 0
 224.245117188 128.408203125 216.9765625 135.44921875 207.740234375 145.140625 c 0
 197.373046875 155.73046875 187.681640625 166.095703125 178.671875 176.236328125 c 0
 170.559570312 185.474609375 164.139648438 193.249023438 159.40625 199.560546875 c 2
 136.759765625 229.642578125 l 1
 148.928710938 232.568359375 157.828125 235.38671875 163.462890625 238.091796875 c 0
 169.092773438 240.794921875 174.840820312 245.073242188 180.703125 250.935546875 c 0
 191.064453125 261.296875 196.25 274.140625 196.25 289.466796875 c 0
 196.25 309.071289062 188.529296875 324.393554688 173.09765625 335.4375 c 0
 157.659179688 346.475585938 136.307617188 352 109.044921875 352 c 2
 25.220703125 352 l 1
268.421875 273.3125 m 0
 260.328125 273.3671875 251.841796875 271.872070312 243.369140625 269.357421875 c 0
 240.619140625 268.541992188 236.8671875 266.567382812 236.8671875 261.009765625 c 0
 236.802734375 256.426757812 239.208984375 255.3828125 243.177734375 255.021484375 c 0
 267.173828125 255.923828125 271.325195312 247.624023438 277.42578125 234.607421875 c 0
 288.643554688 208.352539062 299.819335938 182.07421875 310.568359375 155.626953125 c 0
 311.577148438 153.142578125 310.358398438 148.666992188 308.583984375 146.31640625 c 0
 296.595703125 130.440429688 283.145507812 115.571289062 272.205078125 99.02734375 c 0
 262.416992188 84.2255859375 249.85546875 67.388671875 245.88671875 50.248046875 c 0
 245.213867188 47.33984375 242.744140625 35.859375 251.298828125 32.36328125 c 0
 260.680664062 30.4033203125 261.341796875 36.40234375 269.2421875 49.982421875 c 0
 279.262695312 67.2080078125 292.252929688 91.7451171875 314.625 122.076171875 c 0
 316.427734375 124.909179688 319.208007812 127.118164062 322.162109375 130.2890625 c 1
 327.408203125 116.87890625 332.41796875 105.016601562 336.87890625 92.962890625 c 0
 343.674804688 74.6025390625 347.672851562 64.80078125 355.080078125 51.359375 c 0
 362.315429688 38.228515625 379.783203125 32.572265625 394.564453125 32.603515625 c 0x66
 400.9765625 32.6181640625 404.131835938 33.1064453125 410.400390625 34.384765625 c 0
 415.953125 35.517578125 425.26953125 36.6611328125 424.416015625 44.333984375 c 0
 423.635742188 51.353515625 414.416015625 50.05859375 409.56640625 50.04296875 c 0
 397.796875 49.8837890625 395.028320312 53.7041015625 391.15234375 60.931640625 c 0
 387.318359375 68.0791015625 383.48046875 75.2763671875 380.375 82.75390625 c 0
 371.034179688 105.249023438 362.215820312 127.959960938 352.80859375 150.42578125 c 0
 350.604492188 155.686523438 350.778320312 159.090820312 354.7109375 163.740234375 c 0
 375.556640625 188.3828125 395.387695312 213.858398438 408.904296875 243.4375 c 0
 411.213867188 248.860351562 412.170898438 251.422851562 413.837890625 258.4609375 c 0
 415.504882812 265.499023438 413.67578125 269.091796875 411.294921875 270.580078125 c 0
 408.9140625 272.067382812 406.100585938 271.991210938 403.896484375 271.779296875 c 0
 401.694335938 271.567382812 398.208984375 268.134765625 395.818359375 263.294921875 c 0
 391.1328125 254.251953125 370.955078125 221.389648438 358.068359375 200.720703125 c 0
 353.247070312 192.98828125 347.087890625 186.088867188 340.931640625 178.013671875 c 1
 339.041992188 182.161132812 337.733398438 184.903320312 336.525390625 187.69140625 c 0
 328.31640625 206.712890625 320.576171875 225.950195312 311.8359375 244.72265625 c 0
 302.133789062 265.560546875 286.227539062 273.192382812 268.421875 273.3125 c 0
EndSplineSet
EndChar

StartChar: ceur
Encoding: 17 59757 16
Width: 512
VWidth: 0
Flags: W
HStem: 0.000976562 63.999<128 256 320 384> 320 64<128 192 256 384>
VStem: 64.001 63.999<64 320> 384 63.999<64 320>
LayerCount: 2
Fore
SplineSet
128 64 m 1
 256 64.0009765625 l 1
 256 0.0009765625 l 1
 64.0009765625 0.0009765625 l 1
 64.0009765625 384 l 1
 192 384 l 1
 192 320 l 1
 128 320 l 1
 128 64 l 1
384 384 m 1
 447.999023438 383.999023438 l 1
 447.999023438 0 l 1
 320 0 l 1
 320 64 l 1
 384 64 l 1
 384 320 l 1
 256 320 l 1
 256 384 l 1
 384 384 l 1
EndSplineSet
EndChar

StartChar: ceur-square
Encoding: 18 59695 17
Width: 448
VWidth: 0
Flags: W
HStem: -32 64<64 224 277.332 384> 352 64<64 170.668 224 384>
VStem: 0 64<32 352> 117.334 213.332<85.334 298.666> 170.668 53.332<298.666 352> 224 53.332<32 85.334> 384 64<32 352>
LayerCount: 2
Fore
SplineSet
48 416 m 2xe2
 400 416 l 2
 426.5 416 448 394.5 448 368 c 2
 448 16 l 2
 448 -10.5 426.5 -32 400 -32 c 2
 48 -32 l 2
 21.5 -32 0 -10.5 0 16 c 2
 0 368 l 2
 0 394.5 21.5 416 48 416 c 2xe2
64 352 m 1
 64 32 l 1
 224 32 l 1
 224 85.333984375 l 1xe6
 117.333984375 85.333984375 l 1
 117.333984375 298.666015625 l 1xf2
 170.66796875 298.666015625 l 1
 170.66796875 352 l 1xea
 64 352 l 1
224 352 m 1xea
 224 298.666015625 l 1xea
 330.666015625 298.666015625 l 1
 330.666015625 85.333984375 l 1xf2
 277.33203125 85.333984375 l 1
 277.33203125 32 l 1xe6
 384 32 l 1
 384 352 l 1
 330.666015625 352 l 1xf2
 224 352 l 1xea
EndSplineSet
EndChar

StartChar: cienca-vitae
Encoding: 19 59666 18
Width: 512
VWidth: 0
HStem: 156.854 72.2578<168.333 220.627> 231.056 72.2578<355.811 408.106>
VStem: 158.351 72.2578<166.834 219.128> 345.831 72.2568<241.039 293.333>
LayerCount: 2
Fore
SplineSet
129.05859375 313.077148438 m 1
 168.114257812 274.021484375 l 1
 86.111328125 192 l 1
 167.141601562 109.978515625 l 1
 129.05859375 70.9228515625 l 1
 8 192 l 1
 129.05859375 313.077148438 l 1
381.950195312 303.313476562 m 0
 381.953125 303.313476562 381.958007812 303.313476562 381.961914062 303.313476562 c 0
 401.899414062 303.313476562 418.083984375 287.131835938 418.087890625 267.194335938 c 0
 418.087890625 267.19140625 418.087890625 267.185546875 418.087890625 267.182617188 c 0
 418.087890625 247.241210938 401.903320312 231.055664062 381.961914062 231.055664062 c 0
 381.958007812 231.055664062 381.953125 231.055664062 381.950195312 231.055664062 c 0
 362.012695312 231.060546875 345.831054688 247.245117188 345.831054688 267.182617188 c 0
 345.831054688 267.185546875 345.831054688 267.19140625 345.831054688 267.194335938 c 0
 345.834960938 287.127929688 362.016601562 303.309570312 381.950195312 303.313476562 c 0
300.919921875 240.8203125 m 1
 382.922851562 158.798828125 l 1
 464.944335938 240.8203125 l 1
 504 201.763671875 l 1
 382.922851562 80.6865234375 l 1
 262.836914062 201.763671875 l 1
 300.919921875 240.8203125 l 1
194.48828125 229.111328125 m 0
 214.426757812 229.106445312 230.608398438 212.921875 230.608398438 192.984375 c 0
 230.608398438 192.98046875 230.608398438 192.975585938 230.608398438 192.97265625 c 0
 230.603515625 173.0390625 214.421875 156.857421875 194.48828125 156.853515625 c 0
 194.485351562 156.853515625 194.48046875 156.853515625 194.477539062 156.853515625 c 0
 174.5390625 156.853515625 158.354492188 173.03515625 158.350585938 192.97265625 c 0
 158.350585938 192.975585938 158.350585938 192.98046875 158.350585938 192.984375 c 0
 158.350585938 212.92578125 174.53515625 229.111328125 194.477539062 229.111328125 c 0
 194.48046875 229.111328125 194.485351562 229.111328125 194.48828125 229.111328125 c 0
EndSplineSet
EndChar

StartChar: cienca-vitae-square
Encoding: 20 59667 19
Width: 448
VWidth: 0
Flags: W
LayerCount: 2
Fore
SplineSet
48 416 m 2
 400 416 l 2
 426.5 416 448 394.5 448 368 c 2
 448 16 l 2
 448 -10.5 426.5 -32 400 -32 c 2
 48 -32 l 2
 21.5 -32 0 -10.5 0 16 c 2
 0 368 l 2
 0 394.5 21.5 416 48 416 c 2
142.1015625 270.115234375 m 1
 64 192 l 1
 142.1015625 113.884765625 l 1
 166.671875 139.08203125 l 1
 114.39453125 192 l 1
 167.298828125 244.91796875 l 1
 142.1015625 270.115234375 l 1
305.2578125 263.814453125 m 0
 292.397460938 263.811523438 281.958007812 253.372070312 281.955078125 240.51171875 c 0
 281.955078125 240.509765625 281.955078125 240.506835938 281.955078125 240.504882812 c 0
 281.955078125 227.641601562 292.39453125 217.200195312 305.2578125 217.197265625 c 0
 305.259765625 217.197265625 305.262695312 217.197265625 305.264648438 217.197265625 c 0
 318.130859375 217.197265625 328.572265625 227.638671875 328.572265625 240.504882812 c 0
 328.572265625 240.506835938 328.572265625 240.509765625 328.572265625 240.51171875 c 0
 328.569335938 253.375 318.127929688 263.814453125 305.264648438 263.814453125 c 0
 305.262695312 263.814453125 305.259765625 263.814453125 305.2578125 263.814453125 c 0
252.98046875 223.49609375 m 1
 228.41015625 198.298828125 l 1
 305.884765625 120.185546875 l 1
 384 198.298828125 l 1
 358.802734375 223.49609375 l 1
 305.884765625 170.580078125 l 1
 252.98046875 223.49609375 l 1
184.314453125 215.943359375 m 0
 184.3125 215.943359375 184.309570312 215.943359375 184.307617188 215.943359375 c 0
 171.44140625 215.943359375 161 205.501953125 161 192.635742188 c 0
 161 192.633789062 161 192.62890625 161 192.626953125 c 0
 161.002929688 179.763671875 171.444335938 169.32421875 184.307617188 169.32421875 c 0
 184.309570312 169.32421875 184.3125 169.32421875 184.314453125 169.32421875 c 0
 197.174804688 169.327148438 207.614257812 179.766601562 207.6171875 192.626953125 c 0
 207.6171875 192.62890625 207.6171875 192.633789062 207.6171875 192.635742188 c 0
 207.6171875 205.499023438 197.177734375 215.940429688 184.314453125 215.943359375 c 0
EndSplineSet
EndChar

StartChar: conversation
Encoding: 21 59724 20
Width: 484
VWidth: 0
Flags: W
HStem: 38.7656 57.5645<168.575 366.684> 293.201 58.7988<173.27 366.005>
VStem: 61.0273 70.9727<137.063 253.234> 406 72.4482<136.105 253.234>
LayerCount: 2
Fore
SplineSet
324.198242188 352 m 2
 408.765625 352 478.448242188 282.317382812 478.448242188 197.750976562 c 2
 478.448242188 191.662109375 l 2
 478.448242188 108.448242188 410.118164062 38.765625 324.198242188 38.765625 c 2
 216.629882812 38.765625 l 2
 182.126953125 38.765625 149.653320312 49.58984375 123.9453125 69.208984375 c 1
 5.5517578125 32 l 1
 86.7353515625 108.448242188 l 1
 70.4990234375 133.479492188 61.02734375 161.217773438 61.02734375 191.662109375 c 2
 61.02734375 197.750976562 l 2
 61.02734375 282.317382812 130.709960938 352 215.27734375 352 c 2
 324.198242188 352 l 2
406 172 m 2
 406 212 l 2
 406 258.680664062 371.442382812 293.201171875 324.76171875 293.201171875 c 2
 213.133789062 293.201171875 l 2
 166.453125 293.201171875 132 258.680664062 132 212 c 2
 132 172 l 2
 132 125.319335938 166.453125 96.330078125 213.133789062 96.330078125 c 2
 324.76171875 96.330078125 l 2
 370.765625 96.330078125 406 125.319335938 406 172 c 2
EndSplineSet
EndChar

StartChar: conversation-square
Encoding: 22 59669 21
Width: 448
VWidth: 0
Flags: W
HStem: -32 120.309<159.808 325.09> 127.262 133.219<171.074 313.422> 300.27 115.73<160.849 324.691>
VStem: 0 101.539<146.842 240.959> 384 64<147.279 240.959>
LayerCount: 2
Fore
SplineSet
48 416 m 2
 400 416 l 2
 426.5 416 448 394.5 448 368 c 2
 448 16 l 2
 448 -10.5 426.5 -32 400 -32 c 2
 48 -32 l 2
 21.5 -32 0 -10.5 0 16 c 2
 0 368 l 2
 0 394.5 21.5 416 48 416 c 2
205.91796875 300.26953125 m 2
 148.693359375 300.26953125 101.5390625 253.115234375 101.5390625 195.890625 c 2
 101.5390625 191.771484375 l 2
 101.5390625 171.170898438 107.948242188 152.401367188 118.935546875 135.462890625 c 1
 64 83.73046875 l 1
 144.115234375 108.91015625 l 1
 161.51171875 95.6337890625 183.484375 88.30859375 206.83203125 88.30859375 c 2
 279.623046875 88.30859375 l 2
 337.763671875 88.30859375 384 135.462890625 384 191.771484375 c 2
 384 195.890625 l 2
 384 253.115234375 336.84765625 300.26953125 279.623046875 300.26953125 c 2
 205.91796875 300.26953125 l 2
204.466796875 260.48046875 m 2
 280.00390625 260.48046875 l 2
 311.591796875 260.48046875 334.9765625 237.12109375 334.9765625 205.533203125 c 2
 334.9765625 178.466796875 l 2
 334.9765625 146.87890625 311.133789062 127.26171875 280.00390625 127.26171875 c 2
 204.466796875 127.26171875 l 2
 172.87890625 127.26171875 149.564453125 146.87890625 149.564453125 178.466796875 c 2
 149.564453125 205.533203125 l 2
 149.564453125 237.12109375 172.87890625 260.48046875 204.466796875 260.48046875 c 2
EndSplineSet
EndChar

StartChar: coursera
Encoding: 23 59743 22
Width: 512
VWidth: 0
Flags: W
HStem: 65.3389 70.2002<106.9 182.415 350.656 404.172> 247.941 70.7402<105.865 182.307>
VStem: 8 74.7275<159.668 225.425>
LayerCount: 2
Fore
SplineSet
503.860351562 196.026367188 m 2
 503.861328125 196.026367188 l 2
 503.918945312 194.540039062 503.981445312 192.126953125 504 190.639648438 c 2
 504 189.68359375 l 2
 503.8828125 157.561523438 491.284179688 130.419921875 468.069335938 106.651367188 c 0
 443.560546875 81.6240234375 409.577148438 67.013671875 371.44921875 65.419921875 c 0
 368.866210938 65.318359375 369.368164062 65.318359375 366.885742188 65.318359375 c 0
 345.465820312 65.318359375 326.07421875 69.8818359375 308.243164062 77.498046875 c 0
 300.895507812 80.6845703125 291.686523438 85.8173828125 284.556640625 91.0341796875 c 0
 277.443359375 96.2666015625 267.060546875 106.734375 267.060546875 106.734375 c 1
 300.474609375 168.177734375 l 1
 308.4765625 159.874023438 324.697265625 141.2890625 350.177734375 135.987304688 c 1
 350.344726562 136.053710938 l 2
 356.969726562 134.594726562 363.999023438 134.109375 371.227539062 134.729492188 c 0
 405.950195312 137.732421875 431.848632812 165.39453125 429.065429688 196.526367188 c 0
 426.264648438 227.658203125 395.8359375 250.471679688 361.114257812 247.485351562 c 0
 340.4140625 245.706054688 322.8515625 235.15625 312.635742188 220.344726562 c 2
 312.518554688 220.161132812 l 2
 308.141601562 213.938476562 304.836914062 208.017578125 300.256835938 199.680664062 c 2
 298.712890625 196.896484375 l 1
 296.868164062 193.33984375 l 1
 296.868164062 193.22265625 l 1
 296.868164062 193.22265625 265.801757812 134.865234375 256.2578125 118.829101562 c 2
 255.1171875 117.186523438 l 1
 253.9765625 115.508789062 l 1
 251.52734375 112.439453125 l 1
 245.1015625 105.177734375 l 2
 243.390625 103.381835938 241.580078125 101.63671875 239.767578125 99.9091796875 c 2
 238.6953125 98.88671875 l 2
 235.609375 96.083984375 232.439453125 93.451171875 229.049804688 91.0185546875 c 2
 226.231445312 89.0908203125 l 1
 224.552734375 87.966796875 l 2
 222.290039062 86.3896484375 220.008789062 84.9140625 217.592773438 83.521484375 c 0
 213.147460938 81.0224609375 208.803710938 78.7744140625 204.325195312 76.8623046875 c 0
 186.411132812 69.1806640625 166.43359375 65.3388671875 144.844726562 65.3388671875 c 0
 142.428710938 65.3388671875 140.013671875 65.4052734375 137.564453125 65.5068359375 c 0
 99.4033203125 67.099609375 67.6162109375 80.5869140625 43.1767578125 105.61328125 c 0
 19.7587890625 129.466796875 7.9853515625 157.881835938 8 190.189453125 c 0
 8 192.119140625 8.0498046875 194.080078125 8.134765625 196.060546875 c 0
 9.140625 219.159179688 16.1533203125 240.6796875 29.0009765625 260.071289062 c 0
 41.8828125 279.461914062 59.2607421875 294.5078125 80.6982421875 304.840820312 c 0
 99.837890625 313.983398438 120.772460938 318.596679688 143.298828125 318.681640625 c 2
 144.45703125 318.681640625 l 2
 146.469726562 318.6640625 148.534179688 318.631835938 150.580078125 318.546875 c 0
 152.458007812 318.461914062 154.372070312 318.2265625 156.250976562 318.110351562 c 0
 156.552734375 318.076171875 156.88671875 318.04296875 157.182617188 317.989257812 c 0
 169.426757812 316.932617188 181.321289062 314.599609375 192.661132812 310.809570312 c 0
 193.96875 310.389648438 195.227539062 309.920898438 196.502929688 309.467773438 c 0
 196.921875 309.333984375 197.341796875 309.166015625 197.745117188 309.015625 c 0
 208.413085938 305.005859375 218.090820312 300.075195312 226.663085938 294.337890625 c 1
 190.833984375 230.009765625 l 1
 179.411132812 241.333007812 165.084960938 247.135742188 146.516601562 247.840820312 c 2
 142.876953125 247.94140625 l 2
 131.185546875 247.94140625 120.986328125 245.508789062 112.030273438 240.627929688 c 0
 111.649414062 240.430664062 111.041015625 240.092773438 110.671875 239.873046875 c 0
 107.46875 237.961914062 104.397460938 235.814453125 101.462890625 233.28125 c 0
 89.40234375 222.73046875 83.4150390625 210.518554688 82.759765625 194.818359375 c 0
 82.759765625 194.6015625 82.7421875 194.366210938 82.7275390625 194.09765625 c 0
 82.42578125 184.233398438 84.5888671875 174.922851562 89.470703125 165.815429688 c 0
 93.7978515625 157.782226562 99.5869140625 151.340820312 107.134765625 146.32421875 c 0
 107.911132812 145.801757812 109.196289062 144.989257812 110.002929688 144.512695312 c 0
 119.245117188 139.043945312 129.663085938 136.17578125 141.806640625 135.690429688 c 0
 143.282226562 135.60546875 144.724609375 135.5390625 146.133789062 135.5390625 c 0
 166.298828125 135.5390625 181.982421875 142.987304688 195.853515625 158.202148438 c 0
 202.076171875 166.856445312 207.646484375 177.340820312 212.845703125 187.858398438 c 2
 215.461914062 193.159179688 l 1
 216.704101562 195.591796875 l 1
 216.670898438 195.625 l 1
 240.373046875 243.547851562 l 2
 241.794921875 246.013671875 244.184570312 249.965820312 245.70703125 252.370117188 c 0
 248.408203125 256.8671875 252.081054688 261.864257812 256.057617188 266.696289062 c 1
 256.123046875 266.629882812 l 1
 256.139648438 266.596679688 l 2
 258.051757812 268.9609375 260.09765625 271.376953125 262.244140625 273.79296875 c 2
 265.146484375 276.845703125 l 1
 265.700195312 277.44921875 l 1
 266.840820312 278.573242188 l 1
 266.807617188 278.573242188 l 1
 269.240234375 281.15625 l 1
 271.017578125 282.900390625 l 2
 273.482421875 285.166015625 275.78125 287.228515625 277.895507812 288.90625 c 0
 288.27734375 297.259765625 300.977539062 304.219726562 315.553710938 309.484375 c 0
 330.013671875 314.801757812 345.393554688 317.821289062 361.295898438 318.541992188 c 0
 363.629882812 318.626953125 365.944335938 318.659179688 368.157226562 318.659179688 c 0
 390.802734375 318.659179688 412.020507812 314.030273438 431.227539062 304.854492188 c 0
 443.991210938 298.700195312 455.314453125 290.915039062 465.09375 281.505859375 c 0
 471.788085938 275.083007812 477.77734375 267.918945312 483.009765625 260.03515625 c 0
 494.734375 242.354492188 501.64453125 222.780273438 503.490234375 201.86328125 c 2
 503.490234375 201.830078125 l 1
 503.490234375 201.796875 l 2
 503.641601562 199.868164062 503.775390625 197.973632812 503.860351562 196.026367188 c 2
EndSplineSet
EndChar

StartChar: coursera-square
Encoding: 24 59775 23
Width: 448
VWidth: 0
Flags: W
HStem: -32 142.283<106.4 198.282 251.007 339.695> 155.574 72.4512<122.886 181.346 285.068 324.093> 273.717 142.283<106.458 197.411 250.41 341.584>
VStem: 0 64<150.74 231.762> 383.91 64.0898<151.982 232.108>
LayerCount: 2
Fore
SplineSet
48 416 m 2
 400 416 l 2
 426.5 416 448 394.5 448 368 c 2
 448 16 l 2
 448 -10.5 426.5 -32 400 -32 c 2
 48 -32 l 2
 21.5 -32 0 -10.5 0 16 c 2
 0 368 l 2
 0 394.5 21.5 416 48 416 c 2
151.2890625 273.73046875 m 2
 136.755859375 273.67578125 123.25 270.69921875 110.90234375 264.80078125 c 0
 97.0712890625 258.133789062 85.859375 248.426757812 77.548828125 235.916015625 c 0
 69.259765625 223.405273438 64.7353515625 209.521484375 64.0859375 194.619140625 c 0
 64.03125 193.341796875 64 192.077148438 64 190.83203125 c 0
 63.9912109375 169.98828125 71.587890625 151.657226562 86.6953125 136.267578125 c 0
 102.462890625 120.12109375 122.969726562 111.41796875 147.58984375 110.390625 c 0
 149.169921875 110.325195312 150.728515625 110.283203125 152.287109375 110.283203125 c 0
 166.21484375 110.283203125 179.104492188 112.760742188 190.662109375 117.716796875 c 0
 193.551757812 118.950195312 196.352539062 120.40234375 199.220703125 122.013671875 c 0
 200.779296875 122.912109375 202.250976562 123.86328125 203.7109375 124.880859375 c 2
 204.794921875 125.607421875 l 1
 206.61328125 126.8515625 l 2
 208.799804688 128.420898438 210.845703125 130.120117188 212.8359375 131.927734375 c 2
 213.52734375 132.5859375 l 2
 214.696289062 133.700195312 215.865234375 134.828125 216.96875 135.986328125 c 2
 221.11328125 140.669921875 l 1
 222.693359375 142.650390625 l 1
 223.4296875 143.734375 l 1
 224.166015625 144.79296875 l 2
 230.323242188 155.138671875 250.3671875 192.7890625 250.3671875 192.7890625 c 1
 250.3671875 192.865234375 l 1
 251.556640625 195.16015625 l 1
 252.552734375 196.955078125 l 2
 255.506835938 202.333984375 257.638671875 206.153320312 260.462890625 210.16796875 c 2
 260.5390625 210.287109375 l 2
 267.129882812 219.842773438 278.459960938 226.6484375 291.814453125 227.796875 c 0
 314.215820312 229.723632812 333.84765625 215.004882812 335.654296875 194.919921875 c 0
 337.450195312 174.834960938 320.741210938 156.98828125 298.33984375 155.05078125 c 0
 293.67578125 154.650390625 289.141601562 154.96484375 284.8671875 155.90625 c 2
 284.759765625 155.86328125 l 1
 268.321289062 159.283203125 257.85546875 171.2734375 252.693359375 176.630859375 c 1
 231.13671875 136.990234375 l 1
 231.13671875 136.990234375 237.834960938 130.237304688 242.423828125 126.861328125 c 0
 247.0234375 123.49609375 252.96484375 120.182617188 257.705078125 118.126953125 c 0
 269.208984375 113.213867188 281.719726562 110.26953125 295.5390625 110.26953125 c 0
 297.140625 110.26953125 296.81640625 110.270507812 298.482421875 110.3359375 c 0
 323.081054688 111.364257812 345.006835938 120.791015625 360.818359375 136.9375 c 0
 375.795898438 152.271484375 383.923828125 169.782226562 384 190.505859375 c 2
 384 191.123046875 l 2
 383.987304688 192.08203125 383.947265625 193.638671875 383.91015625 194.59765625 c 0
 383.85546875 195.853515625 383.76953125 197.076171875 383.671875 198.3203125 c 2
 383.671875 198.341796875 l 1
 383.671875 198.36328125 l 2
 382.481445312 211.857421875 378.022460938 224.48828125 370.458984375 235.89453125 c 0
 367.083007812 240.981445312 363.21875 245.602539062 358.900390625 249.74609375 c 0
 352.590820312 255.81640625 345.28515625 260.837890625 337.05078125 264.80859375 c 0
 324.659179688 270.728515625 310.96875 273.716796875 296.359375 273.716796875 c 0
 294.931640625 273.716796875 293.438476562 273.6953125 291.93359375 273.640625 c 0
 281.673828125 273.17578125 271.750976562 271.227539062 262.421875 267.796875 c 0
 253.017578125 264.400390625 244.823242188 259.909179688 238.125 254.51953125 c 0
 236.760742188 253.436523438 235.280273438 252.108398438 233.689453125 250.646484375 c 2
 232.541015625 249.51953125 l 1
 230.97265625 247.853515625 l 1
 230.994140625 247.853515625 l 1
 230.2578125 247.12890625 l 1
 229.900390625 246.73828125 l 1
 228.029296875 244.76953125 l 2
 226.643554688 243.2109375 225.323242188 241.65234375 224.08984375 240.126953125 c 2
 224.080078125 240.1484375 l 1
 224.037109375 240.19140625 l 1
 221.471679688 237.07421875 219.102539062 233.850585938 217.359375 230.94921875 c 0
 216.376953125 229.397460938 214.834960938 226.846679688 213.91796875 225.255859375 c 2
 198.626953125 194.337890625 l 1
 198.6484375 194.31640625 l 1
 197.845703125 192.748046875 l 1
 196.158203125 189.328125 l 2
 192.803710938 182.54296875 189.209960938 175.779296875 185.1953125 170.1953125 c 0
 176.24609375 160.37890625 166.12890625 155.57421875 153.119140625 155.57421875 c 0
 152.209960938 155.57421875 151.278320312 155.6171875 150.326171875 155.671875 c 0
 142.4921875 155.985351562 135.771484375 157.8359375 129.80859375 161.36328125 c 0
 129.288085938 161.670898438 128.458984375 162.194335938 127.95703125 162.53125 c 0
 123.087890625 165.767578125 119.354492188 169.924804688 116.5625 175.107421875 c 0
 113.413085938 180.983398438 112.016601562 186.989257812 112.2109375 193.353515625 c 0
 112.219726562 193.526367188 112.232421875 193.678710938 112.232421875 193.818359375 c 0
 112.655273438 203.947265625 116.517578125 211.826171875 124.298828125 218.6328125 c 0
 126.192382812 220.267578125 128.173828125 221.653320312 130.240234375 222.88671875 c 0
 130.477539062 223.028320312 130.870117188 223.24609375 131.115234375 223.373046875 c 0
 136.893554688 226.522460938 143.474609375 228.091796875 151.017578125 228.091796875 c 2
 153.365234375 228.025390625 l 2
 165.344726562 227.5703125 174.587890625 223.827148438 181.95703125 216.521484375 c 1
 205.072265625 258.025390625 l 1
 199.541992188 261.7265625 193.298828125 264.907226562 186.416015625 267.494140625 c 0
 186.15625 267.591796875 185.885742188 267.698242188 185.615234375 267.78515625 c 0
 184.79296875 268.077148438 183.98046875 268.379882812 183.13671875 268.650390625 c 0
 175.8203125 271.095703125 168.145507812 272.6015625 160.24609375 273.283203125 c 0
 160.055664062 273.318359375 159.840820312 273.338867188 159.646484375 273.361328125 c 0
 158.434570312 273.435546875 157.198242188 273.587890625 155.986328125 273.642578125 c 0
 154.666015625 273.697265625 153.3359375 273.719726562 152.037109375 273.73046875 c 2
 151.2890625 273.73046875 l 2
EndSplineSet
EndChar

StartChar: crossref
Encoding: 25 59672 24
Width: 320
VWidth: 0
Flags: W
LayerCount: 2
Fore
SplineSet
308.384765625 408 m 1
 308.384765625 277.766601562 l 1
 201.29296875 242.368164062 l 1
 308.384765625 206.978515625 l 1
 308.384765625 76.736328125 l 1
 11.615234375 -24.0009765625 l 1
 11.615234375 106.232421875 l 1
 118.70703125 141.630859375 l 1
 11.615234375 177.030273438 l 1
 11.615234375 307.262695312 l 1
 308.384765625 408 l 1
EndSplineSet
EndChar

StartChar: crossref-square
Encoding: 26 59673 25
Width: 448
VWidth: 0
Flags: W
VStem: 0 114.086<32 128.469 180.912 277.381> 333.914 114.086<106.619 203.096 255.531 352>
LayerCount: 2
Fore
SplineSet
48 416 m 2
 400 416 l 2
 426.5 416 448 394.5 448 368 c 2
 448 16 l 2
 448 -10.5 426.5 -32 400 -32 c 2
 48 -32 l 2
 21.5 -32 0 -10.5 0 16 c 2
 0 368 l 2
 0 394.5 21.5 416 48 416 c 2
333.9140625 352 m 1
 114.0859375 277.380859375 l 1
 114.0859375 180.912109375 l 1
 193.412109375 154.689453125 l 1
 114.0859375 128.46875 l 1
 114.0859375 32 l 1
 333.9140625 106.619140625 l 1
 333.9140625 203.095703125 l 1
 254.587890625 229.310546875 l 1
 333.9140625 255.53125 l 1
 333.9140625 352 l 1
EndSplineSet
EndChar

StartChar: cv
Encoding: 27 59813 26
Width: 512
VWidth: 0
HStem: 51.3145 55.6074<105.338 174.241> 278.21 54.4756<105.741 172.91>
VStem: 8 66.0986<142.497 242.174>
LayerCount: 2
Fore
SplineSet
249.1796875 119.67578125 m 1
 239.392578125 104.291992188 230.000976562 89.2421875 208.958007812 74.62109375 c 0
 197.701171875 66.73046875 171.793945312 51.314453125 134.967773438 51.314453125 c 0
 64.708984375 51.314453125 8 102.39453125 8 192.19921875 c 0
 8 270.684570312 61.3447265625 332.685546875 136.465820312 332.685546875 c 0
 166.900390625 332.685546875 193.940429688 322.1640625 213.852539062 306.380859375 c 0
 232.266601562 291.73046875 240.890625 277.077148438 248.416015625 263.924804688 c 1
 195.8359375 237.651367188 l 1
 192.07421875 246.278320312 187.545898438 255.30078125 175.922851562 265.057617188 c 0
 163.138671875 275.212890625 150.3828125 278.209960938 139.462890625 278.209960938 c 0
 96.6416015625 278.209960938 74.0986328125 238.384765625 74.0986328125 194.065429688 c 0
 74.0986328125 135.826171875 103.798828125 106.921875 139.462890625 106.921875 c 0
 174.026367188 106.921875 187.942382812 130.963867188 196.936523438 146.34765625 c 1
 249.180664062 119.67578125 l 1
 249.1796875 119.67578125 l 1
433.374023438 324.426757812 m 1
 504 324.426757812 l 1
 411.962890625 59.205078125 l 1
 344.366210938 59.205078125 l 1
 253.461914062 324.426757812 l 1
 324.086914062 324.426757812 l 1
 378.9296875 135.826171875 l 1
 433.374023438 324.426757812 l 1
EndSplineSet
EndChar

StartChar: cv-square
Encoding: 28 59658 27
Width: 448
VWidth: 0
Flags: W
HStem: -32 133.234<105.102 187.553> 137.111 110.508<122.107 175.106> 277.438 138.562<222.363 267.928 338.436 384>
VStem: 0 64<143.447 237.501>
LayerCount: 2
Fore
SplineSet
48 416 m 2
 400 416 l 2
 426.5 416 448 394.5 448 368 c 2
 448 16 l 2
 448 -10.5 426.5 -32 400 -32 c 2
 48 -32 l 2
 21.5 -32 0 -10.5 0 16 c 2
 0 368 l 2
 0 394.5 21.5 416 48 416 c 2
146.880859375 282.765625 m 0
 98.4150390625 282.765625 64 242.764648438 64 192.12890625 c 0
 64 134.190429688 100.5859375 101.234375 145.9140625 101.234375 c 0
 169.672851562 101.234375 186.387695312 111.180664062 193.650390625 116.271484375 c 0
 207.2265625 125.705078125 213.28515625 135.4140625 219.599609375 145.33984375 c 1
 185.89453125 162.546875 l 1
 180.091796875 152.622070312 171.11328125 137.111328125 148.814453125 137.111328125 c 0
 125.805664062 137.111328125 106.64453125 155.758789062 106.64453125 193.33203125 c 0
 106.64453125 221.92578125 121.1875 247.619140625 148.814453125 247.619140625 c 0
 155.859375 247.619140625 164.08984375 245.686523438 172.337890625 239.134765625 c 0
 179.836914062 232.83984375 182.756835938 227.018554688 185.18359375 221.453125 c 1
 219.107421875 238.40234375 l 1
 214.252929688 246.887695312 208.688476562 256.342773438 196.80859375 265.794921875 c 0
 183.961914062 275.977539062 166.515625 282.765625 146.880859375 282.765625 c 0
222.36328125 277.4375 m 1
 281.009765625 106.326171875 l 1
 324.62109375 106.326171875 l 1
 384 277.4375 l 1
 338.435546875 277.4375 l 1
 303.310546875 155.759765625 l 1
 267.927734375 277.4375 l 1
 222.36328125 277.4375 l 1
EndSplineSet
EndChar

StartChar: datacite
Encoding: 29 59676 28
Width: 512
VWidth: 0
Flags: W
HStem: 91.5791 2.0332<8.15843 21.4913> 302.904 1.61133<198.871 202.86>
LayerCount: 2
Fore
SplineSet
223.326171875 390.080078125 m 1
 223.325195312 390.081054688 l 1
 245.1640625 390.932617188 271.477539062 381.780273438 302.090820312 359.30078125 c 1
 239.983398438 387.630859375 207.770507812 356.423828125 198.87109375 304.515625 c 1
 199.473632812 304.518554688 200.077148438 304.541015625 200.6796875 304.541015625 c 0
 377.134765625 310.625976562 527.887695312 260.59375 500.844726562 190.283203125 c 0
 480.59765625 139.0703125 379.90234375 101.649414062 263.82421875 86.70703125 c 1
 308.125976562 37.58203125 365.370117188 23.3447265625 397.4140625 92.939453125 c 0
 399.442382812 93.615234375 400.791015625 93.6103515625 401.467773438 94.2861328125 c 1
 376.069335938 -60.310546875 262.321289062 -13.3251953125 200.46875 80.896484375 c 1
 137.833007812 77.4326171875 74.162109375 80.55078125 18.814453125 91.5791015625 c 0
 14.7578125 92.2548828125 11.3798828125 92.9365234375 8 93.6123046875 c 1
 65.248046875 93.322265625 126.818359375 101.064453125 181.427734375 114.990234375 c 1
 176.158203125 126.286132812 171.673828125 137.916015625 168.223632812 149.71875 c 0
 124.384765625 256.411132812 145.333007812 387.038085938 223.326171875 390.080078125 c 1
198.620117188 302.904296875 m 1
 191.44921875 258.361328125 201.086914062 199.130859375 223.65625 149.044921875 c 0
 226.48828125 142.77734375 229.591796875 136.706054688 232.845703125 130.783203125 c 1
 281.37109375 148.555664062 319.291015625 171.875 335.20703125 199.077148438 c 0
 368.034179688 255.5390625 289.259765625 292.163085938 198.620117188 302.904296875 c 1
EndSplineSet
EndChar

StartChar: datacite-square
Encoding: 30 59677 29
Width: 448
VWidth: 0
Flags: W
HStem: -32 134.281<24.112 186.445> 282.881 133.119<177.89 319.21> 351.957 64.043<169.254 239.395>
LayerCount: 2
Fore
SplineSet
48 416 m 2xa0
 400 416 l 2
 426.5 416 448 394.5 448 368 c 2
 448 16 l 2
 448 -10.5 426.5 -32 400 -32 c 2
 48 -32 l 2
 21.5 -32 0 -10.5 0 16 c 2
 0 368 l 2
 0 394.5 21.5 416 48 416 c 2xa0
200.962890625 351.990234375 m 0
 199.83203125 352.010742188 198.717773438 352 197.615234375 351.95703125 c 2xa0
 197.615234375 351.955078125 l 1
 134.633789062 349.498046875 117.715820312 244.014648438 153.1171875 157.857421875 c 0
 155.903320312 148.326171875 159.525390625 138.934570312 163.78125 129.8125 c 1
 119.682617188 118.56640625 69.9619140625 112.314453125 23.732421875 112.548828125 c 1
 26.4619140625 112.002929688 29.189453125 111.452148438 32.46484375 110.90625 c 0
 77.16015625 102.000976562 128.576171875 99.4833984375 179.15625 102.28125 c 1
 229.104492188 26.1943359375 320.958984375 -11.7470703125 341.46875 113.09375 c 1
 340.922851562 112.547851562 339.833007812 112.551757812 338.1953125 112.005859375 c 0
 312.319335938 55.8056640625 266.09375 67.302734375 230.318359375 106.97265625 c 1
 324.0546875 119.0390625 405.369140625 149.256835938 421.71875 190.61328125 c 0
 443.556640625 247.391601562 321.8203125 287.793945312 179.328125 282.880859375 c 0xc0
 178.840820312 282.880859375 178.354492188 282.862304688 177.8671875 282.859375 c 1
 185.0546875 324.77734375 211.065429688 349.978515625 261.21875 327.1015625 c 1
 238.04296875 344.120117188 217.918945312 351.678710938 200.962890625 351.990234375 c 0
177.6640625 281.55859375 m 1
 250.858398438 272.884765625 314.471679688 243.309570312 287.962890625 197.71484375 c 0
 275.110351562 175.748046875 244.48828125 156.91796875 205.302734375 142.56640625 c 1
 202.674804688 147.348632812 200.16796875 152.250976562 197.880859375 157.3125 c 0
 179.655273438 197.7578125 171.873046875 245.588867188 177.6640625 281.55859375 c 1
EndSplineSet
EndChar

StartChar: dataverse
Encoding: 31 59895 30
Width: 320
VWidth: 0
Flags: W
HStem: -56 19.5557<84.8199 161.577> 133.049 19.5527<84.8199 161.874> 163.577 19.5547<209.752 262.288> 277.111 19.5527<234.518 234.559 234.56 261.919> 346.206 16.2959<182.953 205.195> 423.704 16.2959<182.827 223.705>
VStem: 18.8965 19.5518<9.92426 86.6781> 156.368 16.2959<372.664 413.543> 168.019 19.5508<202.096 257.951> 207.948 19.5527<9.92426 86.8239> 233.866 16.2939<372.447 413.543> 281.548 19.5557<202.761 257.482>
LayerCount: 2
Fore
SplineSet
234.55859375 296.666015625 m 2xff70
 234.559570312 296.666992188 l 1
 271.250976562 296.666992188 301.103515625 266.815429688 301.103515625 230.120117188 c 0
 301.103515625 193.428710938 271.252929688 163.577148438 234.560546875 163.577148438 c 0
 226.901367188 163.577148438 219.573242188 164.943359375 212.720703125 167.334960938 c 1
 189.791015625 128.5078125 l 1
 212.815429688 109.360351562 227.500976562 80.5166015625 227.500976562 48.30078125 c 0
 227.500976562 -9.2109375 180.711914062 -56 123.198242188 -56 c 0
 65.685546875 -56 18.896484375 -9.2109375 18.896484375 48.30078125 c 0
 18.896484375 105.811523438 65.685546875 152.6015625 123.198242188 152.6015625 c 0
 141.4765625 152.6015625 158.661132812 147.862304688 173.615234375 139.569335938 c 1
 195.393554688 176.446289062 l 1
 178.834960938 188.563476562 168.018554688 208.079101562 168.018554688 230.122070312 c 0xfef0
 168.018554688 260.0703125 187.907226562 285.440429688 215.166992188 293.764648438 c 1
 205.1953125 346.305664062 l 2
 204.55078125 346.278320312 203.916015625 346.206054688 203.267578125 346.206054688 c 0
 177.408203125 346.206054688 156.368164062 367.245117188 156.368164062 393.103515625 c 0
 156.368164062 418.963867188 177.409179688 440 203.267578125 440 c 0
 229.123046875 440 250.16015625 418.963867188 250.16015625 393.10546875 c 0
 250.16015625 374.76171875 239.551757812 358.889648438 224.169921875 351.1875 c 1
 234.517578125 296.6640625 l 2
 234.533203125 296.6640625 234.543945312 296.666015625 234.55859375 296.666015625 c 2xff70
207.948242188 48.30078125 m 0
 207.948242188 95.0302734375 169.9296875 133.048828125 123.198242188 133.048828125 c 0
 76.466796875 133.048828125 38.4482421875 95.0302734375 38.4482421875 48.30078125 c 0
 38.4482421875 1.57421875 76.466796875 -36.4443359375 123.198242188 -36.4443359375 c 0
 169.9296875 -36.4443359375 207.948242188 1.57421875 207.948242188 48.30078125 c 0
203.267578125 362.501953125 m 0
 220.139648438 362.501953125 233.866210938 376.229492188 233.866210938 393.103515625 c 0
 233.866210938 409.977539062 220.141601562 423.704101562 203.267578125 423.704101562 c 0
 186.392578125 423.704101562 172.6640625 409.977539062 172.6640625 393.103515625 c 0xff70
 172.6640625 376.229492188 186.392578125 362.501953125 203.267578125 362.501953125 c 0
234.55859375 183.131835938 m 0
 260.467773438 183.131835938 281.551757812 204.211914062 281.547851562 230.12109375 c 0
 281.547851562 256.03125 260.467773438 277.111328125 234.55859375 277.111328125 c 0
 208.649414062 277.111328125 187.569335938 256.033203125 187.569335938 230.12109375 c 0xfef0
 187.569335938 204.211914062 208.6484375 183.131835938 234.55859375 183.131835938 c 0
EndSplineSet
EndChar

StartChar: dataverse-square
Encoding: 32 59876 31
Width: 448
VWidth: 0
Flags: W
HStem: -32 64<164.014 236.501> 44.6172 109.35<167.564 232.951> 166.582 249.418<164.014 221.361> 186.279 60.6309<248.718 295.486> 302.002 39.4844<234.12 269.706> 352 64<228.575 275.251>
VStem: 0 229.174<187.747 244.964> 0 132.965<63.0485 135.534> 145.58 109.354<66.5999 131.983> 232.17 39.4863<303.952 339.537> 241.787 60.6309<193.21 239.978> 267.549 180.451<63.0485 136.246> 282.168 165.832<298.351 345.083> 315.035 132.965<187.743 245.447>
LayerCount: 2
Fore
SplineSet
48 416 m 2xc504
 400 416 l 2
 426.5 416 448 394.5 448 368 c 2
 448 16 l 2
 448 -10.5 426.5 -32 400 -32 c 2
 48 -32 l 2
 21.5 -32 0 -10.5 0 16 c 2
 0 368 l 2
 0 394.5 21.5 416 48 416 c 2xc504
251.9140625 352 m 0
 235.231445312 352 221.65625 338.427734375 221.65625 321.744140625 c 0
 221.65625 305.061523438 235.231445312 291.48828125 251.9140625 291.48828125 c 0
 252.333007812 291.48828125 252.7421875 291.53515625 253.158203125 291.552734375 c 2
 259.591796875 257.654296875 l 1
 242.004882812 252.283203125 229.173828125 235.915039062 229.173828125 216.59375 c 0xc608
 229.173828125 202.372070312 236.151367188 189.782226562 246.833984375 181.96484375 c 1
 232.783203125 158.173828125 l 1
 223.134765625 163.524414062 212.049804688 166.58203125 200.2578125 166.58203125 c 0
 163.15234375 166.58203125 132.96484375 136.39453125 132.96484375 99.291015625 c 0
 132.96484375 62.1875 163.15234375 32 200.2578125 32 c 0
 237.36328125 32 267.548828125 62.1875 267.548828125 99.291015625 c 0xe110
 267.548828125 120.075195312 258.073242188 138.68359375 243.21875 151.037109375 c 1
 258.013671875 176.087890625 l 1
 262.434570312 174.544921875 267.162109375 173.662109375 272.103515625 173.662109375 c 0
 295.775390625 173.662109375 315.03515625 192.921875 315.03515625 216.59375 c 0xe004
 315.03515625 240.268554688 295.775390625 259.52734375 272.103515625 259.52734375 c 2
 272.1015625 259.52734375 l 2
 272.092773438 259.52734375 272.0859375 259.525390625 272.076171875 259.525390625 c 2
 265.400390625 294.701171875 l 1
 275.32421875 299.670898438 282.16796875 309.911132812 282.16796875 321.74609375 c 0xe008
 282.16796875 338.428710938 268.595703125 352 251.9140625 352 c 0
251.9140625 341.486328125 m 0xc840
 262.80078125 341.486328125 271.65625 332.630859375 271.65625 321.744140625 c 0
 271.65625 310.857421875 262.799804688 302.001953125 251.9140625 302.001953125 c 0
 241.02734375 302.001953125 232.169921875 310.857421875 232.169921875 321.744140625 c 0
 232.169921875 332.630859375 241.02734375 341.486328125 251.9140625 341.486328125 c 0xc840
272.1015625 246.91015625 m 0xd020
 288.817382812 246.91015625 302.41796875 233.309570312 302.41796875 216.59375 c 0
 302.419921875 199.877929688 288.817382812 186.279296875 272.1015625 186.279296875 c 0
 255.385742188 186.279296875 241.787109375 199.877929688 241.787109375 216.59375 c 0
 241.787109375 233.310546875 255.385742188 246.91015625 272.1015625 246.91015625 c 0xd020
200.2578125 153.966796875 m 0
 230.407226562 153.966796875 254.93359375 129.438476562 254.93359375 99.291015625 c 0
 254.93359375 69.14453125 230.407226562 44.6171875 200.2578125 44.6171875 c 0
 170.108398438 44.6171875 145.580078125 69.14453125 145.580078125 99.291015625 c 0xc080
 145.580078125 129.439453125 170.108398438 153.966796875 200.2578125 153.966796875 c 0
EndSplineSet
EndChar

StartChar: dblp
Encoding: 33 59727 32
Width: 384
VWidth: 0
Flags: W
LayerCount: 2
Fore
SplineSet
32.2470703125 407.987304688 m 0
 35.130859375 407.791015625 39.001953125 405.418945312 39.001953125 405.418945312 c 1
 164.098632812 328.7109375 l 2
 176.334960938 321.20703125 179.166015625 310.637695312 179.166015625 310.637695312 c 1
 191.321289062 264.997070312 190.002929688 269.6875 191.321289062 264.997070312 c 2
 203.111328125 221.004882812 l 1
 223.48046875 144.981445312 l 2
 223.584960938 144.591796875 223.639648438 144.228515625 223.709960938 143.853515625 c 0
 225.551757812 134.087890625 216.239257812 129.731445312 216.239257812 129.731445312 c 1
 192.678710938 118.778320312 l 1
 192.678710938 118.778320312 151.788085938 99.7744140625 81.5712890625 67.1396484375 c 0
 71.49609375 62.4580078125 68.666015625 73.0234375 68.666015625 73.0234375 c 1
 24.48828125 237.8984375 l 2
 21.6552734375 248.466796875 31.7294921875 253.1484375 31.7294921875 253.1484375 c 1
 65.3818359375 268.786132812 l 1
 65.3876953125 268.7890625 l 1
 29.59765625 402.3515625 l 2
 28.359375 406.975585938 30.00390625 408.139648438 32.2470703125 407.987304688 c 0
307.358398438 317.834960938 m 0
 313.461914062 317.729492188 315.333984375 310.751953125 315.333984375 310.751953125 c 1
 359.51171875 145.879882812 l 2
 362.344726562 135.311523438 352.271484375 130.629882812 352.2734375 130.629882812 c 2
 318.66796875 115.010742188 l 1
 354.3984375 -18.33984375 329.439453125 74.80859375 354.40234375 -18.349609375 c 0
 357.233398438 -28.919921875 345.000976562 -21.4169921875 345.000976562 -21.4169921875 c 1
 219.904296875 55.291015625 l 2
 207.668945312 62.794921875 204.836914062 73.3642578125 204.836914062 73.3642578125 c 1
 204.697265625 73.921875 l 1
 195.630859375 107.846679688 l 1
 229.375976562 123.624023438 l 1
 229.375976562 123.624023438 237.764648438 129.3359375 236.84375 137.747070312 c 0
 236.772460938 138.119140625 236.720703125 138.486328125 236.6171875 138.875 c 2
 217.026367188 212.314453125 l 1
 217.053710938 212.295898438 l 1
 201.568359375 270.056640625 l 1
 302.428710938 316.638671875 l 2
 304.317382812 317.516601562 305.94921875 317.859375 307.358398438 317.834960938 c 0
EndSplineSet
EndChar

StartChar: dblp-square
Encoding: 34 59711 33
Width: 448
VWidth: 0
Flags: W
LayerCount: 2
Fore
SplineSet
48 416 m 2
 400 416 l 2
 426.5 416 448 394.5 448 368 c 2
 448 16 l 2
 448 -10.5 426.5 -32 400 -32 c 2
 48 -32 l 2
 21.5 -32 0 -10.5 0 16 c 2
 0 368 l 2
 0 394.5 21.5 416 48 416 c 2
105.6640625 351.990234375 m 0
 104.002929688 352.102539062 102.783203125 351.2421875 103.701171875 347.81640625 c 2
 130.212890625 248.880859375 l 1
 130.208984375 248.87890625 l 1
 105.28125 237.294921875 l 1
 105.28125 237.294921875 97.8193359375 233.827148438 99.91796875 225.998046875 c 2
 132.642578125 103.869140625 l 1
 132.642578125 103.869140625 134.73828125 96.0439453125 142.201171875 99.51171875 c 0
 194.213867188 123.685546875 224.50390625 137.76171875 224.50390625 137.76171875 c 1
 241.955078125 145.875 l 1
 241.955078125 145.875 248.852539062 149.1015625 247.48828125 156.3359375 c 0
 247.436523438 156.61328125 247.395507812 156.8828125 247.318359375 157.171875 c 2
 232.23046875 213.486328125 l 1
 223.498046875 246.072265625 l 2
 222.521484375 249.546875 223.498046875 246.071289062 214.494140625 279.87890625 c 1
 214.494140625 279.87890625 212.395507812 287.708984375 203.33203125 293.267578125 c 2
 110.66796875 350.087890625 l 1
 110.66796875 350.087890625 107.799804688 351.845703125 105.6640625 351.990234375 c 0
309.451171875 285.2109375 m 0
 308.408203125 285.228515625 307.197265625 284.974609375 305.798828125 284.32421875 c 2
 231.087890625 249.8203125 l 1
 242.55859375 207.033203125 l 1
 242.537109375 207.046875 l 1
 257.05078125 152.6484375 l 2
 257.126953125 152.360351562 257.1640625 152.088867188 257.216796875 151.8125 c 0
 257.899414062 145.58203125 251.685546875 141.3515625 251.685546875 141.3515625 c 1
 226.689453125 129.6640625 l 1
 233.40625 104.53515625 l 1
 233.5078125 104.12109375 l 1
 233.5078125 104.12109375 235.606445312 96.29296875 244.669921875 90.734375 c 2
 337.333984375 33.9140625 l 1
 337.333984375 33.9140625 346.39453125 28.35546875 344.296875 36.185546875 c 0
 325.805664062 105.192382812 344.295898438 36.1923828125 317.828125 134.970703125 c 1
 342.720703125 146.541015625 l 2
 342.719726562 146.541015625 350.180664062 150.008789062 348.08203125 157.837890625 c 2
 315.357421875 279.96484375 l 1
 315.357421875 279.96484375 313.97265625 285.1328125 309.451171875 285.2109375 c 0
EndSplineSet
EndChar

StartChar: depsy
Encoding: 35 59770 34
Width: 512
VWidth: 0
Flags: W
HStem: -56 48.3174<182.566 276.228> 61.918 178.729<197.66 280.744>
VStem: 8 72.3369<118.407 213.848> 156.06 165.088<104.848 198.452> 393.81 110.19<118.253 231.469>
LayerCount: 2
Fore
SplineSet
393.809570312 398.204101562 m 1
 460.250976562 353.712890625 504 277.969726562 504 192 c 0
 504 55.0341796875 392.965820312 -56 256 -56 c 0
 119.034179688 -56 8 55.0341796875 8 192 c 0
 8 328.965820312 119.034179688 440 256 440 c 0
 290.750976562 440 323.826171875 432.840820312 353.848632812 419.934570312 c 1
 317.807617188 419.934570312 l 1
 317.807617188 269.598632812 l 1
 304.275390625 283.33203125 289.53515625 293.6328125 273.590820312 300.5 c 0
 257.650390625 307.365234375 240.598632812 310.802734375 222.432617188 310.802734375 c 0
 182.942382812 310.802734375 149.392578125 295.860351562 121.76953125 265.98046875 c 0
 94.1494140625 236.096679688 80.3369140625 197.772460938 80.3369140625 151.001953125 c 0
 80.3369140625 105.903320312 94.607421875 68.1787109375 123.15625 37.8330078125 c 0
 151.705078125 7.48828125 185.541015625 -7.6826171875 224.654296875 -7.6826171875 c 0
 242.081054688 -7.6826171875 258.252929688 -4.57421875 273.180664062 1.64453125 c 0
 288.09765625 7.8583984375 302.975585938 18.0205078125 317.807617188 32.1279296875 c 1
 317.807617188 0.1123046875 l 1
 393.809570312 0.1123046875 l 1
 393.809570312 398.204101562 l 1
237.9140625 240.647460938 m 2
 261.959960938 240.647460938 281.845703125 232.477539062 297.560546875 216.149414062 c 0
 313.284179688 199.814453125 321.147460938 178.469726562 321.147460938 152.118164062 c 0
 321.147460938 125.206054688 313.284179688 103.442382812 297.560546875 86.833984375 c 0
 281.84375 70.2216796875 262.048828125 61.91796875 238.1875 61.91796875 c 0
 215.063476562 61.91796875 195.596679688 70.3603515625 179.78125 87.2509765625 c 0
 163.96484375 104.137695312 156.059570312 125.669921875 156.059570312 151.838867188 c 0
 156.059570312 177.822265625 163.830078125 199.1171875 179.3671875 215.731445312 c 0
 194.90625 232.33984375 214.419921875 240.647460938 237.9140625 240.647460938 c 2
EndSplineSet
EndChar

StartChar: depsy-square
Encoding: 36 59723 35
Width: 448
VWidth: 0
Flags: W
HStem: -32 64<165.332 282.668> 63.1719 44.9043<180.707 244.915> 223.385 45.2617<180.311 244.303> 352 64<165.332 282.554>
VStem: 0 64<133.332 250.668> 110.67 48.8516<129.919 202.317> 263.875 49.0332<68.2012 88.8555 126.198 205.566 242.064 325.035> 384 64<133.332 250.898>
LayerCount: 2
Fore
SplineSet
48 416 m 2
 400 416 l 2
 426.5 416 448 394.5 448 368 c 2
 448 16 l 2
 448 -10.5 426.5 -32 400 -32 c 2
 48 -32 l 2
 21.5 -32 0 -10.5 0 16 c 2
 0 368 l 2
 0 394.5 21.5 416 48 416 c 2
224 352 m 0
 135.634765625 352 64 280.365234375 64 192 c 0
 64 103.634765625 135.634765625 32 224 32 c 0
 312.365234375 32 384 103.634765625 384 192 c 0
 384 247.463867188 355.7734375 296.331054688 312.908203125 325.03515625 c 1
 312.908203125 68.201171875 l 1
 263.875 68.201171875 l 1
 263.875 88.85546875 l 1
 254.305664062 79.75390625 244.708007812 73.19921875 235.083984375 69.189453125 c 0
 225.453125 65.177734375 215.020507812 63.171875 203.77734375 63.171875 c 0
 178.54296875 63.171875 156.713867188 72.9599609375 138.294921875 92.537109375 c 0
 119.875976562 112.114257812 110.669921875 136.453125 110.669921875 165.548828125 c 0
 110.669921875 195.723632812 119.581054688 220.448242188 137.400390625 239.728515625 c 0
 155.221679688 259.005859375 176.866210938 268.646484375 202.34375 268.646484375 c 0
 214.063476562 268.646484375 225.065429688 266.4296875 235.349609375 262 c 0
 245.63671875 257.569335938 255.14453125 250.924804688 263.875 242.064453125 c 1
 263.875 339.0546875 l 1
 287.12890625 339.0546875 l 1
 267.759765625 347.381835938 246.419921875 352 224 352 c 0
212.33203125 223.384765625 m 0
 197.174804688 223.384765625 184.583984375 218.025390625 174.55859375 207.310546875 c 0
 164.53515625 196.591796875 159.521484375 182.853515625 159.521484375 166.08984375 c 0
 159.521484375 149.20703125 164.622070312 135.314453125 174.826171875 124.419921875 c 0
 185.030273438 113.522460938 197.588867188 108.076171875 212.5078125 108.076171875 c 0
 227.90234375 108.076171875 240.671875 113.432617188 250.8125 124.150390625 c 0
 260.95703125 134.865234375 266.03125 148.907226562 266.03125 166.26953125 c 0
 266.03125 183.270507812 260.95703125 197.041015625 250.8125 207.580078125 c 0
 240.673828125 218.114257812 227.845703125 223.384765625 212.33203125 223.384765625 c 0
EndSplineSet
EndChar

StartChar: doi
Encoding: 37 59774 36
Width: 512
VWidth: 0
HStem: -56 166.967<247.196 329.802> 153.833 71.6602<93.7311 138.653 268.318 311.821> 262.159 27.5215<393.411 431.909> 267.532 172.468<247.39 329.784> 345.554 94.4463<151.24 197.176>
VStem: 8 23.2373<146.628 229.857> 83.0156 67.1934<163.885 213.596> 197.176 9.85254<161.494 217.398> 257.787 64.749<167.642 214.681> 373.291 14.9551<154.817 223.569> 437.069 66.9307<118.253 259.893>
LayerCount: 2
Fore
SplineSet
115.592773438 225.4921875 m 1xc7e0
 115.591796875 225.493164062 l 1
 124.323242188 225.493164062 135.508789062 220.037109375 141.661132812 213.8828125 c 0
 147.813476562 207.829101562 150.208984375 197.374023438 150.208984375 188.642578125 c 0
 150.208984375 179.811523438 145.091796875 169.647460938 138.939453125 163.59375 c 0
 132.887695312 157.540039062 122.383789062 153.833007812 113.549804688 153.833007812 c 0
 103.725585938 153.833007812 97.099609375 158.865234375 90.947265625 166.208007812 c 0
 85.8857421875 172.162109375 83.015625 180.66015625 83.015625 188.30078125 c 0
 83.015625 195.943359375 85.544921875 205.122070312 90.6064453125 211.075195312 c 0
 96.8583984375 218.418945312 105.866210938 225.4921875 115.592773438 225.4921875 c 1xc7e0
290.236328125 223.092773438 m 1
 299.166015625 223.092773438 306.759765625 219.790039062 313.008789062 213.1953125 c 0
 319.359375 206.704101562 322.536132812 198.75 322.536132812 189.327148438 c 0
 322.536132812 179.799804688 319.411132812 171.744140625 313.157226562 165.147460938 c 0
 306.90625 158.65625 299.267578125 155.405273438 290.236328125 155.405273438 c 0
 280.116210938 155.405273438 271.877929688 159.385742188 265.52734375 167.341796875 c 0
 260.369140625 173.728515625 257.787109375 181.056640625 257.787109375 189.327148438 c 0
 257.787109375 197.493164062 260.369140625 204.76953125 265.52734375 211.15625 c 0
 271.877929688 219.112304688 280.116210938 223.092773438 290.236328125 223.092773438 c 1
256 440 m 0xd7e0
 392.965820312 440 504 328.965820312 504 192 c 0
 504 55.0341796875 392.965820312 -56 256 -56 c 0
 119.034179688 -56 8 55.0341796875 8 192 c 0
 8 328.965820312 119.034179688 440 256 440 c 0xd7e0
197.173828125 116.208984375 m 1
 197.17578125 116.208984375 l 1
 197.17578125 345.553710938 l 1
 151.240234375 345.553710938 l 1xcfe0
 151.240234375 247.051757812 l 1
 145.98046875 252.509765625 137.09765625 258.115234375 132.135742188 260.49609375 c 0
 123.502929688 264.662109375 111.38671875 265.543945312 101.563476562 265.543945312 c 0
 84.693359375 265.543945312 68.796875 256.568359375 55.7978515625 245.354492188 c 0
 39.423828125 231.264648438 31.2373046875 212.41015625 31.2373046875 188.791992188 c 0
 31.2373046875 165.571289062 38.744140625 144.028320312 54.720703125 129.938476562 c 0
 68.1171875 118.130859375 83.3974609375 112.706054688 100.565429688 112.706054688 c 0
 111.184570312 112.706054688 122.50390625 115.744140625 130.838867188 120.407226562 c 0
 135.599609375 123.084960938 146.57421875 129.053710938 151.23828125 134.908203125 c 1
 151.23828125 116.208984375 l 1
 197.173828125 116.208984375 l 1
354.389648438 137.349609375 m 1
 354.389648438 137.348632812 l 1
 366.9921875 151.796875 373.293945312 169.122070312 373.291015625 189.327148438 c 0
 373.291015625 209.325195312 366.940429688 226.543945312 354.239257812 240.9921875 c 0
 338.658203125 258.686523438 317.819335938 267.532226562 291.721679688 267.532226562 c 0xd7e0
 263.342773438 267.532226562 241.459960938 258.685546875 226.080078125 240.9921875 c 0
 213.37890625 226.3359375 207.028320312 209.533203125 207.028320312 190.583984375 c 0
 207.028320312 169.541992188 213.331054688 151.797851562 225.931640625 137.349609375 c 0
 241.216796875 119.76171875 262.650390625 110.966796875 290.236328125 110.966796875 c 0
 317.72265625 110.966796875 339.108398438 119.76171875 354.389648438 137.349609375 c 1
393.159179688 336.567382812 m 1
 387.899414062 331.307617188 385.267578125 324.857421875 385.270507812 317.217773438 c 0
 385.270507812 309.577148438 387.899414062 303.077148438 393.159179688 297.71875 c 0
 398.515625 292.359375 405.015625 289.680664062 412.657226562 289.680664062 c 0xe7e0
 420.397460938 289.680664062 426.897460938 292.309570312 432.15625 297.569335938 c 0
 437.515625 302.928710938 440.194335938 309.477539062 440.194335938 317.216796875 c 0
 440.194335938 324.857421875 437.515625 331.307617188 432.15625 336.567382812 c 0
 426.797851562 341.92578125 420.297851562 344.604492188 412.657226562 344.604492188 c 0
 405.017578125 344.604492188 398.517578125 341.92578125 393.159179688 336.567382812 c 1
437.069335938 116.32421875 m 1
 437.069335938 262.159179688 l 1
 388.24609375 262.159179688 l 1
 388.24609375 116.32421875 l 1
 437.069335938 116.32421875 l 1
EndSplineSet
EndChar

StartChar: doi-square
Encoding: 38 59791 37
Width: 448
VWidth: 0
Flags: W
HStem: -32 64<165.332 282.668> 140.842 26.5352<115.489 150.243 229.389 262.183> 212.061 28.6699<115.357 150.044 228.032 264.082> 255.02 35.4355<312.653 337.488> 352 64<165.332 282.668>
VStem: 0 64<133.332 250.668> 78.9922 33.4043<169.911 209.983> 156.414 29.6348<143.104 155.166 173.859 205.932 227.518 291.066> 192.404 32.748<173.504 209.511> 266.926 32.7461<174.876 209.32> 309.32 31.498<143.178 237.264 260.368 285.11> 384 64<133.332 250.668>
LayerCount: 2
Fore
SplineSet
48 416 m 2
 400 416 l 2
 426.5 416 448 394.5 448 368 c 2
 448 16 l 2
 448 -10.5 426.5 -32 400 -32 c 2
 48 -32 l 2
 21.5 -32 0 -10.5 0 16 c 2
 0 368 l 2
 0 394.5 21.5 416 48 416 c 2
224 352 m 0
 135.634765625 352 64 280.365234375 64 192 c 0
 64 103.634765625 135.634765625 32 224 32 c 0
 312.365234375 32 384 103.634765625 384 192 c 0
 384 280.365234375 312.365234375 352 224 352 c 0
156.4140625 291.06640625 m 1
 186.048828125 291.06640625 l 1
 186.048828125 143.103515625 l 1
 156.412109375 143.103515625 l 1
 156.412109375 155.166015625 l 2
 153.403320312 151.388671875 146.322265625 147.538085938 143.25 145.810546875 c 0
 137.873046875 142.802734375 130.571289062 140.841796875 123.720703125 140.841796875 c 0
 112.64453125 140.841796875 102.78515625 144.34375 94.142578125 151.9609375 c 0
 83.8349609375 161.051757812 78.9921875 174.948242188 78.9921875 189.9296875 c 0
 78.9921875 205.166992188 84.2744140625 217.331054688 94.837890625 226.421875 c 0
 103.224609375 233.65625 113.479492188 239.447265625 124.36328125 239.447265625 c 0
 130.700195312 239.447265625 138.518554688 238.87890625 144.087890625 236.19140625 c 0
 147.2890625 234.655273438 153.020507812 231.0390625 156.4140625 227.517578125 c 2
 156.4140625 291.06640625 l 1
325.0703125 290.455078125 m 0
 329.999023438 290.455078125 334.193359375 288.7265625 337.650390625 285.26953125 c 0
 341.107421875 281.875976562 342.833984375 277.71484375 342.833984375 272.78515625 c 0
 342.833984375 267.791992188 341.107421875 263.56640625 337.650390625 260.109375 c 0
 334.256835938 256.715820312 330.063476562 255.01953125 325.0703125 255.01953125 c 0
 320.139648438 255.01953125 315.946289062 256.748046875 312.490234375 260.205078125 c 0
 309.096679688 263.662109375 307.400390625 267.856445312 307.400390625 272.78515625 c 0
 307.3984375 277.713867188 309.096679688 281.875976562 312.490234375 285.26953125 c 0
 315.947265625 288.7265625 320.141601562 290.455078125 325.0703125 290.455078125 c 0
247.046875 240.73046875 m 0
 263.883789062 240.73046875 277.328125 235.0234375 287.380859375 223.607421875 c 0
 295.575195312 214.286132812 299.671875 203.176757812 299.671875 190.275390625 c 0
 299.673828125 177.240234375 295.606445312 166.061523438 287.4765625 156.740234375 c 0
 277.618164062 145.39453125 263.8203125 139.720703125 246.087890625 139.720703125 c 0
 228.290039062 139.720703125 214.462890625 145.395507812 204.6015625 156.7421875 c 0
 196.471679688 166.063476562 192.404296875 177.509765625 192.404296875 191.0859375 c 0
 192.404296875 203.311523438 196.502929688 214.151367188 204.697265625 223.607421875 c 0
 214.620117188 235.022460938 228.737304688 240.73046875 247.046875 240.73046875 c 0
309.3203125 237.263671875 m 1
 340.818359375 237.263671875 l 1
 340.818359375 143.177734375 l 1
 309.3203125 143.177734375 l 1
 309.3203125 237.263671875 l 1
133.4140625 213.609375 m 1
 133.4140625 213.607421875 l 1
 127.139648438 213.607421875 121.328125 209.043945312 117.294921875 204.306640625 c 0
 114.029296875 200.465820312 112.396484375 194.543945312 112.396484375 189.61328125 c 0
 112.396484375 184.684570312 114.248046875 179.200195312 117.513671875 175.359375 c 0
 121.482421875 170.622070312 125.758789062 167.376953125 132.09765625 167.376953125 c 0
 137.796875 167.376953125 144.572265625 169.768554688 148.4765625 173.673828125 c 0
 152.4453125 177.579101562 155.748046875 184.13671875 155.748046875 189.833984375 c 0
 155.748046875 195.466796875 154.201171875 202.211914062 150.232421875 206.1171875 c 0
 146.263671875 210.087890625 139.046875 213.609375 133.4140625 213.609375 c 1
246.087890625 212.060546875 m 0
 239.55859375 212.060546875 234.244140625 209.493164062 230.146484375 204.359375 c 0
 226.818359375 200.239257812 225.15234375 195.543945312 225.15234375 190.275390625 c 0
 225.15234375 184.939453125 226.818359375 180.211914062 230.146484375 176.091796875 c 0
 234.244140625 170.958007812 239.55859375 168.390625 246.087890625 168.390625 c 0
 251.915039062 168.390625 256.841796875 170.48828125 260.875 174.67578125 c 0
 264.91015625 178.931640625 266.92578125 184.12890625 266.92578125 190.275390625 c 0
 266.92578125 196.354492188 264.875976562 201.486328125 260.779296875 205.673828125 c 0
 256.747070312 209.928710938 251.848632812 212.060546875 246.087890625 212.060546875 c 0
EndSplineSet
EndChar

StartChar: dryad
Encoding: 39 59772 38
Width: 512
VWidth: 0
HStem: -55.9961 114.512<258.712 393.231>
LayerCount: 2
Fore
SplineSet
425.864257812 66.8974609375 m 1
 399.266601562 69.2421875 348.674804688 72.291015625 347.55859375 83.7841796875 c 0
 348.385742188 98.6787109375 365.249023438 107.620117188 381.865234375 117.287109375 c 0
 410.323242188 133.8828125 431.548828125 155.45703125 444.092773438 185.787109375 c 0
 444.795898438 187.446289062 449.817382812 203.294921875 449.569335938 202.072265625 c 0
 418.528320312 163.486328125 384.138671875 136.68359375 352.0234375 111.624023438 c 0
 341.276367188 103.284179688 327.450195312 98.5546875 314.4921875 93.5966796875 c 0
 309.408203125 91.646484375 299.095703125 91.646484375 297.7109375 94.2392578125 c 0
 295.127929688 99.15625 295.58203125 107.267578125 297.751953125 112.868164062 c 0
 306.018554688 134.381835938 318.232421875 154.731445312 323.8125 176.8046875 c 0
 331.397460938 206.635742188 334.641601562 238.64453125 337.329101562 269.34765625 c 0
 340.326171875 303.494140625 339.375 337.453125 340.098632812 371.806640625 c 0
 340.22265625 377.2421875 340.098632812 387.075195312 338.239257812 393.090820312 c 1
 331.791015625 385.685546875 331.522460938 373.71484375 331.522460938 373.71484375 c 1
 325.672851562 341.311523438 327.181640625 295.859375 320.734375 297.39453125 c 0
 314.265625 298.9296875 291.9453125 366.703125 297.62890625 405.911132812 c 1
 283.05859375 396.908203125 287.833007812 364.857421875 293.123046875 345.833984375 c 0
 297.62890625 329.673828125 302.8984375 312.829101562 308.87109375 297.93359375 c 0
 315.173828125 282.250976562 312.198242188 263.974609375 311.887695312 247.004882812 c 0
 311.681640625 236.072265625 308.849609375 225.036132812 306.142578125 214.310546875 c 0
 302.774414062 201.075195312 295.106445312 197.3203125 284.669921875 206.095703125 c 0
 272.291015625 216.489257812 260.985351562 228.935546875 251.913085938 242.358398438 c 0
 225.83203125 280.963867188 204.544921875 321.853515625 200.288085938 369.586914062 c 0
 199.771484375 375.16796875 197.518554688 380.58203125 195.596679688 387.884765625 c 1
 186.978515625 365.915039062 191.483398438 355.002929688 193.075195312 339.984375 c 0
 198.779296875 286.462890625 228.993164062 244.184570312 258.939453125 201.926757812 c 0
 273.40625 181.47265625 277.931640625 160.146484375 268.900390625 134.961914062 c 0
 258.2578125 105.254882812 239.905273438 95.4423828125 209.153320312 107.059570312 c 0
 175.052734375 119.983398438 161.970703125 148.341796875 153.5390625 181.990234375 c 0
 146.368164062 210.66015625 145.06640625 243.810546875 141.44921875 291.834960938 c 0
 139.630859375 316.272460938 135.62109375 332.412109375 125.991210938 334.071289062 c 1
 127.7890625 322.391601562 132.06640625 303.887695312 133.782226562 290.984375 c 0
 136.96484375 267.044921875 136.159179688 251.008789062 133.162109375 227.08984375 c 0
 132.2734375 219.663085938 127.189453125 214.083007812 124.60546875 215.596679688 c 0
 104.083984375 227.50390625 96.5400390625 271.8359375 94.4326171875 290.008789062 c 1
 83.169921875 276.649414062 95.87890625 231.798828125 123.344726562 197.23828125 c 0
 132.892578125 186.243164062 137.481445312 173.27734375 144.342773438 160.041992188 c 0
 149.7578125 149.524414062 148.889648438 139.110351562 140.540039062 130.604492188 c 0
 131.880859375 121.74609375 119.315429688 120.107421875 107.96875 123.053710938 c 0
 101.645507812 124.712890625 93.853515625 128.135742188 84.28515625 131.102539062 c 1
 94.3291015625 115.833984375 110.201171875 115.709960938 122.1875 114.340820312 c 0
 134.215820312 112.971679688 144.466796875 113.822265625 156.536132812 113.822265625 c 0
 176.29296875 113.799804688 186.647460938 97.3095703125 196.526367188 84.01171875 c 0
 223.0625 48.267578125 222.7109375 9.4130859375 210.724609375 -31.01953125 c 0
 209.236328125 -36.060546875 208.471679688 -41.3291015625 207.107421875 -46.412109375 c 0
 206.65234375 -48.154296875 205.392578125 -49.7109375 204.524414062 -51.2451171875 c 0
 67.0498046875 -19.236328125 -4.890625 103.532226562 9.90625 217.568359375 c 0
 30.615234375 377.366210938 163.666015625 450.575195312 275.783203125 438.771484375 c 0
 437.975585938 421.71875 512.913085938 288.805664062 503.158203125 175.475585938 c 0
 489.311523438 14.7021484375 360.413085938 -56.59765625 258.711914062 -55.99609375 c 1
 262.163085938 -20.5634765625 267.206054688 14.4326171875 288.658203125 43.662109375 c 0
 301.182617188 60.7353515625 320.794921875 66.12890625 342.040039062 63.7431640625 c 0
 360.309570312 61.6484375 374.920898438 59.345703125 393.231445312 58.515625 c 0
 403.234375 59.1796875 414.497070312 60.4033203125 425.864257812 66.896484375 c 2
 425.864257812 66.8974609375 l 1
EndSplineSet
EndChar

StartChar: dryad-square
Encoding: 40 59788 39
Width: 448
VWidth: 0
Flags: W
HStem: -32 64.002<225.75 283.233> 105.881 5.4082<306.148 329.818> 351.992 64.0078<164.658 281.697>
VStem: 183.402 4.6543<292.449 317.718> 260.057 18.2012<198.719 273.05>
LayerCount: 2
Fore
SplineSet
48 416 m 2
 400 416 l 2
 426.5 416 448 394.5 448 368 c 2
 448 16 l 2
 448 -10.5 426.5 -32 400 -32 c 2
 48 -32 l 2
 21.5 -32 0 -10.5 0 16 c 2
 0 368 l 2
 0 394.5 21.5 416 48 416 c 2
223.064453125 351.9921875 m 0
 153.984375 352.700195312 77.755859375 305.1484375 65.23046875 208.49609375 c 0
 55.68359375 134.924804688 102.095703125 55.7177734375 190.7890625 35.06640625 c 0
 191.348632812 36.056640625 192.163085938 37.0615234375 192.45703125 38.185546875 c 0
 193.336914062 41.46484375 193.829101562 44.865234375 194.7890625 48.1171875 c 0
 202.522460938 74.2021484375 202.749023438 99.26953125 185.62890625 122.330078125 c 0
 179.255859375 130.909179688 172.576171875 141.547851562 159.830078125 141.5625 c 0
 152.04296875 141.5625 145.4296875 141.012695312 137.669921875 141.896484375 c 0
 129.936523438 142.780273438 119.697265625 142.860351562 113.216796875 152.7109375 c 1
 119.390625 150.796875 124.416015625 148.588867188 128.49609375 147.517578125 c 0
 135.81640625 145.6171875 143.922851562 146.67578125 149.509765625 152.390625 c 0
 154.896484375 157.877929688 155.456054688 164.596679688 151.962890625 171.3828125 c 0
 147.536132812 179.921875 144.576171875 188.28515625 138.416015625 195.37890625 c 0
 120.696289062 217.676757812 112.497070312 246.61328125 119.763671875 255.232421875 c 1
 121.124023438 243.5078125 125.990234375 214.907226562 139.23046875 207.224609375 c 0
 140.897460938 206.248046875 144.176757812 209.846679688 144.75 214.638671875 c 0
 146.68359375 230.0703125 147.204101562 240.416992188 145.150390625 255.861328125 c 0
 144.043945312 264.186523438 141.283203125 276.123046875 140.123046875 283.658203125 c 1
 146.3359375 282.587890625 148.922851562 272.176757812 150.095703125 256.41015625 c 0
 152.428710938 225.426757812 153.26953125 204.0390625 157.896484375 185.54296875 c 0
 163.3359375 163.833984375 171.775390625 145.537109375 193.775390625 137.19921875 c 0
 213.615234375 129.704101562 225.456054688 136.03515625 232.322265625 155.201171875 c 0
 238.149414062 171.44921875 235.229492188 185.208007812 225.896484375 198.404296875 c 0
 206.576171875 225.666992188 187.08203125 252.944335938 183.40234375 287.474609375 c 0
 182.375976562 297.1640625 179.469726562 304.203125 185.029296875 318.376953125 c 1
 186.26953125 313.666015625 187.723632812 310.172851562 188.056640625 306.572265625 c 0
 190.802734375 275.776367188 204.537109375 249.395507812 221.36328125 224.48828125 c 0
 227.216796875 215.829101562 234.509765625 207.798828125 242.49609375 201.09375 c 0
 249.229492188 195.432617188 254.176757812 197.85546875 256.349609375 206.39453125 c 0
 258.096679688 213.314453125 259.922851562 220.432617188 260.056640625 227.486328125 c 0
 260.256835938 238.434570312 262.17578125 250.225585938 258.109375 260.34375 c 0
 254.255859375 269.953125 250.858398438 280.822265625 247.951171875 291.248046875 c 0
 244.538085938 303.521484375 241.45703125 324.19921875 250.857421875 330.0078125 c 1
 247.190429688 304.711914062 261.58984375 260.986328125 265.763671875 259.99609375 c 0
 269.923828125 259.005859375 268.951171875 288.331054688 272.724609375 309.236328125 c 2
 272.724609375 309.236328125 272.896484375 316.958007812 277.056640625 321.736328125 c 1
 278.256835938 317.85546875 278.337890625 311.510742188 278.2578125 308.00390625 c 0
 277.791015625 285.840820312 278.404296875 263.932617188 276.470703125 241.90234375 c 0
 274.737304688 222.09375 272.643554688 201.443359375 267.75 182.197265625 c 0
 264.149414062 167.95703125 256.270507812 154.826171875 250.9375 140.947265625 c 0
 249.537109375 137.333984375 249.243164062 132.1015625 250.91015625 128.9296875 c 0
 251.803710938 127.256835938 258.456054688 127.255859375 261.736328125 128.513671875 c 0
 270.096679688 131.712890625 279.017578125 134.763671875 285.951171875 140.14453125 c 0
 306.670898438 156.3125 328.856445312 173.604492188 348.8828125 198.498046875 c 0
 349.04296875 199.287109375 345.802734375 189.063476562 345.349609375 187.9921875 c 0
 337.255859375 168.424804688 323.563476562 154.505859375 305.203125 143.798828125 c 0
 294.482421875 137.5625 283.603515625 131.79296875 283.0703125 122.18359375 c 0
 283.790039062 114.76953125 316.4296875 112.801757812 333.58984375 111.2890625 c 1
 326.256835938 107.099609375 318.990234375 106.30859375 312.537109375 105.880859375 c 0
 300.723632812 106.416015625 291.295898438 107.90234375 279.509765625 109.25390625 c 0
 265.803710938 110.79296875 253.150390625 107.313476562 245.0703125 96.298828125 c 0
 231.23046875 77.44140625 227.9765625 54.861328125 225.75 32.001953125 c 1
 291.36328125 31.61328125 374.5234375 77.615234375 383.45703125 181.33984375 c 0
 389.75 254.456054688 341.404296875 340.205078125 236.763671875 351.20703125 c 0
 232.243164062 351.682617188 227.669921875 351.9453125 223.064453125 351.9921875 c 0
EndSplineSet
EndChar

